<?xml version="1.0" encoding="UTF-8" standalone="no"?>
<svg xmlns:xlink="http://www.w3.org/1999/xlink" height="46.0px" width="240.0px" xmlns="http://www.w3.org/2000/svg">
  <g transform="matrix(1, 0, 0, 1, 120.0, 25.5)">
    <path d="M-119.5 -15.0 Q-119.5 -25.0 -109.5 -25.0 L109.5 -25.0 Q119.5 -25.0 119.5 -15.0 L119.5 10.0 Q119.5 20.0 109.5 20.0 L-109.5 20.0 Q-119.5 20.0 -119.5 10.0 L-119.5 -15.0" fill="#5ccfff" fill-opacity="0.2" fill-rule="evenodd" stroke="none"/>
    <path d="M109.5 -25.0 L-109.5 -25.0 Q-119.5 -25.0 -119.5 -15.0 L-119.5 10.0 Q-119.5 20.0 -109.5 20.0 M119.5 10.0 L119.5 -15.0 Q119.5 -25.0 109.5 -25.0" fill="none" stroke="#ff8000" stroke-linecap="round" stroke-linejoin="round" stroke-opacity="0.0" stroke-width="1.0"/>
    <path d="M-109.5 20.0 L109.5 20.0 Q119.5 20.0 119.5 10.0" fill="none" stroke="#ff8000" stroke-linecap="round" stroke-linejoin="round" stroke-opacity="0.0" stroke-width="1.0"/>
  </g>
</svg>
