<?xml version="1.0" encoding="UTF-8" standalone="no"?>
<svg xmlns:xlink="http://www.w3.org/1999/xlink" height="10.2px" width="7.65px" xmlns="http://www.w3.org/2000/svg">
  <g transform="matrix(1, 0, 0, 1, -4.9, 21.45)">
    <path d="M8.85 -18.95 L9.75 -20.6 Q10.0 -21.2 10.6 -21.35 L11.75 -21.25 11.85 -21.2 12.5 -20.4 Q12.65 -19.8 12.4 -19.25 L12.2 -18.95 8.85 -18.95 M11.7 -17.95 L8.8 -12.35 5.45 -12.35 8.35 -17.95 11.7 -17.95 M8.3 -11.35 L8.25 -11.25 4.9 -11.25 4.95 -11.35 8.3 -11.35" fill="#eeeeee" fill-rule="evenodd" stroke="none"/>
    <path d="M12.2 -18.95 L11.7 -17.95 8.35 -17.95 8.85 -18.95 12.2 -18.95 M8.8 -12.35 L8.3 -11.35 4.95 -11.35 5.45 -12.35 8.8 -12.35" fill="#747474" fill-rule="evenodd" stroke="none"/>
  </g>
</svg>
