<?xml version="1.0" encoding="UTF-8" standalone="no"?>
<svg xmlns:xlink="http://www.w3.org/1999/xlink" height="10.55px" width="7.75px" xmlns="http://www.w3.org/2000/svg">
  <g transform="matrix(1, 0, 0, 1, -4.8, 21.15)">
    <path d="M8.85 -18.65 L9.7 -20.3 Q10.0 -20.9 10.6 -21.05 L11.75 -21.0 12.4 -20.3 12.5 -20.1 Q12.65 -19.55 12.4 -18.95 L12.25 -18.65 8.85 -18.65 M11.75 -17.65 L8.7 -11.65 5.35 -11.65 8.35 -17.65 11.75 -17.65 M8.2 -10.65 L8.2 -10.6 4.8 -10.6 4.85 -10.65 8.2 -10.65" fill="#eeeeee" fill-rule="evenodd" stroke="none"/>
    <path d="M12.25 -18.65 L11.75 -17.65 8.35 -17.65 8.85 -18.65 12.25 -18.65 M8.7 -11.65 L8.2 -10.65 4.85 -10.65 5.35 -11.65 8.7 -11.65" fill="#6e6e6e" fill-rule="evenodd" stroke="none"/>
  </g>
</svg>
