<?xml version="1.0" encoding="UTF-8" standalone="no"?>
<svg xmlns:xlink="http://www.w3.org/1999/xlink" height="139.0px" width="799.95px" xmlns="http://www.w3.org/2000/svg">
  <g transform="matrix(1, 0, 0, 1, 0.0, -33.0)">
    <path d="M799.95 172.0 L0.0 172.0 0.0 33.0 799.95 33.0 799.95 172.0" fill="url(#gradient0)" fill-rule="evenodd" stroke="none"/>
    <path d="M449.8 127.3 Q449.8 126.85 450.15 126.5 450.45 126.2 450.95 126.2 L459.2 126.2 Q459.65 126.2 460.0 126.5 460.4 126.9 460.4 127.3 L460.35 147.15 474.7 147.15 Q475.2 147.15 475.5 147.5 475.9 147.8 475.9 148.3 L475.9 154.85 475.55 155.65 474.75 156.0 451.0 156.0 Q450.6 156.0 450.15 155.65 449.8 155.2 449.8 154.85 L449.8 127.3 M437.45 126.5 Q437.85 126.2 438.3 126.2 L445.7 126.2 Q446.2 126.2 446.55 126.5 L446.9 127.3 446.9 154.85 446.55 155.65 Q446.1 156.0 445.7 156.0 L437.2 156.0 436.7 155.85 436.25 155.5 425.55 141.1 425.55 154.85 425.2 155.65 424.35 156.0 416.95 156.0 416.15 155.65 Q415.8 155.2 415.8 154.85 L415.8 127.3 Q415.8 126.95 416.15 126.5 416.55 126.2 416.95 126.2 L425.4 126.2 425.95 126.35 426.35 126.7 437.15 141.3 437.15 127.3 Q437.15 126.9 437.45 126.5 M376.8 141.05 Q376.8 133.25 381.35 129.45 385.9 125.6 394.65 125.6 403.45 125.6 408.0 129.45 412.55 133.3 412.55 141.05 412.55 148.8 408.0 152.65 403.45 156.45 394.65 156.45 385.9 156.45 381.35 152.65 376.8 148.85 376.8 141.05 M389.25 136.1 Q387.4 137.75 387.4 141.05 387.4 144.3 389.25 145.95 391.15 147.6 394.65 147.6 398.25 147.6 400.1 145.95 402.0 144.35 402.0 141.05 402.0 137.7 400.1 136.1 398.25 134.45 394.65 134.45 391.15 134.45 389.25 136.1 M486.55 126.5 L486.85 127.3 486.85 154.85 486.55 155.65 Q486.3 156.0 485.85 156.0 L478.8 156.0 Q478.45 156.0 478.1 155.65 477.8 155.3 477.8 154.85 L477.8 127.3 Q477.8 126.9 478.1 126.5 478.4 126.2 478.8 126.2 L485.85 126.2 Q486.35 126.2 486.55 126.5 M524.15 126.5 Q524.55 126.2 524.95 126.2 L547.1 126.2 Q547.6 126.2 547.9 126.5 548.25 126.85 548.25 127.3 L548.25 132.85 Q548.25 133.4 547.9 133.7 547.6 134.05 547.1 134.05 L534.35 134.05 534.35 137.1 545.25 137.1 Q545.7 137.1 546.05 137.45 546.4 137.8 546.4 138.25 L546.4 143.7 546.05 144.55 545.25 144.9 534.35 144.9 534.35 148.1 548.15 148.1 Q548.65 148.1 548.95 148.45 L549.25 149.3 549.25 154.85 548.95 155.65 Q548.6 156.0 548.15 156.0 L524.95 156.0 524.15 155.65 Q523.8 155.2 523.8 154.85 L523.8 127.3 Q523.8 126.95 524.15 126.5 M520.55 126.5 L520.9 127.3 520.9 154.85 520.55 155.65 519.7 156.0 511.2 156.0 510.7 155.85 510.25 155.5 499.55 141.1 499.55 154.85 499.2 155.65 498.35 156.0 490.95 156.0 Q490.6 156.0 490.15 155.65 489.8 155.2 489.8 154.85 L489.8 127.3 Q489.8 126.95 490.15 126.5 490.55 126.2 490.95 126.2 L499.4 126.2 499.95 126.35 500.35 126.7 511.15 141.3 511.15 127.3 Q511.15 126.9 511.45 126.5 511.85 126.2 512.3 126.2 L519.7 126.2 Q520.2 126.2 520.55 126.5" fill="#99cc00" fill-rule="evenodd" stroke="none"/>
    <path d="M449.8 127.3 Q449.8 126.85 450.15 126.5 450.45 126.2 450.95 126.2 L459.2 126.2 Q459.65 126.2 460.0 126.5 460.4 126.9 460.4 127.3 L460.35 147.15 474.7 147.15 Q475.2 147.15 475.5 147.5 475.9 147.8 475.9 148.3 L475.9 154.85 475.55 155.65 474.75 156.0 451.0 156.0 Q450.6 156.0 450.15 155.65 449.8 155.2 449.8 154.85 L449.8 127.3 M437.45 126.5 Q437.85 126.2 438.3 126.2 L445.7 126.2 Q446.2 126.2 446.55 126.5 L446.9 127.3 446.9 154.85 446.55 155.65 Q446.1 156.0 445.7 156.0 L437.2 156.0 436.7 155.85 436.25 155.5 425.55 141.1 425.55 154.85 425.2 155.65 424.35 156.0 416.95 156.0 416.15 155.65 Q415.8 155.2 415.8 154.85 L415.8 127.3 Q415.8 126.95 416.15 126.5 416.55 126.2 416.95 126.2 L425.4 126.2 425.95 126.35 426.35 126.7 437.15 141.3 437.15 127.3 Q437.15 126.9 437.45 126.5 M376.8 141.05 Q376.8 133.25 381.35 129.45 385.9 125.6 394.65 125.6 403.45 125.6 408.0 129.45 412.55 133.3 412.55 141.05 412.55 148.8 408.0 152.65 403.45 156.45 394.65 156.45 385.9 156.45 381.35 152.65 376.8 148.85 376.8 141.05 M389.25 136.1 Q387.4 137.75 387.4 141.05 387.4 144.3 389.25 145.95 391.15 147.6 394.65 147.6 398.25 147.6 400.1 145.95 402.0 144.35 402.0 141.05 402.0 137.7 400.1 136.1 398.25 134.45 394.65 134.45 391.15 134.45 389.25 136.1 M486.55 126.5 L486.85 127.3 486.85 154.85 486.55 155.65 Q486.3 156.0 485.85 156.0 L478.8 156.0 Q478.45 156.0 478.1 155.65 477.8 155.3 477.8 154.85 L477.8 127.3 Q477.8 126.9 478.1 126.5 478.4 126.2 478.8 126.2 L485.85 126.2 Q486.35 126.2 486.55 126.5 M524.15 126.5 Q524.55 126.2 524.95 126.2 L547.1 126.2 Q547.6 126.2 547.9 126.5 548.25 126.85 548.25 127.3 L548.25 132.85 Q548.25 133.4 547.9 133.7 547.6 134.05 547.1 134.05 L534.35 134.05 534.35 137.1 545.25 137.1 Q545.7 137.1 546.05 137.45 546.4 137.8 546.4 138.25 L546.4 143.7 546.05 144.55 545.25 144.9 534.35 144.9 534.35 148.1 548.15 148.1 Q548.65 148.1 548.95 148.45 L549.25 149.3 549.25 154.85 548.95 155.65 Q548.6 156.0 548.15 156.0 L524.95 156.0 524.15 155.65 Q523.8 155.2 523.8 154.85 L523.8 127.3 Q523.8 126.95 524.15 126.5 M520.55 126.5 L520.9 127.3 520.9 154.85 520.55 155.65 519.7 156.0 511.2 156.0 510.7 155.85 510.25 155.5 499.55 141.1 499.55 154.85 499.2 155.65 498.35 156.0 490.95 156.0 Q490.6 156.0 490.15 155.65 489.8 155.2 489.8 154.85 L489.8 127.3 Q489.8 126.95 490.15 126.5 490.55 126.2 490.95 126.2 L499.4 126.2 499.95 126.35 500.35 126.7 511.15 141.3 511.15 127.3 Q511.15 126.9 511.45 126.5 511.85 126.2 512.3 126.2 L519.7 126.2 Q520.2 126.2 520.55 126.5" fill="url(#gradient1)" fill-rule="evenodd" stroke="none"/>
    <path d="M124.5 90.1 L122.25 89.6 119.4 89.4 Q117.05 89.4 115.45 90.2 113.75 91.05 112.6 92.45 111.45 93.95 110.85 95.75 110.3 97.7 110.3 99.75 110.3 101.6 110.75 103.25 111.2 104.9 112.1 106.0 113.05 107.15 114.5 107.85 115.85 108.5 117.85 108.5 L121.6 107.95 Q123.05 107.45 124.5 106.5 L124.5 90.1 M130.1 77.9 Q135.4 78.85 139.75 80.75 L139.75 118.5 Q139.75 121.75 139.1 125.3 138.5 128.8 137.2 131.65 135.95 134.55 133.9 137.15 131.85 139.75 129.05 141.5 126.2 143.3 122.55 144.35 118.8 145.35 114.25 145.35 L105.5 144.7 Q101.45 144.0 98.85 142.95 L98.85 132.6 Q102.45 133.75 105.1 134.15 L110.4 134.6 Q113.9 134.6 116.65 133.6 119.3 132.55 121.0 130.75 122.75 129.1 123.6 126.55 124.5 124.15 124.5 121.35 L124.85 115.3 124.7 115.3 122.5 117.6 119.85 119.5 Q118.25 120.35 116.55 120.8 L112.6 121.25 Q108.45 121.25 105.2 119.8 101.95 118.4 99.45 115.7 97.1 113.1 95.7 109.35 94.35 105.7 94.35 101.1 94.35 95.3 96.4 90.65 98.4 86.15 101.85 83.1 105.25 80.1 109.75 78.5 114.3 76.9 119.2 76.9 L130.1 77.9 M298.1 89.8 L298.95 87.95 288.7 87.95 288.7 103.85 Q288.7 105.2 289.1 106.55 289.55 107.85 290.4 108.75 L292.55 110.25 Q293.9 110.8 295.6 110.8 L297.65 110.7 298.9 110.5 297.95 108.4 Q296.35 104.05 296.35 99.1 296.35 93.9 298.1 89.8 M323.25 90.0 Q321.65 88.25 318.9 88.25 317.65 88.25 316.45 88.8 315.35 89.35 314.4 90.3 313.6 91.2 312.95 92.45 312.45 93.55 312.3 94.95 L324.75 94.95 Q324.75 91.8 323.25 90.0 M195.5 89.65 L192.4 89.4 Q188.15 89.4 185.75 92.2 183.4 95.0 183.4 99.85 183.4 104.3 185.45 106.55 187.5 108.9 191.05 108.9 L194.85 108.35 Q196.7 107.8 197.95 106.85 L197.95 90.4 196.9 89.95 195.5 89.65 M364.25 90.0 Q362.65 88.25 359.9 88.25 358.65 88.25 357.45 88.8 356.35 89.35 355.4 90.3 354.6 91.2 353.95 92.45 353.45 93.55 353.3 94.95 L365.75 94.95 Q365.75 91.8 364.25 90.0 M368.8 78.35 Q372.8 79.9 375.3 82.5 377.9 85.05 379.4 88.95 380.8 92.7 380.8 97.45 L380.65 100.3 380.25 103.0 353.2 103.0 Q353.35 104.95 354.15 106.75 354.95 108.4 356.35 109.4 357.8 110.4 360.1 110.95 L365.55 111.45 369.35 111.3 376.15 110.1 378.9 109.35 378.9 118.3 Q377.7 119.05 375.85 119.65 L371.75 120.8 366.85 121.65 361.55 121.95 Q355.7 121.95 351.25 120.25 346.8 118.6 343.7 115.6 340.65 112.7 338.95 108.4 338.0 105.85 337.6 103.0 L312.2 103.0 Q312.35 104.95 313.15 106.75 313.95 108.4 315.35 109.4 316.8 110.4 319.1 110.95 L324.55 111.45 328.35 111.3 335.15 110.1 337.9 109.35 337.9 118.3 Q336.7 119.05 334.85 119.65 L330.75 120.8 325.85 121.65 320.55 121.95 Q314.7 121.95 310.25 120.25 305.8 118.6 302.7 115.6 301.2 114.25 299.9 112.2 L299.9 120.45 295.4 121.55 292.55 121.85 289.55 121.95 Q281.65 121.95 277.7 118.0 273.7 114.15 273.7 105.9 L273.7 87.95 268.2 87.95 268.2 121.0 253.2 121.0 253.2 87.95 240.75 121.0 223.85 121.0 212.9 89.35 212.9 121.0 198.9 121.0 198.05 115.6 197.85 115.6 195.6 117.95 Q194.55 118.95 192.7 120.0 L189.15 121.4 184.9 121.95 Q180.45 121.95 177.15 120.45 173.9 118.95 171.7 116.25 169.5 113.6 168.45 109.95 167.35 106.35 167.35 101.95 167.35 96.4 168.9 92.1 L168.6 92.05 165.2 91.8 Q162.7 91.8 161.15 92.6 159.65 93.3 158.75 94.85 157.85 96.35 157.55 98.4 157.2 100.35 157.2 103.05 L157.2 121.0 142.2 121.0 142.1 88.1 140.95 77.95 154.85 77.95 155.5 79.9 156.15 82.35 156.65 84.8 157.0 86.8 157.2 86.8 Q160.8 76.9 167.75 76.9 170.15 76.9 171.4 77.5 L171.4 87.15 Q172.9 84.9 174.75 83.2 178.15 80.1 182.7 78.5 187.25 76.9 192.2 76.9 198.05 76.9 203.35 77.95 L209.5 79.5 209.0 77.95 224.8 77.95 231.05 100.55 Q232.55 105.5 232.7 109.1 L232.9 109.1 Q233.1 107.05 233.45 105.35 L234.6 100.85 241.5 77.95 273.7 77.95 276.9 64.6 288.7 64.6 288.7 77.95 299.9 77.95 299.9 86.35 Q301.1 84.55 302.9 82.8 306.0 79.95 310.1 78.45 314.15 76.9 319.0 76.9 323.85 76.9 327.8 78.35 331.8 79.9 334.3 82.5 336.9 85.05 338.4 88.95 L338.85 90.35 339.1 89.8 Q340.8 85.75 343.9 82.8 347.0 79.95 351.1 78.45 355.15 76.9 360.0 76.9 364.85 76.9 368.8 78.35" fill="#ffffff" fill-rule="evenodd" stroke="none"/>
    <path d="M469.9 89.95 L468.5 89.65 465.4 89.4 Q461.15 89.4 458.75 92.2 456.4 95.0 456.4 99.85 456.4 104.3 458.45 106.55 460.5 108.9 464.05 108.9 L467.85 108.35 Q469.7 107.8 470.95 106.85 L470.95 90.4 469.9 89.95 M396.8 106.75 L397.35 104.3 405.6 77.95 418.75 77.95 426.15 104.3 426.35 105.3 426.8 109.75 427.1 109.75 427.85 104.3 433.45 77.95 447.75 77.95 445.6 85.5 447.75 83.2 Q451.15 80.1 455.7 78.5 460.25 76.9 465.2 76.9 471.05 76.9 476.35 77.95 481.65 79.0 485.9 80.65 L485.9 121.0 471.9 121.0 471.05 115.6 470.85 115.6 468.6 117.95 Q467.55 118.95 465.7 120.0 L462.15 121.4 457.9 121.95 Q453.45 121.95 450.15 120.45 446.9 118.95 444.7 116.25 442.5 113.6 441.45 109.95 440.55 107.0 440.4 103.8 L435.55 121.0 419.4 121.0 412.5 98.55 Q412.1 97.35 411.85 95.3 L411.55 91.7 411.25 91.7 410.8 95.35 410.05 98.45 402.75 121.0 387.35 121.0 375.45 77.95 390.55 77.95 396.2 109.65 396.5 109.65 396.8 106.75 M546.85 80.0 L546.85 90.45 539.7 89.15 537.35 89.0 533.75 89.45 Q532.3 89.9 532.3 91.25 532.3 91.9 532.8 92.35 L534.3 93.2 536.8 94.1 540.35 95.25 Q544.85 96.75 547.0 99.85 549.05 102.95 549.05 107.35 549.05 110.8 547.95 113.45 546.85 116.15 544.65 118.0 542.55 119.9 539.1 120.95 535.65 121.95 531.3 121.95 L523.75 121.2 Q519.95 120.45 517.2 119.15 L517.2 107.7 Q518.45 108.4 520.1 109.1 L523.25 110.2 526.4 110.95 529.3 111.2 Q532.1 111.2 533.35 110.6 534.7 109.95 534.7 108.55 L534.4 107.45 533.35 106.5 531.2 105.55 527.75 104.3 Q522.05 102.35 519.5 99.2 517.25 96.25 517.05 92.3 L515.6 92.05 512.2 91.8 Q509.7 91.8 508.15 92.6 506.65 93.3 505.75 94.85 504.85 96.35 504.55 98.4 504.2 100.35 504.2 103.05 L504.2 121.0 489.2 121.0 489.1 88.1 487.95 77.95 501.85 77.95 502.5 79.9 503.15 82.35 503.65 84.8 504.0 86.8 504.2 86.8 Q507.8 76.9 514.75 76.9 517.15 76.9 518.4 77.5 L518.4 85.5 Q519.75 83.1 522.15 81.45 524.7 79.7 528.05 78.8 531.75 77.85 535.8 77.85 L541.7 78.5 544.5 79.15 Q545.8 79.5 546.85 80.0" fill="#666666" fill-rule="evenodd" stroke="none"/>
    <path d="M124.5 90.1 L122.25 89.6 119.4 89.4 Q117.05 89.4 115.45 90.2 113.75 91.05 112.6 92.45 111.45 93.95 110.85 95.75 110.3 97.7 110.3 99.75 110.3 101.6 110.75 103.25 111.2 104.9 112.1 106.0 113.05 107.15 114.5 107.85 115.85 108.5 117.85 108.5 L121.6 107.95 Q123.05 107.45 124.5 106.5 L124.5 90.1 M130.1 77.9 Q135.4 78.85 139.75 80.75 L139.75 118.5 Q139.75 121.75 139.1 125.3 138.5 128.8 137.2 131.65 135.95 134.55 133.9 137.15 131.85 139.75 129.05 141.5 126.2 143.3 122.55 144.35 118.8 145.35 114.25 145.35 L105.5 144.7 Q101.45 144.0 98.85 142.95 L98.85 132.6 Q102.45 133.75 105.1 134.15 L110.4 134.6 Q113.9 134.6 116.65 133.6 119.3 132.55 121.0 130.75 122.75 129.1 123.6 126.55 124.5 124.15 124.5 121.35 L124.85 115.3 124.7 115.3 122.5 117.6 119.85 119.5 Q118.25 120.35 116.55 120.8 L112.6 121.25 Q108.45 121.25 105.2 119.8 101.95 118.4 99.45 115.7 97.1 113.1 95.7 109.35 94.35 105.7 94.35 101.1 94.35 95.3 96.4 90.65 98.4 86.15 101.85 83.1 105.25 80.1 109.75 78.5 114.3 76.9 119.2 76.9 L130.1 77.9 M298.1 89.8 L298.95 87.95 288.7 87.95 288.7 103.85 Q288.7 105.2 289.1 106.55 289.55 107.85 290.4 108.75 L292.55 110.25 Q293.9 110.8 295.6 110.8 L297.65 110.7 298.9 110.5 297.95 108.4 Q296.35 104.05 296.35 99.1 296.35 93.9 298.1 89.8 M323.25 90.0 Q321.65 88.25 318.9 88.25 317.65 88.25 316.45 88.8 315.35 89.35 314.4 90.3 313.6 91.2 312.95 92.45 312.45 93.55 312.3 94.95 L324.75 94.95 Q324.75 91.8 323.25 90.0 M195.5 89.65 L192.4 89.4 Q188.15 89.4 185.75 92.2 183.4 95.0 183.4 99.85 183.4 104.3 185.45 106.55 187.5 108.9 191.05 108.9 L194.85 108.35 Q196.7 107.8 197.95 106.85 L197.95 90.4 196.9 89.95 195.5 89.65 M469.9 89.95 L468.5 89.65 465.4 89.4 Q461.15 89.4 458.75 92.2 456.4 95.0 456.4 99.85 456.4 104.3 458.45 106.55 460.5 108.9 464.05 108.9 L467.85 108.35 Q469.7 107.8 470.95 106.85 L470.95 90.4 469.9 89.95 M364.25 90.0 Q362.65 88.25 359.9 88.25 358.65 88.25 357.45 88.8 356.35 89.35 355.4 90.3 354.6 91.2 353.95 92.45 353.45 93.55 353.3 94.95 L365.75 94.95 Q365.75 91.8 364.25 90.0 M368.8 78.35 Q372.8 79.9 375.3 82.5 376.45 83.6 377.4 85.0 L375.45 77.95 390.55 77.95 395.95 106.8 396.2 109.65 396.5 109.65 396.8 106.75 397.35 104.3 405.6 77.95 418.75 77.95 426.15 104.3 426.35 105.3 426.8 109.75 427.1 109.75 427.4 107.1 433.45 77.95 447.75 77.95 445.6 85.5 447.75 83.2 Q451.15 80.1 455.7 78.5 460.25 76.9 465.2 76.9 471.05 76.9 476.35 77.95 481.65 79.0 485.9 80.65 L485.9 121.0 471.9 121.0 471.05 115.6 470.85 115.6 468.6 117.95 Q467.55 118.95 465.7 120.0 L462.15 121.4 457.9 121.95 Q453.45 121.95 450.15 120.45 446.9 118.95 444.7 116.25 442.5 113.6 441.45 109.95 440.55 107.0 440.4 103.8 L435.55 121.0 419.4 121.0 412.5 98.55 Q412.1 97.35 411.85 95.3 L411.55 91.7 411.25 91.7 410.8 95.35 410.05 98.45 402.75 121.0 387.35 121.0 380.8 97.3 380.65 100.3 380.25 103.0 353.2 103.0 Q353.35 104.95 354.15 106.75 354.95 108.4 356.35 109.4 357.8 110.4 360.1 110.95 L365.55 111.45 369.35 111.3 376.15 110.1 378.9 109.35 378.9 118.3 Q377.7 119.05 375.85 119.65 L371.75 120.8 366.85 121.65 361.55 121.95 Q355.7 121.95 351.25 120.25 346.8 118.6 343.7 115.6 340.65 112.7 338.95 108.4 338.0 105.85 337.6 103.0 L312.2 103.0 Q312.35 104.95 313.15 106.75 313.95 108.4 315.35 109.4 316.8 110.4 319.1 110.95 L324.55 111.45 328.35 111.3 335.15 110.1 337.9 109.35 337.9 118.3 Q336.7 119.05 334.85 119.65 L330.75 120.8 325.85 121.65 320.55 121.95 Q314.7 121.95 310.25 120.25 305.8 118.6 302.7 115.6 301.2 114.25 299.9 112.2 L299.9 120.45 295.4 121.55 292.55 121.85 289.55 121.95 Q281.65 121.95 277.7 118.0 273.7 114.15 273.7 105.9 L273.7 87.95 268.2 87.95 268.2 121.0 253.2 121.0 253.2 87.95 240.75 121.0 223.85 121.0 212.9 89.35 212.9 121.0 198.9 121.0 198.05 115.6 197.85 115.6 195.6 117.95 Q194.55 118.95 192.7 120.0 L189.15 121.4 184.9 121.95 Q180.45 121.95 177.15 120.45 173.9 118.95 171.7 116.25 169.5 113.6 168.45 109.95 167.35 106.35 167.35 101.95 167.35 96.4 168.9 92.1 L168.6 92.05 165.2 91.8 Q162.7 91.8 161.15 92.6 159.65 93.3 158.75 94.85 157.85 96.35 157.55 98.4 157.2 100.35 157.2 103.05 L157.2 121.0 142.2 121.0 142.1 88.1 140.95 77.95 154.85 77.95 155.5 79.9 156.15 82.35 156.65 84.8 157.0 86.8 157.2 86.8 Q160.8 76.9 167.75 76.9 170.15 76.9 171.4 77.5 L171.4 87.15 Q172.9 84.9 174.75 83.2 178.15 80.1 182.7 78.5 187.25 76.9 192.2 76.9 198.05 76.9 203.35 77.95 L209.5 79.5 209.0 77.95 224.8 77.95 231.05 100.55 Q232.55 105.5 232.7 109.1 L232.9 109.1 Q233.1 107.05 233.45 105.35 L234.6 100.85 241.5 77.95 273.7 77.95 276.9 64.6 288.7 64.6 288.7 77.95 299.9 77.95 299.9 86.35 Q301.1 84.55 302.9 82.8 306.0 79.95 310.1 78.45 314.15 76.9 319.0 76.9 323.85 76.9 327.8 78.35 331.8 79.9 334.3 82.5 336.9 85.05 338.4 88.95 L338.85 90.35 339.1 89.8 Q340.8 85.75 343.9 82.8 347.0 79.95 351.1 78.45 355.15 76.9 360.0 76.9 364.85 76.9 368.8 78.35 M546.85 80.0 L546.85 90.45 539.7 89.15 537.35 89.0 533.75 89.45 Q532.3 89.9 532.3 91.25 532.3 91.9 532.8 92.35 L534.3 93.2 536.8 94.1 540.35 95.25 Q544.85 96.75 547.0 99.85 549.05 102.95 549.05 107.35 549.05 110.8 547.95 113.45 546.85 116.15 544.65 118.0 542.55 119.9 539.1 120.95 535.65 121.95 531.3 121.95 L523.75 121.2 Q519.95 120.45 517.2 119.15 L517.2 107.7 Q518.45 108.4 520.1 109.1 L523.25 110.2 526.4 110.95 529.3 111.2 Q532.1 111.2 533.35 110.6 534.7 109.95 534.7 108.55 L534.4 107.45 533.35 106.5 531.2 105.55 527.75 104.3 Q522.05 102.35 519.5 99.2 517.25 96.25 517.05 92.3 L515.6 92.05 512.2 91.8 Q509.7 91.8 508.15 92.6 506.65 93.3 505.75 94.85 504.85 96.35 504.55 98.4 504.2 100.35 504.2 103.05 L504.2 121.0 489.2 121.0 489.1 88.1 487.95 77.95 501.85 77.95 502.5 79.9 503.15 82.35 503.65 84.8 504.0 86.8 504.2 86.8 Q507.8 76.9 514.75 76.9 517.15 76.9 518.4 77.5 L518.4 85.5 Q519.75 83.1 522.15 81.45 524.7 79.7 528.05 78.8 531.75 77.85 535.8 77.85 L541.7 78.5 544.5 79.15 Q545.8 79.5 546.85 80.0" fill="url(#gradient2)" fill-rule="evenodd" stroke="none"/>
    <path d="M271.4 62.5 Q271.8 67.1 268.95 70.6 266.05 74.15 261.5 74.6 259.0 74.85 256.65 74.0 254.35 73.15 252.65 71.45 246.75 65.6 237.55 63.05 224.0 59.25 204.9 63.15 198.1 64.45 199.85 61.85 200.75 60.55 202.95 59.1 220.0 48.3 240.75 48.4 256.25 48.5 264.3 53.15 267.2 54.3 269.15 56.75 271.1 59.3 271.4 62.5 M254.65 57.65 Q252.0 60.25 252.0 64.0 252.0 67.7 254.65 70.35 257.25 73.0 261.0 73.0 264.7 73.0 267.35 70.35 270.0 67.7 270.0 64.0 270.0 60.25 267.35 57.65 264.7 55.0 261.0 55.0 257.25 55.0 254.65 57.65" fill="#ffffff" fill-rule="evenodd" stroke="none"/>
  </g>
  <defs>
    <linearGradient gradientTransform="matrix(0.0, 0.0854, -0.0854, 0.0, 372.45, 103.0)" gradientUnits="userSpaceOnUse" id="gradient0" spreadMethod="pad" x1="-819.2" x2="819.2">
      <stop offset="0.0" stop-color="#1f1f1f"/>
      <stop offset="0.9882352941176471" stop-color="#000000"/>
    </linearGradient>
    <linearGradient gradientTransform="matrix(0.0, 0.0183, -0.0183, 0.0, 454.0, 141.0)" gradientUnits="userSpaceOnUse" id="gradient1" spreadMethod="pad" x1="-819.2" x2="819.2">
      <stop offset="0.0" stop-color="#000000" stop-opacity="0.0"/>
      <stop offset="0.9882352941176471" stop-color="#000000" stop-opacity="0.29803923"/>
    </linearGradient>
    <linearGradient gradientTransform="matrix(0.0, 0.0366, -0.0366, 0.0, 262.0, 101.0)" gradientUnits="userSpaceOnUse" id="gradient2" spreadMethod="pad" x1="-819.2" x2="819.2">
      <stop offset="0.0" stop-color="#000000" stop-opacity="0.0"/>
      <stop offset="0.9921568627450981" stop-color="#000000" stop-opacity="0.29803923"/>
    </linearGradient>
  </defs>
</svg>
