<?xml version="1.0" encoding="UTF-8" standalone="no"?>
<svg xmlns:xlink="http://www.w3.org/1999/xlink" height="10.45px" width="7.7px" xmlns="http://www.w3.org/2000/svg">
  <g transform="matrix(1, 0, 0, 1, -4.8, 20.45)">
    <path d="M8.85 -18.0 L9.65 -19.6 Q9.95 -20.2 10.55 -20.35 L11.7 -20.25 12.1 -20.0 12.45 -19.4 Q12.6 -18.85 12.35 -18.25 L12.2 -18.0 8.85 -18.0 M11.7 -17.0 L8.75 -11.15 5.4 -11.15 8.35 -17.0 11.7 -17.0 M8.25 -10.15 L8.2 -10.0 4.8 -10.0 4.9 -10.15 8.25 -10.15" fill="#eeeeee" fill-rule="evenodd" stroke="none"/>
    <path d="M12.2 -18.0 L11.7 -17.0 8.35 -17.0 8.85 -18.0 12.2 -18.0 M8.75 -11.15 L8.25 -10.15 4.9 -10.15 5.4 -11.15 8.75 -11.15" fill="#6e6e6e" fill-rule="evenodd" stroke="none"/>
  </g>
</svg>
