<?xml version="1.0" encoding="UTF-8" standalone="no"?>
<svg xmlns:xlink="http://www.w3.org/1999/xlink" height="100.0px" width="100.0px" xmlns="http://www.w3.org/2000/svg">
  <g transform="matrix(1, 0, 0, 1, 50.0, 50.0)">
    <path d="M49.85 -0.05 Q49.85 20.65 35.25 35.25 20.65 49.85 -0.05 49.85 -20.7 49.85 -35.3 35.25 -49.9 20.65 -49.9 -0.05 -49.9 -20.7 -35.3 -35.3 -20.7 -49.9 -0.05 -49.9 20.65 -49.9 35.25 -35.3 49.85 -20.7 49.85 -0.05" fill="url(#gradient0)" fill-rule="evenodd" stroke="none"/>
    <path d="M49.75 -0.05 Q49.7 -20.65 35.15 -35.2 20.6 -49.75 -0.05 -49.75 -20.65 -49.75 -35.2 -35.2 -49.75 -20.65 -49.75 -0.05 -49.75 20.6 -35.2 35.15 -20.65 49.7 -0.05 49.75 20.6 49.7 35.15 35.15 49.7 20.6 49.75 -0.05 M35.35 -35.4 Q49.95 -20.75 50.0 -0.05 49.95 20.7 35.35 35.35 20.7 49.95 -0.05 50.0 -20.75 49.95 -35.4 35.35 -50.05 20.7 -50.0 -0.05 -50.05 -20.75 -35.4 -35.4 -20.75 -50.05 -0.05 -50.0 20.7 -50.05 35.35 -35.4" fill="#9b79ff" fill-rule="evenodd" stroke="none"/>
  </g>
  <defs>
    <radialGradient cx="0" cy="0" gradientTransform="matrix(0.0624, 0.0, 0.0, 0.0624, -0.05, -0.05)" gradientUnits="userSpaceOnUse" id="gradient0" r="819.2" spreadMethod="pad">
      <stop offset="0.8784313725490196" stop-color="#6432aa" stop-opacity="0.0"/>
      <stop offset="1.0" stop-color="#4268ff"/>
    </radialGradient>
  </defs>
</svg>
