<?xml version="1.0" encoding="UTF-8" standalone="no"?>
<svg xmlns:xlink="http://www.w3.org/1999/xlink" height="242.75px" width="176.0px" xmlns="http://www.w3.org/2000/svg">
  <g transform="matrix(1, 0, 0, 1, 0.0, 0.0)">
    <path d="M45.95 25.25 L50.5 24.15 61.8 23.4 Q79.5 24.4 89.95 38.5 106.8 60.9 118.35 82.2 L146.7 107.75 Q161.1 122.4 167.3 138.65 174.1 156.3 170.7 176.15 168.25 190.3 160.85 202.2 154.05 212.8 146.7 216.7 60.0 262.6 23.05 212.65 18.7 206.8 15.65 201.5 1.3 176.55 4.95 150.9 6.75 138.1 16.7 118.95 20.05 112.55 21.3 108.9 L22.1 106.0 Q24.05 95.7 22.05 67.95 20.05 41.95 32.75 30.95 39.1 25.55 45.95 25.25" fill="#ed3392" fill-rule="evenodd" stroke="none"/>
    <path d="M90.3 38.55 Q107.15 60.9 118.65 82.25 L119.85 83.35 119.6 83.15 108.7 84.8 103.3 85.9 Q96.15 87.6 92.45 88.75 100.75 84.8 100.0 78.0 81.75 37.25 49.5 27.8 50.55 26.55 50.45 25.1 L50.35 24.3 50.8 24.2 59.55 23.35 62.1 23.45 Q79.85 24.45 90.3 38.55 M154.3 122.7 Q160.4 131.25 163.7 140.0 168.05 151.1 168.05 163.2 168.05 168.85 166.95 175.5 164.65 188.9 157.6 200.15 L157.6 200.1 Q154.55 204.95 151.25 208.4 147.95 211.7 145.0 213.2 134.55 218.75 124.9 222.8 149.9 172.35 114.15 110.65 108.0 102.45 95.6 101.15 L98.25 100.85 104.85 100.6 109.5 100.7 Q133.95 102.45 154.3 122.7" fill="#d72684" fill-rule="evenodd" stroke="none"/>
    <path d="M142.5 107.75 Q142.5 109.4 143.65 110.5 149.55 116.55 153.95 122.65 133.6 102.45 109.2 100.7 L104.55 100.55 97.9 100.85 95.3 101.1 Q78.85 102.9 61.45 107.25 L46.05 111.55 Q66.45 96.2 92.1 88.7 95.8 87.55 103.0 85.85 L108.35 84.8 119.3 83.1 119.55 83.3 143.65 105.0 Q142.5 106.15 142.5 107.75" fill="#d72684" fill-rule="evenodd" stroke="none"/>
    <path d="M86.6 40.95 L86.6 40.85 Q81.9 34.5 75.75 31.2 69.75 28.0 61.6 27.45 L59.25 27.4 51.55 28.05 47.0 29.15 Q45.3 29.55 43.9 28.7 42.4 27.85 41.9 26.25 41.55 24.6 42.4 23.2 43.25 21.8 44.95 21.4 L49.75 20.25 59.25 19.45 62.1 19.5 Q71.7 20.0 79.7 24.25 87.7 28.45 93.4 36.2 109.8 57.85 121.8 79.8 L149.55 104.8 Q150.8 105.9 150.85 107.55 150.85 109.25 149.75 110.45 148.6 111.7 146.85 111.75 145.15 111.8 143.85 110.65 L115.5 85.2 114.6 84.05 Q103.15 62.8 86.6 40.95" fill="#000000" fill-rule="evenodd" stroke="none"/>
    <path d="M166.65 175.45 Q167.7 168.8 167.7 163.15 167.7 151.1 163.4 139.95 157.65 124.75 143.65 110.5 142.5 109.3 142.5 107.65 142.6 105.95 143.8 104.8 145.1 103.7 146.75 103.7 148.55 103.8 149.75 104.95 164.9 120.5 171.2 137.2 176.0 149.55 176.0 163.15 176.0 169.9 174.8 176.85 172.3 191.8 164.4 204.3 L164.35 204.3 Q160.8 210.0 156.95 213.9 153.15 217.85 148.65 220.25 127.65 231.4 109.5 237.0 90.9 242.75 75.35 242.75 57.9 242.75 43.9 235.8 30.0 228.9 19.7 215.05 10.0 201.95 5.0 188.5 0.0 174.95 0.0 161.2 0.0 155.8 0.85 150.35 1.85 143.45 4.9 135.2 7.95 126.85 13.0 117.15 L15.85 111.3 17.6 107.05 18.0 105.35 Q18.5 103.2 18.7 99.6 L18.95 91.75 Q18.95 83.15 17.85 68.2 17.6 65.0 17.6 61.2 17.6 50.05 20.65 41.85 23.8 33.3 30.05 28.0 33.65 24.9 37.55 23.15 41.85 21.4 45.85 21.3 47.6 21.25 48.8 22.35 50.1 23.4 50.15 25.1 50.2 26.8 49.05 28.0 47.85 29.2 46.15 29.25 43.6 29.35 41.0 30.5 38.3 31.65 35.5 34.0 30.95 37.95 28.45 44.55 25.9 51.7 25.9 61.2 L26.15 67.6 Q27.25 81.45 27.25 91.75 L26.95 100.15 26.2 106.75 26.2 106.7 25.5 109.5 24.3 112.7 20.4 120.8 Q15.4 130.55 12.7 137.9 10.0 145.3 9.1 151.4 8.35 156.6 8.35 161.2 8.35 173.6 12.8 185.8 17.5 198.25 26.45 210.35 35.35 222.5 47.65 228.65 59.85 234.65 75.35 234.65 89.7 234.65 106.95 229.3 124.4 223.95 144.65 213.15 147.65 211.65 150.95 208.35 154.25 204.9 157.25 200.05 L157.25 200.15 Q164.35 188.9 166.65 175.45" fill="#000000" fill-rule="evenodd" stroke="none"/>
    <path d="M46.05 23.15 Q41.85 6.65 34.5 4.6 L48.45 0.5 Q45.1 3.35 49.5 21.4 L50.1 21.4 Q52.25 21.4 53.7 22.85 55.25 24.15 55.25 26.4 55.25 28.55 53.7 29.9 52.25 31.35 50.1 31.35 47.85 31.35 46.4 29.9 44.9 28.45 44.9 26.4 44.9 24.6 46.05 23.15" fill="#000000" fill-rule="evenodd" stroke="none"/>
    <path d="M48.95 0.25 Q49.15 0.55 48.8 0.9 48.25 1.35 47.95 2.6 47.5 3.8 47.5 5.85 47.5 11.3 50.0 21.3 50.15 21.8 49.6 21.9 49.15 22.05 49.0 21.5 46.5 11.5 46.5 5.85 46.5 3.75 46.9 2.3 L47.25 1.45 36.1 4.65 Q39.15 6.15 41.55 10.0 44.4 14.7 46.55 23.0 46.7 23.55 46.15 23.7 45.7 23.7 45.55 23.3 43.4 15.0 40.65 10.55 37.9 6.1 34.4 5.1 34.05 5.1 34.05 4.6 34.05 4.3 34.4 4.15 L48.35 0.05 Q48.7 -0.05 48.95 0.25" fill="#000000" fill-rule="evenodd" stroke="none"/>
    <path d="M41.2 126.35 L40.15 126.45 Q32.25 126.9 26.7 138.45 21.35 149.75 21.35 165.45 21.35 181.1 31.8 190.9 L31.9 191.0 Q40.75 199.25 52.65 199.25 L52.7 199.25 56.8 199.05 Q71.45 197.3 73.55 189.0 73.95 187.55 73.95 185.75 73.95 177.25 65.7 161.35 55.55 141.75 51.95 134.0 L51.95 133.9 Q48.55 126.35 41.2 126.35 M39.45 117.35 L40.65 117.25 Q49.8 117.25 54.2 126.7 59.1 137.4 71.35 160.95 83.9 185.2 81.2 195.55 78.4 206.1 60.25 208.1 L55.2 208.35 Q40.15 208.35 29.0 197.9 15.85 185.6 15.85 166.05 15.85 146.7 22.6 132.3 29.4 118.0 39.45 117.35 M48.05 38.55 L51.65 38.4 Q56.75 38.4 58.3 40.55 60.0 42.7 57.75 48.65 56.4 52.4 52.3 61.15 48.7 69.75 48.05 76.05 46.7 87.5 41.65 87.5 L40.25 87.3 Q38.15 86.7 35.95 84.7 L34.05 82.9 34.0 82.8 Q32.5 78.9 31.8 63.25 31.1 47.1 39.5 41.3 43.25 38.55 47.4 38.55 L48.05 38.55 M45.25 44.95 L44.75 44.95 Q43.05 44.95 41.2 46.95 L41.1 47.0 Q37.6 51.1 37.6 61.4 L37.65 63.15 Q38.0 75.35 38.45 77.5 L39.55 79.05 Q40.7 80.55 41.55 80.9 L41.55 80.95 42.2 81.1 Q44.5 81.1 45.1 72.8 L45.1 72.6 Q45.35 68.0 47.05 61.6 L49.55 52.4 Q50.1 49.7 50.1 48.25 50.1 47.0 49.8 46.4 L49.75 46.4 Q49.05 44.85 46.8 44.85 L46.7 44.85 45.25 44.95" fill="#ef579e" fill-rule="evenodd" stroke="none"/>
    <path d="M41.5 126.4 Q48.85 126.4 52.3 133.95 L52.3 134.0 Q55.85 141.75 66.05 161.35 74.25 177.25 74.25 185.75 74.25 187.55 73.85 189.05 71.75 197.35 57.15 199.1 L53.0 199.3 52.95 199.3 Q41.1 199.3 32.2 191.0 L32.15 190.95 Q21.7 181.1 21.7 165.45 21.7 149.75 27.0 138.45 32.55 126.95 40.5 126.45 L41.5 126.4 M41.45 47.0 L41.5 46.95 Q43.4 45.0 45.05 45.0 L45.55 45.0 47.05 44.85 47.1 44.85 Q49.4 44.85 50.05 46.4 L50.1 46.4 Q50.4 47.0 50.4 48.3 50.4 49.7 49.85 52.4 L47.35 61.65 Q45.7 68.05 45.4 72.65 L45.4 72.85 Q44.8 81.1 42.5 81.1 L41.85 81.0 41.85 80.9 Q41.05 80.6 39.9 79.1 L39.0 77.75 38.85 78.2 38.75 77.75 38.75 77.55 Q38.35 75.4 38.0 63.2 L37.95 61.45 Q37.95 51.15 41.45 47.0" fill="#f178ae" fill-rule="evenodd" stroke="none"/>
    <path d="M127.15 154.0 L128.75 152.95 130.0 152.5 130.15 152.5 Q131.0 152.05 132.05 152.05 L133.75 152.05 135.4 152.35 136.4 152.8 Q137.05 153.05 137.4 153.4 L137.45 153.2 138.25 152.1 138.35 151.95 138.55 151.7 139.35 150.9 Q140.25 150.0 141.3 149.6 L141.7 149.4 Q142.9 148.85 144.0 148.85 L144.75 148.85 Q145.95 148.85 147.05 149.4 L147.3 149.5 Q148.25 149.8 148.85 150.35 L150.15 151.5 Q151.1 152.35 151.4 153.75 L151.5 154.0 151.75 155.4 151.75 156.5 151.6 157.95 151.35 158.7 151.15 159.05 150.8 161.2 150.75 161.35 151.3 177.1 150.75 187.4 150.45 188.6 149.95 190.05 149.8 190.55 Q149.4 191.7 148.3 192.6 L148.05 192.8 146.85 193.75 146.05 194.15 144.15 194.55 143.0 194.55 Q141.25 194.55 139.8 193.45 L138.4 192.2 135.15 195.0 135.0 195.1 136.25 195.65 Q136.95 195.9 138.25 196.7 L142.3 199.25 142.5 199.25 143.2 199.55 Q144.05 199.55 145.0 200.0 L145.9 200.5 Q146.5 200.8 147.05 201.45 L147.45 201.9 Q148.1 202.55 148.6 203.7 L149.05 205.95 148.8 207.6 148.55 208.35 147.75 209.45 146.7 210.5 146.55 210.65 Q146.45 210.75 146.3 210.8 L145.0 211.6 Q144.0 212.2 142.65 212.2 L141.7 212.2 140.05 211.95 139.7 211.85 138.25 211.4 138.1 211.25 136.3 210.35 136.2 210.2 135.25 209.85 135.05 209.7 133.35 208.9 133.15 208.8 131.0 207.6 130.95 207.55 130.4 207.35 127.8 206.1 127.8 206.75 127.65 208.0 126.95 209.45 126.0 210.45 125.0 211.25 124.8 211.45 124.05 212.0 Q123.2 212.6 122.25 212.8 L121.9 212.95 Q120.55 213.35 119.1 212.95 L119.0 213.0 118.85 213.2 117.65 214.7 Q116.35 215.85 114.7 215.85 L113.5 215.7 Q111.1 216.35 109.45 214.75 L108.35 213.9 Q107.55 212.95 107.3 212.15 L107.15 211.75 106.95 211.45 106.35 210.35 105.8 208.85 105.65 208.65 105.3 207.95 105.25 207.75 Q104.85 207.1 104.8 206.45 L104.6 205.85 104.6 205.6 104.3 205.0 104.25 204.6 104.2 204.45 104.2 204.55 104.05 204.6 104.05 205.25 103.85 206.45 103.65 207.0 103.05 208.55 101.7 210.25 101.5 210.45 101.35 210.65 100.3 211.65 99.85 211.95 99.75 212.0 98.3 212.75 96.35 213.15 95.95 213.15 Q95.05 213.15 94.2 212.75 L93.55 212.5 93.0 212.15 91.95 211.35 91.8 211.2 91.6 211.05 90.15 211.2 88.55 211.2 88.0 211.35 86.85 211.4 85.6 211.55 85.3 211.6 84.45 211.65 83.7 211.85 83.05 212.25 81.8 212.65 81.25 212.9 81.0 212.95 79.05 213.35 78.5 213.35 76.75 213.1 76.3 212.95 74.75 212.05 74.7 212.0 74.05 211.55 73.05 210.35 72.65 209.55 72.25 208.45 72.1 208.15 71.85 207.3 Q71.7 206.8 71.7 205.95 L71.7 199.4 71.5 198.45 71.5 198.35 71.35 197.2 71.35 196.25 71.15 196.45 70.3 197.1 69.95 197.3 68.8 198.45 66.8 199.95 Q65.85 200.9 64.55 201.2 L64.55 201.3 63.95 201.6 63.1 202.3 63.15 203.45 63.35 203.9 63.5 204.65 63.65 205.05 63.75 207.4 Q63.75 208.95 62.6 210.25 L61.6 211.25 59.65 212.8 Q58.35 213.6 57.1 213.6 L55.65 213.6 Q54.3 213.6 53.2 212.8 L52.85 212.55 Q51.95 212.0 51.4 211.25 50.75 210.45 50.55 209.55 L50.25 208.9 49.8 206.55 49.8 206.2 49.75 206.2 49.2 205.95 49.0 205.85 47.6 204.85 47.05 204.2 46.4 203.15 Q45.7 202.3 45.7 201.0 L45.7 199.2 45.9 197.9 46.05 197.6 Q46.25 196.5 47.0 195.7 L47.4 195.25 Q48.0 194.65 48.55 194.35 L49.5 193.85 49.5 193.7 49.35 193.0 49.05 189.5 49.05 189.35 48.95 189.3 48.05 188.6 46.9 187.4 Q46.05 186.65 45.85 185.5 L45.7 184.85 45.65 184.7 Q45.35 183.95 45.35 183.1 L45.35 182.7 Q45.35 181.8 45.85 180.75 L46.7 179.45 46.7 179.4 Q47.65 177.5 49.8 177.1 L50.35 177.05 Q50.9 176.7 51.75 176.4 51.5 175.8 51.5 175.0 L51.5 166.85 51.05 166.85 48.55 166.4 48.1 166.1 48.05 166.05 Q46.9 165.7 45.95 164.45 L45.5 163.65 Q44.95 162.9 44.85 161.8 L44.75 161.55 44.55 160.3 44.55 158.85 Q44.55 157.55 45.45 156.35 L46.85 154.8 Q47.7 154.1 48.8 153.85 L49.35 153.65 50.75 153.4 51.55 153.4 52.45 143.6 52.7 142.45 53.25 141.2 54.6 138.9 55.25 138.05 55.35 137.9 55.95 137.15 58.05 135.2 Q58.85 134.45 59.9 134.25 L60.8 134.05 62.55 133.8 66.1 133.8 68.0 134.2 69.4 135.0 71.25 136.4 71.75 137.0 Q72.65 137.95 73.0 138.95 L73.8 140.5 74.35 142.0 74.55 143.15 74.55 144.0 Q74.55 145.55 73.65 146.8 L73.45 147.05 72.45 148.15 72.2 148.35 Q70.9 149.35 69.15 149.35 L68.4 149.35 Q67.05 149.35 66.1 148.65 L65.45 148.25 64.95 147.85 64.75 147.8 64.35 149.75 64.25 152.9 64.85 152.9 66.4 153.2 66.65 152.95 67.65 152.35 Q68.6 151.75 69.9 151.75 L71.25 151.75 Q73.1 151.75 74.25 153.05 L75.1 153.85 75.3 153.5 75.9 152.85 77.1 151.75 Q77.65 151.35 78.55 151.05 L79.25 150.75 Q80.1 150.3 81.4 150.3 L82.7 150.3 84.65 150.7 85.5 151.1 87.0 152.05 88.6 151.1 Q89.55 150.5 90.8 150.5 L92.0 150.5 93.8 150.9 96.05 151.95 Q97.05 151.5 98.2 151.5 L98.45 151.5 Q99.85 151.5 101.15 152.25 L101.3 152.3 104.55 155.35 105.3 156.55 106.0 157.95 105.8 148.05 105.4 146.85 105.25 146.45 105.0 145.15 105.0 144.3 105.15 143.4 105.55 142.05 106.0 141.2 106.4 140.65 107.0 140.05 107.95 139.15 Q109.35 138.2 110.5 138.15 L111.4 137.95 112.9 137.8 114.45 138.05 116.1 138.7 117.2 139.3 Q119.3 140.35 119.3 142.8 L119.3 144.3 119.1 145.45 118.6 147.0 118.35 152.8 118.75 152.6 120.55 152.2 122.55 152.2 Q123.45 152.2 124.55 152.65 L125.2 153.05 Q125.65 153.25 126.15 153.75 L126.8 154.35 127.15 154.0 M126.1 163.3 L125.95 163.5 124.65 164.65 125.8 165.1 126.2 165.4 126.55 165.5 126.25 163.9 126.1 163.3 M102.7 184.7 L102.65 184.85 103.0 184.8 102.9 183.6 102.7 184.7 M64.5 164.9 L64.1 164.95 64.1 165.7 64.4 167.8 65.1 169.3 64.65 166.5 64.55 165.25 64.5 164.9 M66.85 176.5 L66.4 175.45 66.25 175.0 65.85 176.4 66.45 176.5 66.85 176.5" fill="#000000" fill-rule="evenodd" stroke="none"/>
    <path d="M131.2 155.25 L132.95 155.25 133.9 155.65 134.3 156.15 134.9 157.4 135.05 157.9 135.05 158.9 134.65 160.4 134.65 162.4 135.05 165.1 135.25 165.5 135.35 166.4 136.2 169.15 136.45 169.55 136.95 169.15 137.05 169.1 137.6 167.95 137.9 167.6 138.95 165.45 139.9 163.0 139.9 162.75 140.2 161.8 140.35 160.25 140.25 158.9 140.35 158.05 140.1 156.9 140.2 154.6 140.45 154.0 141.6 152.7 Q141.9 152.5 142.15 152.5 L142.2 152.45 142.75 152.15 143.15 152.05 143.95 152.05 144.35 152.15 144.95 152.45 145.25 152.5 146.3 153.5 146.5 153.9 146.8 154.95 146.8 155.65 146.7 156.15 146.25 157.15 145.95 159.2 145.8 159.9 146.25 176.05 145.8 186.35 145.55 186.65 145.5 187.15 145.3 187.5 144.9 188.55 144.1 189.3 143.3 189.7 142.15 189.7 Q141.85 189.7 141.65 189.5 L141.2 189.25 140.8 188.75 140.6 188.2 140.6 187.25 141.9 182.15 141.9 174.35 141.65 173.2 141.65 169.3 141.45 169.55 140.6 171.4 140.1 171.9 136.9 174.95 136.2 175.25 134.85 175.55 134.45 175.55 133.05 174.75 132.65 174.35 132.4 173.55 131.9 172.8 131.35 169.15 130.6 166.55 130.25 166.0 129.55 162.2 129.05 160.6 128.45 159.5 128.45 156.75 129.15 156.15 131.2 155.25 M123.05 156.4 L123.05 158.45 122.75 159.05 121.85 160.1 119.1 162.4 118.2 163.5 116.65 164.65 116.4 165.0 116.45 165.05 117.25 165.35 117.75 165.6 118.4 166.0 118.7 166.0 Q118.95 166.25 119.3 166.3 L122.8 167.65 123.45 168.05 126.65 169.4 127.75 169.75 128.05 170.0 128.3 170.45 128.3 171.8 128.0 172.5 127.65 172.8 127.05 172.95 126.9 173.0 126.35 173.1 125.5 173.1 121.35 172.2 119.5 171.1 118.75 170.95 114.85 169.55 114.3 169.15 114.3 171.4 114.65 172.05 114.8 172.45 114.8 173.35 114.45 173.95 113.35 174.95 113.0 175.35 112.3 175.7 110.75 175.7 110.05 175.15 109.8 175.15 109.3 174.35 109.1 173.25 109.1 172.2 109.3 171.55 109.65 164.1 109.3 161.8 109.1 145.9 109.0 145.75 108.7 145.35 108.6 145.05 108.35 144.3 108.3 143.9 108.3 143.4 108.6 142.65 108.9 142.15 109.5 141.6 Q110.0 141.3 110.25 141.3 L111.35 141.05 112.2 141.0 113.15 141.3 114.3 141.95 114.3 143.4 113.6 145.5 113.45 147.1 113.15 153.7 113.6 161.95 117.55 158.05 118.9 155.65 119.65 155.4 121.7 155.4 122.4 155.65 123.05 156.4 M136.55 169.6 L136.55 169.75 136.65 169.6 136.55 169.6 M130.25 184.1 L127.75 183.35 126.9 183.25 122.45 183.25 122.1 183.3 121.85 183.55 121.65 184.45 121.5 185.65 121.65 190.6 121.85 191.25 121.9 191.3 122.3 191.3 122.6 191.25 124.3 190.25 126.15 189.4 127.45 188.65 127.75 188.55 128.3 188.3 129.8 187.0 130.0 186.65 130.75 185.65 130.8 185.4 130.8 184.5 130.75 184.4 130.25 184.1 M131.4 179.3 L131.9 179.4 132.95 179.6 133.8 180.15 135.35 180.95 136.05 181.6 136.35 181.95 136.8 183.0 136.8 185.3 136.55 185.8 136.45 186.2 135.75 187.4 132.9 190.05 130.45 191.85 129.8 192.1 125.5 194.55 125.45 194.6 125.85 195.0 127.75 195.85 128.9 196.5 133.8 198.55 135.35 199.25 140.05 202.25 141.65 202.65 142.15 202.65 142.95 203.2 143.45 203.7 143.75 204.2 144.0 205.05 143.9 205.65 143.55 206.2 143.3 206.55 142.8 206.9 141.85 207.35 140.9 207.35 139.6 207.0 138.3 206.5 137.6 206.0 137.05 205.75 136.9 205.6 136.25 205.4 135.6 205.0 135.0 204.7 134.55 204.6 133.95 204.2 133.5 204.05 132.15 203.2 131.9 203.05 131.2 202.85 127.65 201.1 126.3 200.6 125.95 200.4 125.6 200.4 125.15 200.1 123.85 199.65 123.45 199.6 122.5 199.0 122.25 199.05 122.3 199.05 122.3 201.55 122.8 204.5 122.8 205.95 122.65 206.35 122.3 206.75 122.0 206.9 Q122.0 206.75 121.85 207.0 L121.35 207.5 120.75 207.8 120.3 208.05 119.75 208.2 119.1 208.15 118.6 208.05 117.8 207.35 117.4 206.55 117.35 206.25 117.05 205.6 117.05 204.95 117.4 202.85 117.4 198.2 117.15 197.3 116.1 195.15 116.1 194.75 116.25 194.3 116.8 193.0 116.8 189.5 116.6 189.05 116.6 188.65 116.55 188.3 116.0 187.2 115.95 186.65 115.45 186.15 114.9 185.95 113.85 185.3 113.5 184.9 113.1 184.1 113.1 182.1 113.6 181.15 114.05 180.75 114.55 180.35 Q114.95 180.15 115.3 179.9 L115.65 179.9 117.2 179.65 118.15 179.4 118.55 179.3 119.2 179.15 120.5 178.9 120.9 178.9 121.2 178.85 Q121.35 178.7 122.05 178.6 L129.2 178.7 131.4 179.3 M49.95 156.6 L54.1 156.6 54.55 156.35 55.7 143.6 55.9 142.55 56.35 141.7 56.4 141.55 57.3 140.05 57.7 139.7 57.9 139.35 60.0 137.3 61.15 137.0 61.6 136.95 65.25 136.95 66.0 137.35 67.3 138.3 67.9 138.95 Q68.25 139.15 68.25 139.5 L69.25 141.55 69.5 142.35 69.55 142.75 69.55 143.2 69.35 143.7 69.1 144.1 68.7 144.35 68.25 144.5 67.55 144.5 66.25 143.55 64.1 141.6 63.45 141.3 61.9 141.3 60.9 142.4 60.45 143.4 59.4 148.4 59.1 155.8 59.35 156.1 64.0 156.1 65.0 156.7 65.3 157.0 65.75 157.75 65.75 159.05 64.9 159.85 59.1 160.6 59.1 165.25 59.85 168.95 60.9 170.95 61.05 171.5 61.2 172.2 61.2 173.8 61.0 174.25 60.65 174.55 60.25 174.75 60.2 174.8 59.5 175.15 59.1 175.25 57.5 175.55 55.9 175.55 55.0 174.75 55.0 174.5 54.8 174.15 54.8 161.45 53.75 161.45 51.3 162.0 49.95 162.0 49.5 161.9 48.95 161.45 48.6 161.45 48.15 160.6 48.15 160.25 47.85 159.45 47.85 158.05 48.6 157.0 49.1 156.8 49.95 156.6 M52.2 179.4 L62.95 179.4 65.75 179.75 66.2 179.75 67.15 179.9 67.55 179.9 68.55 180.45 68.9 180.45 70.4 181.15 71.05 181.7 71.7 182.4 71.7 182.55 72.35 183.1 72.35 183.9 72.1 184.9 72.1 185.45 71.85 186.15 71.6 187.35 71.45 187.7 70.3 189.3 70.15 189.7 69.65 190.25 69.55 190.45 68.0 192.1 66.95 193.05 66.2 193.65 64.25 195.2 64.05 195.3 63.05 196.2 62.5 196.5 61.6 196.9 61.2 197.15 60.95 197.3 59.85 198.1 59.6 198.2 59.1 198.4 58.55 198.7 58.25 198.85 57.95 199.4 58.2 203.4 58.5 204.2 58.55 204.8 58.7 205.35 58.7 206.6 57.85 207.55 56.25 208.7 54.8 208.7 54.25 208.35 53.85 207.95 53.45 207.0 53.4 206.65 53.4 206.5 53.2 206.15 53.15 205.65 53.15 203.55 53.4 203.1 53.4 202.35 53.2 201.85 53.2 201.4 53.15 201.55 52.55 201.55 51.9 201.7 51.5 201.85 51.05 201.85 49.95 201.4 49.35 200.8 48.95 200.15 48.95 198.4 49.1 198.0 49.3 197.8 49.3 197.5 49.7 197.05 50.45 196.65 51.25 196.65 52.3 197.25 52.55 197.25 52.8 197.0 52.55 189.4 52.3 188.3 52.3 187.7 52.1 187.2 52.0 186.45 52.0 186.4 51.75 186.0 51.65 185.85 50.2 185.0 49.0 183.85 48.65 182.3 48.65 181.8 49.7 180.25 51.1 179.9 51.75 179.5 52.2 179.4 M91.1 153.65 L93.0 154.55 93.6 155.45 93.6 155.85 93.35 156.8 93.1 158.85 93.2 158.7 93.4 158.35 94.1 157.65 95.15 156.15 95.75 155.65 95.9 155.45 96.7 154.85 97.25 154.65 97.6 154.65 98.0 154.8 98.35 155.0 100.35 156.9 100.7 157.35 102.15 160.8 102.15 161.05 102.7 162.8 103.4 166.45 103.6 166.9 103.65 167.45 104.0 168.2 104.0 168.55 104.25 169.95 104.25 170.1 104.6 170.85 105.25 171.7 105.75 172.6 105.75 173.45 105.6 173.95 105.15 174.75 104.2 175.35 103.05 175.7 102.7 175.7 102.4 175.6 101.65 175.35 101.15 174.95 100.9 174.95 100.25 174.2 99.7 172.95 99.45 172.0 99.35 171.65 99.35 170.55 99.1 169.55 98.6 166.05 98.4 165.7 98.15 164.85 98.15 164.45 97.9 163.9 97.85 162.8 97.8 162.6 97.2 161.4 96.9 161.05 96.6 161.4 96.5 161.6 96.0 162.0 96.0 162.3 94.9 162.9 93.9 166.8 93.9 173.45 92.0 175.25 91.2 175.7 90.05 175.7 89.35 175.55 88.95 175.35 88.35 174.4 88.3 173.95 87.95 173.35 87.95 172.0 88.1 171.55 88.5 171.05 88.55 170.95 88.75 168.2 88.55 165.6 88.7 164.2 88.55 160.25 87.95 156.8 87.95 156.6 88.3 155.15 88.3 154.6 89.9 153.65 91.1 153.65 M68.0 155.6 L69.0 154.95 70.4 154.95 72.1 156.75 72.45 157.3 73.0 158.5 72.45 160.85 72.45 162.9 73.0 167.8 73.25 168.55 73.35 168.6 73.65 169.0 74.15 169.0 74.7 168.8 75.65 167.85 76.95 166.05 77.6 164.65 77.7 162.0 78.0 160.8 78.0 159.65 77.45 157.85 77.45 156.4 77.7 155.35 77.9 154.95 78.75 154.1 79.4 153.9 80.05 153.6 80.55 153.45 81.85 153.45 82.25 153.6 82.85 153.9 83.1 154.0 83.6 154.85 83.6 156.95 83.5 157.4 83.15 158.25 83.1 158.5 83.1 165.15 83.4 167.8 84.05 169.6 85.15 170.95 85.3 171.3 85.6 171.65 85.85 172.0 86.25 172.85 86.25 173.2 86.15 173.7 85.6 174.55 85.55 174.95 84.1 175.95 83.3 175.95 81.9 175.7 81.3 175.35 80.35 174.35 80.35 174.25 79.8 173.7 79.75 173.1 79.15 170.35 79.0 170.15 77.8 171.55 77.65 172.0 77.3 172.4 76.35 173.35 74.2 174.95 73.05 175.25 70.85 174.95 70.45 174.75 Q70.05 174.5 70.05 174.0 L69.95 174.0 69.85 173.95 69.55 173.55 68.9 171.5 68.25 166.6 68.0 166.0 67.9 165.15 67.9 164.05 67.75 163.3 67.7 162.05 67.4 161.05 67.3 160.8 66.55 158.5 66.6 157.0 68.0 155.6 M63.85 183.75 L59.25 183.75 58.9 183.9 58.45 183.95 58.2 184.1 57.7 184.25 57.3 184.65 57.1 185.3 57.1 190.5 57.35 193.95 57.55 194.95 57.7 195.0 60.6 193.2 65.5 189.05 65.75 188.7 66.0 188.4 66.6 187.0 66.95 186.4 67.45 185.65 67.45 185.1 67.35 185.0 66.55 184.5 66.25 184.3 65.75 184.1 64.1 183.85 63.85 183.75 M80.05 179.9 L85.3 180.2 86.35 180.35 90.8 181.3 91.85 181.9 92.2 182.7 92.2 184.15 91.95 184.9 91.4 185.3 89.5 185.3 86.2 184.85 81.75 184.85 81.7 184.9 81.45 185.1 Q81.2 185.1 81.1 185.25 L80.8 185.45 80.6 185.85 80.6 185.95 80.05 188.3 80.05 188.7 79.75 189.75 79.75 190.65 79.9 190.9 79.95 191.4 80.05 191.3 82.4 191.3 86.95 190.85 91.0 190.85 91.45 192.0 91.45 193.0 91.1 193.45 91.0 193.9 90.65 194.15 90.2 194.4 89.8 194.4 88.25 194.6 87.4 194.9 87.0 194.95 82.1 196.05 80.8 196.65 80.35 197.05 80.05 197.1 79.9 197.25 79.75 197.4 79.75 200.8 79.9 200.95 80.0 201.3 80.05 201.55 80.2 201.85 80.55 202.0 80.8 202.0 81.5 202.25 83.1 202.25 84.4 202.0 84.8 202.0 87.0 201.7 87.8 201.7 88.65 201.4 88.95 201.4 90.6 201.25 91.2 201.25 91.95 201.35 92.75 201.9 93.1 202.9 93.1 203.3 93.15 203.05 93.4 202.85 94.0 201.4 94.1 201.1 94.2 200.95 94.2 200.4 94.95 197.15 95.05 196.65 95.6 195.0 95.65 194.3 96.1 191.45 96.45 190.8 96.5 190.05 97.8 182.75 97.8 182.5 97.85 182.0 98.05 181.3 98.35 179.4 98.35 179.05 98.45 178.7 98.6 178.5 98.75 178.2 99.0 177.75 99.9 177.3 102.05 177.3 102.45 177.45 102.8 177.5 103.05 177.65 Q103.25 177.65 103.45 177.9 L104.0 178.3 105.4 179.9 105.9 180.95 105.9 181.2 106.1 181.55 106.15 182.0 106.15 183.1 106.8 185.5 Q107.05 185.5 107.05 185.8 L107.2 187.1 107.7 188.75 107.9 189.25 107.9 189.5 108.15 190.1 109.0 192.85 109.1 193.15 109.3 193.35 110.85 193.65 112.0 194.6 112.0 195.5 110.6 196.85 110.6 197.5 111.4 200.6 111.4 200.8 111.7 201.35 111.8 201.85 112.3 202.8 112.85 203.55 113.6 205.6 114.3 206.75 114.8 207.3 115.25 208.2 115.25 208.95 115.0 209.6 114.1 210.7 113.85 210.9 111.4 210.9 111.15 210.8 110.85 210.6 110.45 210.2 110.35 209.75 108.85 206.6 108.8 206.4 108.15 205.25 107.5 202.95 107.35 202.65 106.5 199.85 105.9 199.0 104.65 199.0 104.25 199.15 102.9 199.4 102.3 199.75 101.5 200.0 99.3 201.1 99.0 201.35 99.0 204.4 98.8 205.25 98.6 205.6 98.2 206.2 97.2 207.35 96.85 207.6 96.45 207.95 95.9 208.15 95.45 208.2 95.1 208.2 94.45 207.95 94.0 207.55 93.55 207.2 93.1 206.75 Q92.8 206.55 92.8 206.35 L92.65 206.15 92.55 205.8 92.55 204.7 91.5 205.4 91.25 205.65 90.85 205.95 90.45 206.15 89.9 206.2 89.25 206.4 87.2 206.4 85.8 206.6 85.15 206.6 81.9 207.0 81.5 207.15 80.3 207.8 79.9 207.95 79.6 207.95 78.65 208.35 78.2 208.5 77.6 208.5 76.9 208.35 75.8 207.55 75.35 206.5 75.3 206.15 74.95 205.05 74.95 197.9 74.7 196.3 74.7 195.0 74.75 194.6 75.1 194.15 75.2 193.9 75.2 186.45 75.15 186.2 74.5 185.3 74.4 184.9 74.4 183.25 74.55 182.9 74.7 182.35 75.1 181.7 76.85 180.05 77.45 179.65 78.75 179.65 79.75 179.8 80.05 179.9 M93.1 158.85 L92.75 159.5 93.15 159.5 93.1 159.25 93.1 158.85 M113.6 161.95 L113.45 162.2 113.55 162.2 113.6 162.0 113.6 161.95 M102.05 188.7 L101.0 191.85 100.9 192.1 100.9 192.45 100.65 193.45 100.4 195.0 100.4 195.45 100.7 195.45 102.3 195.2 104.0 194.8 104.1 194.8 104.55 194.6 104.65 194.6 104.65 194.3 104.55 193.9 103.8 190.05 103.7 189.75 103.05 188.55 102.5 187.95 102.45 188.0 102.3 188.35 102.05 188.7" fill="#99cc00" fill-rule="evenodd" stroke="none"/>
    <path d="M111.8 211.0 L114.2 211.0 113.85 211.3 112.85 211.55 112.6 211.55 111.85 211.15 111.8 211.0" fill="#292929" fill-rule="evenodd" stroke="none"/>
  </g>
</svg>
