<?xml version="1.0" encoding="UTF-8" standalone="no"?>
<svg xmlns:xlink="http://www.w3.org/1999/xlink" height="36.0px" width="167.0px" xmlns="http://www.w3.org/2000/svg">
  <g transform="matrix(1, 0, 0, 1, 0.0, 0.0)">
    <path d="M125.0 36.0 L3.0 35.95 Q1.75 35.9 0.9 34.95 0.0 34.0 0.0 32.75 L0.0 3.2 Q0.0 1.85 0.95 0.95 1.9 0.0 3.2 0.0 L125.0 0.0 125.0 36.0" fill="url(#gradient0)" fill-rule="evenodd" stroke="none"/>
    <path d="M143.0 0.0 L164.05 0.0 Q165.3 0.1 166.15 1.0 167.0 1.95 167.0 3.2 L167.0 32.75 Q167.0 34.1 166.1 35.05 165.15 36.0 163.85 36.0 L143.0 36.0 143.0 0.0" fill="url(#gradient1)" fill-rule="evenodd" stroke="none"/>
    <path d="M143.0 0.0 L143.0 36.0 125.0 36.0 125.0 0.0 143.0 0.0" fill="url(#gradient2)" fill-rule="evenodd" stroke="none"/>
  </g>
  <defs>
    <linearGradient gradientTransform="matrix(0.0, 0.0191, -0.0191, 0.0, 89.95, 17.65)" gradientUnits="userSpaceOnUse" id="gradient0" spreadMethod="pad" x1="-819.2" x2="819.2">
      <stop offset="0.23137254901960785" stop-color="#0099ff"/>
      <stop offset="1.0" stop-color="#0062a3"/>
    </linearGradient>
    <linearGradient gradientTransform="matrix(0.0, 0.0191, -0.0191, 0.0, 126.95, 17.65)" gradientUnits="userSpaceOnUse" id="gradient1" spreadMethod="pad" x1="-819.2" x2="819.2">
      <stop offset="0.23137254901960785" stop-color="#0099ff"/>
      <stop offset="1.0" stop-color="#0062a3"/>
    </linearGradient>
    <linearGradient gradientTransform="matrix(0.0, 0.0191, -0.0191, 0.0, 87.95, 17.65)" gradientUnits="userSpaceOnUse" id="gradient2" spreadMethod="pad" x1="-819.2" x2="819.2">
      <stop offset="0.23137254901960785" stop-color="#0099ff"/>
      <stop offset="1.0" stop-color="#0062a3"/>
    </linearGradient>
  </defs>
</svg>
