<?xml version="1.0" encoding="UTF-8" standalone="no"?>
<svg xmlns:xlink="http://www.w3.org/1999/xlink" height="334.0px" width="550.0px" xmlns="http://www.w3.org/2000/svg">
  <g transform="matrix(1, 0, 0, 1, 0.0, 0.0)">
    <path d="M542.7 7.3 Q550.0 14.6 550.0 25.0 L550.0 327.0 Q550.0 329.9 547.95 331.95 545.9 334.0 543.0 334.0 L7.0 334.0 Q4.1 334.0 2.05 331.95 0.0 329.9 0.0 327.0 L0.0 7.0 Q0.0 4.1 2.05 2.05 4.1 0.0 7.0 0.0 L525.0 0.0 Q535.35 0.0 542.7 7.3" fill="url(#gradient0)" fill-rule="evenodd" stroke="none"/>
    <path d="M529.95 37.0 L288.0 37.0 288.0 13.0 529.95 13.0 529.95 37.0" fill="url(#gradient1)" fill-rule="evenodd" stroke="none"/>
    <path d="M236.05 5.0 L236.05 45.0 9.0 45.0 Q7.3 45.0 6.15 43.85 5.0 42.65 5.0 41.0 L5.0 9.0 Q5.0 7.3 6.15 6.15 7.3 5.0 9.0 5.0 L236.05 5.0" fill="url(#gradient2)" fill-rule="evenodd" stroke="none"/>
    <path d="M236.05 5.0 L371.0 5.0 373.2 5.25 Q375.05 5.8 373.5 7.45 L340.0 40.95 340.0 41.0 339.85 41.1 Q337.5 43.4 334.0 44.45 L331.0 45.0 236.05 45.0 236.05 5.0" fill="url(#gradient3)" fill-rule="evenodd" stroke="none"/>
  </g>
  <defs>
    <radialGradient cx="0" cy="0" gradientTransform="matrix(0.3896, 0.0, 0.0, 0.3896, 275.0, 167.0)" gradientUnits="userSpaceOnUse" id="gradient0" r="819.2" spreadMethod="pad">
      <stop offset="0.2823529411764706" stop-color="#ffffff"/>
      <stop offset="0.9921568627450981" stop-color="#e8e8e8"/>
    </radialGradient>
    <linearGradient gradientTransform="matrix(0.0, 0.0143, -0.0087, 0.0, 372.15, 24.75)" gradientUnits="userSpaceOnUse" id="gradient1" spreadMethod="pad" x1="-819.2" x2="819.2">
      <stop offset="0.0" stop-color="#666666"/>
      <stop offset="0.9882352941176471" stop-color="#333333"/>
    </linearGradient>
    <linearGradient gradientTransform="matrix(0.0, 0.0239, -0.0239, 0.0, 123.0, 24.55)" gradientUnits="userSpaceOnUse" id="gradient2" spreadMethod="pad" x1="-819.2" x2="819.2">
      <stop offset="0.0" stop-color="#99cc00"/>
      <stop offset="0.9921568627450981" stop-color="#5f7f00"/>
    </linearGradient>
    <linearGradient gradientTransform="matrix(0.0, 0.0239, -0.0239, 0.0, 163.0, 24.55)" gradientUnits="userSpaceOnUse" id="gradient3" spreadMethod="pad" x1="-819.2" x2="819.2">
      <stop offset="0.0" stop-color="#99cc00"/>
      <stop offset="0.9921568627450981" stop-color="#5f7f00"/>
    </linearGradient>
  </defs>
</svg>
