<?xml version="1.0" encoding="UTF-8" standalone="no"?>
<svg xmlns:xlink="http://www.w3.org/1999/xlink" height="70.0px" width="73.0px" xmlns="http://www.w3.org/2000/svg">
  <g transform="matrix(1, 0, 0, 1, -188.0, -307.0)">
    <path d="M225.0 331.25 L225.55 329.9 Q226.8 326.35 230.4 324.15 233.9 322.0 238.0 322.0 242.1 322.0 245.55 324.15 249.15 326.35 250.4 329.9 L251.0 331.25 250.95 335.55 Q251.2 340.1 247.7 343.45 243.95 347.0 237.95 347.0 232.0 347.0 228.25 343.45 224.75 340.1 225.0 335.55 L225.0 331.25 M213.4 344.15 Q216.9 342.0 221.0 342.0 225.1 342.0 228.55 344.15 232.15 346.35 233.4 349.9 L234.0 351.25 233.95 355.55 Q234.2 360.1 230.7 363.45 226.95 367.0 220.95 367.0 215.0 367.0 211.25 363.45 207.75 360.1 208.0 355.55 L208.0 351.25 208.55 349.9 Q209.8 346.35 213.4 344.15 M211.0 317.0 Q215.1 317.0 218.55 319.15 222.15 321.35 223.4 324.9 L224.0 326.25 223.95 330.55 Q224.2 335.1 220.7 338.45 216.95 342.0 210.95 342.0 205.0 342.0 201.25 338.45 197.75 335.1 198.0 330.55 L198.0 326.25 198.55 324.9 Q199.8 321.35 203.4 319.15 206.9 317.0 211.0 317.0" fill="#000000" fill-rule="evenodd" stroke="none"/>
    <path d="M211.0 317.0 Q206.9 317.0 203.4 319.15 199.8 321.35 198.55 324.9 L198.0 326.25 198.0 330.55 Q197.75 335.1 201.25 338.45 205.0 342.0 210.95 342.0 216.95 342.0 220.7 338.45 224.2 335.1 223.95 330.55 L224.0 326.25 223.4 324.9 Q222.15 321.35 218.55 319.15 215.1 317.0 211.0 317.0 M213.4 344.15 Q209.8 346.35 208.55 349.9 L208.0 351.25 208.0 355.55 Q207.75 360.1 211.25 363.45 215.0 367.0 220.95 367.0 226.95 367.0 230.7 363.45 234.2 360.1 233.95 355.55 L234.0 351.25 233.4 349.9 Q232.15 346.35 228.55 344.15 225.1 342.0 221.0 342.0 216.9 342.0 213.4 344.15 M225.0 331.25 L225.0 335.55 Q224.75 340.1 228.25 343.45 232.0 347.0 237.95 347.0 243.95 347.0 247.7 343.45 251.2 340.1 250.95 335.55 L251.0 331.25 250.4 329.9 Q249.15 326.35 245.55 324.15 242.1 322.0 238.0 322.0 233.9 322.0 230.4 324.15 226.8 326.35 225.55 329.9 L225.0 331.25" fill="none" stroke="#000000" stroke-linecap="round" stroke-linejoin="round" stroke-width="20.0"/>
  </g>
</svg>
