<?xml version="1.0" encoding="UTF-8" standalone="no"?>
<svg xmlns:xlink="http://www.w3.org/1999/xlink" height="27.0px" width="28.0px" xmlns="http://www.w3.org/2000/svg">
  <g transform="matrix(1, 0, 0, 1, -27.1, -15.0)">
    <path d="M28.1 29.55 Q27.85 34.1 31.35 37.45 35.1 41.0 41.05 41.0 47.05 41.0 50.8 37.45 54.3 34.1 54.05 29.55 L54.05 27.6 54.05 26.75 54.1 25.25 53.5 23.9 Q52.25 20.35 48.65 18.15 45.2 16.0 41.1 16.0 37.0 16.0 33.5 18.15 29.9 20.35 28.65 23.9 L28.1 25.25 28.1 29.55" fill="none" stroke="#002b46" stroke-linecap="round" stroke-linejoin="round" stroke-width="2.0"/>
    <path d="M28.1 29.55 L28.1 25.25 54.1 25.25 54.05 29.55 Q54.3 34.1 50.8 37.45 47.05 41.0 41.05 41.0 35.1 41.0 31.35 37.45 27.85 34.1 28.1 29.55" fill="#004d80" fill-rule="evenodd" stroke="none"/>
    <path d="M28.65 23.9 Q29.9 20.35 33.5 18.15 37.0 16.0 41.1 16.0 45.2 16.0 48.65 18.15 52.25 20.35 53.5 23.9 55.35 29.1 51.8 33.5 48.05 38.1 41.05 38.1 34.1 38.1 30.35 33.5 26.8 29.1 28.65 23.9" fill="url(#gradient0)" fill-rule="evenodd" stroke="none"/>
    <path d="M30.7 24.35 Q31.6 21.4 34.6 19.55 37.55 17.7 41.1 17.7 44.65 17.7 47.55 19.55 50.55 21.4 51.45 24.35 52.65 28.4 49.65 31.7 46.55 35.1 41.1 35.1 35.6 35.1 32.5 31.7 29.5 28.4 30.7 24.35" fill="url(#gradient1)" fill-rule="evenodd" stroke="none"/>
    <path d="M30.7 24.35 Q31.6 21.4 34.6 19.55 37.55 17.7 41.1 17.7 44.65 17.7 47.55 19.55 50.55 21.4 51.45 24.35 L51.75 26.0 51.5 26.0 51.45 25.75 Q50.55 22.8 47.55 20.95 44.65 19.15 41.1 19.15 37.55 19.15 34.6 20.95 31.6 22.8 30.7 25.75 L30.65 26.0 30.4 26.0 30.7 24.35" fill="#005791" fill-rule="evenodd" stroke="none"/>
  </g>
  <defs>
    <linearGradient gradientTransform="matrix(0.0, 0.0131, -0.0131, 0.0, 41.1, 26.7)" gradientUnits="userSpaceOnUse" id="gradient0" spreadMethod="pad" x1="-819.2" x2="819.2">
      <stop offset="0.0" stop-color="#0099ff"/>
      <stop offset="0.9921568627450981" stop-color="#0064a8"/>
    </linearGradient>
    <linearGradient gradientTransform="matrix(0.0, 0.0097, -0.0097, 0.0, 41.1, 26.8)" gradientUnits="userSpaceOnUse" id="gradient1" spreadMethod="pad" x1="-819.2" x2="819.2">
      <stop offset="0.0" stop-color="#0099ff"/>
      <stop offset="0.8274509803921568" stop-color="#005893"/>
    </linearGradient>
  </defs>
</svg>
