<?xml version="1.0" encoding="UTF-8" standalone="no"?>
<svg xmlns:xlink="http://www.w3.org/1999/xlink" height="12.4px" width="15.65px" xmlns="http://www.w3.org/2000/svg">
  <g transform="matrix(1, 0, 0, 1, -566.15, -312.5)">
    <path d="M568.55 319.75 Q566.45 318.85 566.7 317.7 566.9 316.65 569.05 315.95 571.15 315.25 574.0 315.25 576.8 315.25 578.9 315.95 581.05 316.65 581.25 317.7 581.5 318.85 579.4 319.75 577.25 320.6 574.0 320.6 570.75 320.6 568.55 319.75" fill="none" stroke="#000000" stroke-linecap="round" stroke-linejoin="round" stroke-width="1.0"/>
    <path d="M570.85 313.1 Q571.85 312.7 573.45 313.6 575.05 314.55 576.55 316.45 578.35 318.75 578.95 321.05 579.5 323.4 578.35 324.15 577.1 324.95 574.9 323.35 572.7 321.8 571.2 319.1 569.95 316.95 569.9 315.2 569.8 313.5 570.85 313.1" fill="none" stroke="#000000" stroke-linecap="round" stroke-linejoin="round" stroke-width="1.0"/>
    <path d="M569.6 324.15 Q568.45 323.4 569.0 321.05 569.6 318.75 571.4 316.45 572.9 314.55 574.5 313.6 576.1 312.7 577.1 313.1 578.15 313.5 578.05 315.2 578.0 316.95 576.75 319.1 575.25 321.8 573.05 323.35 570.85 324.95 569.6 324.15" fill="none" stroke="#000000" stroke-linecap="round" stroke-linejoin="round" stroke-width="1.0"/>
  </g>
</svg>
