<?xml version="1.0" encoding="UTF-8" standalone="no"?>
<svg xmlns:xlink="http://www.w3.org/1999/xlink" height="79.0px" width="99.0px" xmlns="http://www.w3.org/2000/svg">
  <g transform="matrix(1, 0, 0, 1, -351.0, -303.0)">
    <path d="M411.4 318.15 Q414.9 316.0 419.0 316.0 423.1 316.0 426.55 318.15 430.15 320.35 431.4 323.9 L432.0 325.25 431.95 329.55 Q432.05 331.95 431.05 334.15 430.0 336.4 428.05 338.0 L429.0 338.0 Q433.1 338.0 436.55 340.15 440.15 342.35 441.4 345.9 L442.0 347.25 441.95 351.55 Q442.2 356.1 438.7 359.45 434.95 363.0 428.95 363.0 423.0 363.0 419.25 359.45 415.75 356.1 416.0 351.55 L416.0 347.25 416.55 345.9 Q417.45 343.1 420.2 340.95 L418.95 341.0 Q413.0 341.0 409.25 337.45 405.75 334.1 406.0 329.55 L406.0 325.25 406.55 323.9 Q407.8 320.35 411.4 318.15 M392.0 311.0 Q396.1 311.0 399.55 313.15 403.15 315.35 404.4 318.9 L405.0 320.25 404.95 324.55 Q405.2 329.1 401.7 332.45 397.95 336.0 391.95 336.0 386.3 336.0 382.7 332.8 383.95 334.35 384.4 335.9 L385.0 337.25 384.95 341.55 Q385.2 345.9 382.0 349.1 386.25 349.75 389.25 352.35 388.95 350.9 389.0 349.55 L389.0 345.25 389.55 343.9 Q390.8 340.35 394.4 338.15 397.9 336.0 402.0 336.0 406.1 336.0 409.55 338.15 413.15 340.35 414.4 343.9 L415.0 345.25 414.95 349.55 Q415.2 354.1 411.7 357.45 407.95 361.0 401.95 361.0 396.5 361.0 392.85 357.95 L393.0 358.25 392.95 362.55 Q393.2 367.1 389.7 370.45 385.95 374.0 379.95 374.0 374.0 374.0 370.25 370.45 366.75 367.1 367.0 362.55 L367.0 358.25 367.55 356.9 Q368.25 354.7 370.1 352.85 364.7 352.25 361.55 348.7 L361.5 348.65 Q358.75 345.55 359.0 341.55 L359.0 337.25 359.55 335.9 Q360.8 332.35 364.4 330.15 367.9 328.0 372.0 328.0 377.45 328.0 381.25 331.35 378.8 328.25 379.0 324.55 L379.0 320.25 379.55 318.9 Q380.8 315.35 384.4 313.15 387.9 311.0 392.0 311.0" fill="#000000" fill-rule="evenodd" stroke="none"/>
    <path d="M392.0 311.0 Q387.9 311.0 384.4 313.15 380.8 315.35 379.55 318.9 L379.0 320.25 379.0 324.55 Q378.8 328.25 381.25 331.35 377.45 328.0 372.0 328.0 367.9 328.0 364.4 330.15 360.8 332.35 359.55 335.9 L359.0 337.25 359.0 341.55 Q358.75 345.55 361.5 348.65 L361.55 348.7 Q364.7 352.25 370.1 352.85 368.25 354.7 367.55 356.9 L367.0 358.25 367.0 362.55 Q366.75 367.1 370.25 370.45 374.0 374.0 379.95 374.0 385.95 374.0 389.7 370.45 393.2 367.1 392.95 362.55 L393.0 358.25 392.85 357.95 Q396.5 361.0 401.95 361.0 407.95 361.0 411.7 357.45 415.2 354.1 414.95 349.55 L415.0 345.25 414.4 343.9 Q413.15 340.35 409.55 338.15 406.1 336.0 402.0 336.0 397.9 336.0 394.4 338.15 390.8 340.35 389.55 343.9 L389.0 345.25 389.0 349.55 Q388.95 350.9 389.25 352.35 386.25 349.75 382.0 349.1 385.2 345.9 384.95 341.55 L385.0 337.25 384.4 335.9 Q383.95 334.35 382.7 332.8 386.3 336.0 391.95 336.0 397.95 336.0 401.7 332.45 405.2 329.1 404.95 324.55 L405.0 320.25 404.4 318.9 Q403.15 315.35 399.55 313.15 396.1 311.0 392.0 311.0 M411.4 318.15 Q407.8 320.35 406.55 323.9 L406.0 325.25 406.0 329.55 Q405.75 334.1 409.25 337.45 413.0 341.0 418.95 341.0 L420.2 340.95 Q417.45 343.1 416.55 345.9 L416.0 347.25 416.0 351.55 Q415.75 356.1 419.25 359.45 423.0 363.0 428.95 363.0 434.95 363.0 438.7 359.45 442.2 356.1 441.95 351.55 L442.0 347.25 441.4 345.9 Q440.15 342.35 436.55 340.15 433.1 338.0 429.0 338.0 L428.05 338.0 Q430.0 336.4 431.05 334.15 432.05 331.95 431.95 329.55 L432.0 325.25 431.4 323.9 Q430.15 320.35 426.55 318.15 423.1 316.0 419.0 316.0 414.9 316.0 411.4 318.15" fill="none" stroke="#000000" stroke-linecap="round" stroke-linejoin="round" stroke-width="16.0"/>
  </g>
</svg>
