<?xml version="1.0" encoding="UTF-8" standalone="no"?>
<svg xmlns:xlink="http://www.w3.org/1999/xlink" height="27.0px" width="28.0px" xmlns="http://www.w3.org/2000/svg">
  <g transform="matrix(1, 0, 0, 1, -9.1, -67.0)">
    <path d="M30.65 70.15 Q27.2 68.0 23.1 68.0 19.0 68.0 15.5 70.15 11.9 72.35 10.65 75.9 L10.1 77.25 10.1 81.55 Q9.85 86.1 13.35 89.45 17.1 93.0 23.05 93.0 29.05 93.0 32.8 89.45 36.3 86.1 36.05 81.55 L36.05 79.6 36.05 78.75 36.1 77.25 35.5 75.9 Q34.25 72.35 30.65 70.15" fill="none" stroke="#002b46" stroke-linecap="round" stroke-linejoin="round" stroke-width="2.0"/>
    <path d="M10.1 81.55 L10.1 77.25 36.1 77.25 36.05 81.55 Q36.3 86.1 32.8 89.45 29.05 93.0 23.05 93.0 17.1 93.0 13.35 89.45 9.85 86.1 10.1 81.55" fill="#004d80" fill-rule="evenodd" stroke="none"/>
    <path d="M10.65 75.9 Q11.9 72.35 15.5 70.15 19.0 68.0 23.1 68.0 27.2 68.0 30.65 70.15 34.25 72.35 35.5 75.9 37.35 81.1 33.8 85.5 30.05 90.1 23.05 90.1 16.1 90.1 12.35 85.5 8.8 81.1 10.65 75.9" fill="url(#gradient0)" fill-rule="evenodd" stroke="none"/>
    <path d="M12.7 76.35 Q13.6 73.4 16.6 71.55 19.55 69.7 23.1 69.7 26.65 69.7 29.55 71.55 32.55 73.4 33.45 76.35 34.65 80.4 31.65 83.7 28.55 87.1 23.1 87.1 17.6 87.1 14.5 83.7 11.5 80.4 12.7 76.35" fill="url(#gradient1)" fill-rule="evenodd" stroke="none"/>
    <path d="M29.55 71.55 Q32.55 73.4 33.45 76.35 L33.75 78.0 33.5 78.0 33.45 77.75 Q32.55 74.8 29.55 72.95 26.65 71.15 23.1 71.15 19.55 71.15 16.6 72.95 13.6 74.8 12.7 77.75 L12.65 78.0 12.4 78.0 12.7 76.35 Q13.6 73.4 16.6 71.55 19.55 69.7 23.1 69.7 26.65 69.7 29.55 71.55" fill="#005791" fill-rule="evenodd" stroke="none"/>
  </g>
  <defs>
    <linearGradient gradientTransform="matrix(0.0, 0.0131, -0.0131, 0.0, 23.1, 78.7)" gradientUnits="userSpaceOnUse" id="gradient0" spreadMethod="pad" x1="-819.2" x2="819.2">
      <stop offset="0.0" stop-color="#0099ff"/>
      <stop offset="0.9921568627450981" stop-color="#0064a8"/>
    </linearGradient>
    <linearGradient gradientTransform="matrix(0.0, 0.0097, -0.0097, 0.0, 23.1, 78.8)" gradientUnits="userSpaceOnUse" id="gradient1" spreadMethod="pad" x1="-819.2" x2="819.2">
      <stop offset="0.0" stop-color="#0099ff"/>
      <stop offset="0.8274509803921568" stop-color="#005893"/>
    </linearGradient>
  </defs>
</svg>
