<?xml version="1.0" encoding="UTF-8" standalone="no"?>
<svg xmlns:xlink="http://www.w3.org/1999/xlink" height="105.0px" width="130.0px" xmlns="http://www.w3.org/2000/svg">
  <g transform="matrix(1, 0, 0, 1, -524.0, -280.0)">
    <path d="M534.0 340.55 L534.0 336.25 534.55 334.9 Q535.8 331.35 539.4 329.15 542.9 327.0 547.0 327.0 551.1 327.0 554.55 329.15 558.15 331.35 559.4 334.9 L560.0 336.25 559.95 340.55 Q560.2 345.1 556.7 348.45 552.95 352.0 547.0 352.0 541.0 352.0 537.3 348.45 533.75 345.1 534.0 340.55 M578.4 292.15 Q581.9 290.0 586.0 290.0 590.1 290.0 593.55 292.15 597.15 294.35 598.4 297.9 L599.0 299.25 598.95 303.55 Q599.2 308.1 595.7 311.45 591.95 315.0 586.0 315.0 580.3 315.0 576.7 311.8 577.95 313.35 578.4 314.9 L579.0 316.25 578.95 320.55 Q579.2 324.9 576.0 328.1 580.25 328.75 583.25 331.35 582.95 329.9 583.0 328.55 L583.0 324.25 583.55 322.9 Q584.8 319.35 588.4 317.15 591.9 315.0 596.0 315.0 600.1 315.0 603.55 317.15 607.15 319.35 608.4 322.9 L609.0 324.25 608.95 328.55 Q609.1 330.65 608.25 332.65 609.35 332.95 610.3 333.4 609.9 332.05 610.0 330.55 L610.0 326.25 610.55 324.9 Q611.45 322.1 614.2 319.95 L613.0 320.0 Q607.0 320.0 603.3 316.45 599.75 313.1 600.0 308.55 L600.0 304.25 600.55 302.9 Q601.8 299.35 605.4 297.15 608.9 295.0 613.0 295.0 617.1 295.0 620.55 297.15 624.15 299.35 625.4 302.9 L626.0 304.25 625.95 308.55 Q626.05 310.95 625.05 313.15 624.0 315.4 622.05 317.0 L623.0 317.0 Q627.1 317.0 630.55 319.15 634.15 321.35 635.4 324.9 L636.0 326.25 635.95 330.55 Q636.1 333.35 634.7 335.85 633.3 338.4 630.65 340.0 L631.0 340.0 Q635.1 340.0 638.55 342.15 642.15 344.35 643.4 347.9 L644.0 349.25 643.95 353.55 Q644.2 358.1 640.7 361.45 636.95 365.0 631.0 365.0 625.0 365.0 621.3 361.45 617.75 358.1 618.0 353.55 L618.0 349.25 618.55 347.9 Q619.75 344.25 623.65 341.95 L623.0 342.0 Q619.75 342.0 616.75 340.75 L617.0 341.25 616.95 345.55 Q617.2 350.1 613.7 353.45 609.95 357.0 604.0 357.0 L602.0 356.85 603.0 359.25 602.95 363.55 Q603.2 368.1 599.7 371.45 595.95 375.0 590.0 375.0 584.0 375.0 580.3 371.45 576.75 368.1 577.0 363.55 L577.0 359.25 577.55 357.9 Q578.8 354.35 582.4 352.15 585.9 350.0 590.0 350.0 L591.85 350.1 Q590.85 347.85 591.0 345.55 L591.0 341.25 591.7 339.45 Q588.8 338.6 586.85 336.95 L587.0 337.25 586.95 341.55 Q587.2 346.1 583.7 349.45 579.95 353.0 574.0 353.0 L571.8 352.85 Q573.7 354.75 574.4 356.9 L575.0 358.25 574.95 362.55 Q575.2 367.1 571.7 370.45 567.95 374.0 562.0 374.0 556.0 374.0 552.3 370.45 548.75 367.1 549.0 362.55 L549.0 358.25 549.55 356.9 Q550.8 353.35 554.4 351.15 557.9 349.0 562.0 349.0 L563.95 349.1 Q560.75 345.85 561.0 341.55 L561.0 337.25 561.55 335.9 Q562.25 333.7 564.1 331.85 558.95 331.35 555.85 328.0 L555.8 328.0 555.7 327.85 Q552.75 324.7 553.0 320.55 L553.0 316.25 553.55 314.9 Q554.8 311.35 558.4 309.15 561.9 307.0 566.0 307.0 571.45 307.0 575.25 310.35 572.8 307.25 573.0 303.55 L573.0 299.25 573.55 297.9 Q574.8 294.35 578.4 292.15" fill="#000000" fill-rule="evenodd" stroke="none"/>
    <path d="M578.4 292.15 Q574.8 294.35 573.55 297.9 L573.0 299.25 573.0 303.55 Q572.8 307.25 575.25 310.35 571.45 307.0 566.0 307.0 561.9 307.0 558.4 309.15 554.8 311.35 553.55 314.9 L553.0 316.25 553.0 320.55 Q552.75 324.7 555.7 327.85 L555.8 328.0 555.85 328.0 Q558.95 331.35 564.1 331.85 562.25 333.7 561.55 335.9 L561.0 337.25 561.0 341.55 Q560.75 345.85 563.95 349.1 L562.0 349.0 Q557.9 349.0 554.4 351.15 550.8 353.35 549.55 356.9 L549.0 358.25 549.0 362.55 Q548.75 367.1 552.3 370.45 556.0 374.0 562.0 374.0 567.95 374.0 571.7 370.45 575.2 367.1 574.95 362.55 L575.0 358.25 574.4 356.9 Q573.7 354.75 571.8 352.85 L574.0 353.0 Q579.95 353.0 583.7 349.45 587.2 346.1 586.95 341.55 L587.0 337.25 586.85 336.95 Q588.8 338.6 591.7 339.45 L591.0 341.25 591.0 345.55 Q590.85 347.85 591.85 350.1 L590.0 350.0 Q585.9 350.0 582.4 352.15 578.8 354.35 577.55 357.9 L577.0 359.25 577.0 363.55 Q576.75 368.1 580.3 371.45 584.0 375.0 590.0 375.0 595.95 375.0 599.7 371.45 603.2 368.1 602.95 363.55 L603.0 359.25 602.0 356.85 604.0 357.0 Q609.95 357.0 613.7 353.45 617.2 350.1 616.95 345.55 L617.0 341.25 616.75 340.75 Q619.75 342.0 623.0 342.0 L623.65 341.95 Q619.75 344.25 618.55 347.9 L618.0 349.25 618.0 353.55 Q617.75 358.1 621.3 361.45 625.0 365.0 631.0 365.0 636.95 365.0 640.7 361.45 644.2 358.1 643.95 353.55 L644.0 349.25 643.4 347.9 Q642.15 344.35 638.55 342.15 635.1 340.0 631.0 340.0 L630.65 340.0 Q633.3 338.4 634.7 335.85 636.1 333.35 635.95 330.55 L636.0 326.25 635.4 324.9 Q634.15 321.35 630.55 319.15 627.1 317.0 623.0 317.0 L622.05 317.0 Q624.0 315.4 625.05 313.15 626.05 310.95 625.95 308.55 L626.0 304.25 625.4 302.9 Q624.15 299.35 620.55 297.15 617.1 295.0 613.0 295.0 608.9 295.0 605.4 297.15 601.8 299.35 600.55 302.9 L600.0 304.25 600.0 308.55 Q599.75 313.1 603.3 316.45 607.0 320.0 613.0 320.0 L614.2 319.95 Q611.45 322.1 610.55 324.9 L610.0 326.25 610.0 330.55 Q609.9 332.05 610.3 333.4 609.35 332.95 608.25 332.65 609.1 330.65 608.95 328.55 L609.0 324.25 608.4 322.9 Q607.15 319.35 603.55 317.15 600.1 315.0 596.0 315.0 591.9 315.0 588.4 317.15 584.8 319.35 583.55 322.9 L583.0 324.25 583.0 328.55 Q582.95 329.9 583.25 331.35 580.25 328.75 576.0 328.1 579.2 324.9 578.95 320.55 L579.0 316.25 578.4 314.9 Q577.95 313.35 576.7 311.8 580.3 315.0 586.0 315.0 591.95 315.0 595.7 311.45 599.2 308.1 598.95 303.55 L599.0 299.25 598.4 297.9 Q597.15 294.35 593.55 292.15 590.1 290.0 586.0 290.0 581.9 290.0 578.4 292.15 M534.0 340.55 Q533.75 345.1 537.3 348.45 541.0 352.0 547.0 352.0 552.95 352.0 556.7 348.45 560.2 345.1 559.95 340.55 L560.0 336.25 559.4 334.9 Q558.15 331.35 554.55 329.15 551.1 327.0 547.0 327.0 542.9 327.0 539.4 329.15 535.8 331.35 534.55 334.9 L534.0 336.25 534.0 340.55" fill="none" stroke="#000000" stroke-linecap="round" stroke-linejoin="round" stroke-width="20.0"/>
  </g>
</svg>
