<?xml version="1.0" encoding="UTF-8" standalone="no"?>
<svg xmlns:xlink="http://www.w3.org/1999/xlink" height="27.0px" width="28.0px" xmlns="http://www.w3.org/2000/svg">
  <g transform="matrix(1, 0, 0, 1, -27.1, -59.0)">
    <path d="M28.1 73.55 Q27.85 78.1 31.4 81.45 35.1 85.0 41.1 85.0 47.05 85.0 50.8 81.45 54.3 78.1 54.05 73.55 L54.05 71.6 54.05 70.75 54.1 69.25 53.5 67.9 Q52.25 64.35 48.65 62.15 45.2 60.0 41.1 60.0 37.0 60.0 33.5 62.15 29.9 64.35 28.65 67.9 L28.1 69.25 28.1 73.55" fill="none" stroke="#002b46" stroke-linecap="round" stroke-linejoin="round" stroke-width="2.0"/>
    <path d="M28.1 73.55 L28.1 69.25 54.1 69.25 54.05 73.55 Q54.3 78.1 50.8 81.45 47.05 85.0 41.1 85.0 35.1 85.0 31.4 81.45 27.85 78.1 28.1 73.55" fill="#004d80" fill-rule="evenodd" stroke="none"/>
    <path d="M28.65 67.9 Q29.9 64.35 33.5 62.15 37.0 60.0 41.1 60.0 45.2 60.0 48.65 62.15 52.25 64.35 53.5 67.9 55.35 73.1 51.8 77.5 48.05 82.1 41.1 82.1 34.1 82.1 30.4 77.5 26.8 73.1 28.65 67.9" fill="url(#gradient0)" fill-rule="evenodd" stroke="none"/>
    <path d="M30.7 68.35 Q31.6 65.4 34.6 63.55 37.55 61.7 41.1 61.7 44.65 61.7 47.55 63.55 50.55 65.4 51.45 68.35 52.65 72.4 49.65 75.7 46.55 79.1 41.1 79.1 35.6 79.1 32.5 75.7 29.5 72.4 30.7 68.35" fill="url(#gradient1)" fill-rule="evenodd" stroke="none"/>
    <path d="M30.7 69.75 L30.65 70.0 30.4 70.0 30.7 68.35 Q31.6 65.4 34.6 63.55 37.55 61.7 41.1 61.7 44.65 61.7 47.55 63.55 50.55 65.4 51.45 68.35 L51.75 70.0 51.5 70.0 51.45 69.75 Q50.55 66.8 47.55 64.95 44.65 63.15 41.1 63.15 37.55 63.15 34.6 64.95 31.6 66.8 30.7 69.75" fill="#005791" fill-rule="evenodd" stroke="none"/>
  </g>
  <defs>
    <linearGradient gradientTransform="matrix(0.0, 0.0131, -0.0131, 0.0, 41.1, 70.7)" gradientUnits="userSpaceOnUse" id="gradient0" spreadMethod="pad" x1="-819.2" x2="819.2">
      <stop offset="0.0" stop-color="#0099ff"/>
      <stop offset="0.9921568627450981" stop-color="#0064a8"/>
    </linearGradient>
    <linearGradient gradientTransform="matrix(0.0, 0.0097, -0.0097, 0.0, 41.1, 70.8)" gradientUnits="userSpaceOnUse" id="gradient1" spreadMethod="pad" x1="-819.2" x2="819.2">
      <stop offset="0.0" stop-color="#0099ff"/>
      <stop offset="0.8274509803921568" stop-color="#005893"/>
    </linearGradient>
  </defs>
</svg>
