<?xml version="1.0" encoding="UTF-8" standalone="no"?>
<svg xmlns:xlink="http://www.w3.org/1999/xlink" height="57.55px" width="57.65px" xmlns="http://www.w3.org/2000/svg">
  <g transform="matrix(1, 0, 0, 1, -7.3, -1.6)">
    <path d="M53.25 8.1 L55.0 14.25 60.75 17.05 59.85 23.35 63.95 28.25 60.55 33.65 62.35 39.75 57.05 43.3 56.15 49.65 49.9 50.7 46.5 56.15 40.35 54.55 35.05 58.15 30.05 54.2 23.75 55.35 20.8 49.7 14.6 48.2 14.15 41.8 9.1 37.9 11.35 31.9 8.3 26.3 12.75 21.7 12.3 15.35 18.2 13.0 20.35 6.95 26.75 7.2 31.15 2.6 36.9 5.45 42.8 3.0 46.9 7.95 53.25 8.1" fill="url(#gradient0)" fill-rule="evenodd" stroke="none"/>
    <path d="M53.25 8.1 L55.0 14.25 60.75 17.05 59.85 23.35 63.95 28.25 60.55 33.65 62.35 39.75 57.05 43.3 56.15 49.65 49.9 50.7 46.5 56.15 40.35 54.55 35.05 58.15 30.05 54.2 23.75 55.35 20.8 49.7 14.6 48.2 14.15 41.8 9.1 37.9 11.35 31.9 8.3 26.3 12.75 21.7 12.3 15.35 18.2 13.0 20.35 6.95 26.75 7.2 31.15 2.6 36.9 5.45 42.8 3.0 46.9 7.95 53.25 8.1" fill="none" stroke="#688a00" stroke-linecap="round" stroke-linejoin="round" stroke-width="2.0"/>
  </g>
  <defs>
    <linearGradient gradientTransform="matrix(0.0056, 0.0316, -0.0316, 0.0056, 35.75, 28.55)" gradientUnits="userSpaceOnUse" id="gradient0" spreadMethod="pad" x1="-819.2" x2="819.2">
      <stop offset="0.0" stop-color="#99cc00"/>
      <stop offset="0.9921568627450981" stop-color="#618200"/>
    </linearGradient>
  </defs>
</svg>
