<?xml version="1.0" encoding="UTF-8" standalone="no"?>
<svg xmlns:xlink="http://www.w3.org/1999/xlink" height="16.0px" width="11.4px" xmlns="http://www.w3.org/2000/svg">
  <g transform="matrix(1, 0, 0, 1, 0.0, -1.0)">
    <path d="M7.85 1.55 L9.45 3.0 9.75 3.35 Q11.4 5.15 11.4 9.0 11.4 12.85 9.75 14.65 L8.8 15.85 8.75 15.9 7.55 16.65 5.5 17.0 Q4.15 17.0 3.3 16.45 L2.6 15.85 1.55 14.65 0.35 12.75 Q0.1 11.95 0.0 10.35 L0.0 10.05 Q0.0 8.55 0.6 7.5 L2.25 5.5 3.5 3.0 3.65 2.65 Q4.35 1.0 5.5 1.0 6.85 1.0 7.85 1.55" fill="url(#gradient0)" fill-rule="evenodd" stroke="none"/>
  </g>
  <defs>
    <radialGradient cx="0" cy="0" gradientTransform="matrix(-0.0076, -0.005, 0.0062, -0.0123, 4.25, 8.05)" gradientUnits="userSpaceOnUse" id="gradient0" r="819.2" spreadMethod="pad">
      <stop offset="0.0" stop-color="#000000" stop-opacity="0.0"/>
      <stop offset="1.0" stop-color="#000000" stop-opacity="0.4"/>
    </radialGradient>
  </defs>
</svg>
