<?xml version="1.0" encoding="UTF-8" standalone="no"?>
<svg xmlns:xlink="http://www.w3.org/1999/xlink" height="30.85px" width="309.05px" xmlns="http://www.w3.org/2000/svg">
  <g transform="matrix(1, 0, 0, 1, -157.45, -361.3)">
    <path d="M355.95 361.65 L365.85 391.75 357.0 391.75 355.5 386.15 345.75 386.15 344.25 391.75 335.35 391.75 345.15 361.65 355.95 361.65 M350.6 366.6 L349.85 370.05 347.45 379.5 353.85 379.5 352.55 374.55 351.45 370.3 350.6 366.6 M326.65 376.7 Q326.65 372.25 325.15 370.1 323.65 367.95 320.65 367.95 314.55 367.95 314.55 376.7 314.55 385.4 320.6 385.4 323.7 385.4 325.2 383.3 326.65 381.2 326.65 376.7 M331.5 388.2 Q327.75 392.15 320.6 392.15 313.55 392.15 309.8 388.2 306.05 384.25 306.05 376.7 306.05 369.2 309.8 365.25 313.5 361.3 320.65 361.3 327.8 361.3 331.5 365.2 335.2 369.15 335.2 376.7 335.2 384.3 331.5 388.2 M404.05 361.75 L404.05 391.75 395.9 391.75 395.9 361.75 404.05 361.75 M377.45 361.75 Q384.7 361.75 388.6 365.45 392.55 369.15 392.55 376.1 392.55 383.65 388.4 387.7 384.3 391.75 376.8 391.75 L367.1 391.75 367.1 361.75 377.45 361.75 M375.2 368.3 L375.2 385.1 377.0 385.1 Q380.7 385.1 382.4 382.95 384.15 380.8 384.15 376.4 384.15 372.3 382.5 370.3 380.85 368.3 377.55 368.3 L375.2 368.3 M437.05 361.75 L437.05 391.75 426.4 391.75 415.45 370.65 415.3 370.65 415.65 378.25 415.65 391.75 408.5 391.75 408.5 361.75 419.05 361.75 430.0 382.6 430.1 382.6 Q429.8 378.05 429.8 375.3 L429.8 361.75 437.05 361.75 M440.45 376.7 Q440.45 369.4 444.6 365.4 448.7 361.35 456.2 361.35 L461.55 361.85 465.9 363.2 463.35 369.6 Q460.1 368.0 456.2 368.0 452.7 368.0 450.75 370.3 448.8 372.6 448.8 376.9 448.8 381.1 450.55 383.3 452.3 385.5 455.6 385.5 L458.95 385.15 458.95 380.45 453.6 380.45 453.6 374.2 466.5 374.2 466.5 390.35 Q461.25 392.15 454.95 392.15 448.0 392.15 444.25 388.15 440.45 384.1 440.45 376.7 M161.6 365.4 Q165.7 361.35 173.2 361.35 L178.55 361.85 Q181.05 362.4 182.9 363.2 L180.35 369.6 Q177.1 368.0 173.2 368.0 169.7 368.0 167.75 370.3 165.8 372.6 165.8 376.9 165.8 381.1 167.55 383.3 169.3 385.5 172.6 385.5 L175.95 385.15 175.95 380.45 170.6 380.45 170.6 374.2 183.5 374.2 183.5 390.35 Q178.25 392.15 171.95 392.15 165.0 392.15 161.25 388.15 157.45 384.1 157.45 376.7 157.45 369.4 161.6 365.4 M198.9 370.05 L196.5 379.5 202.9 379.5 201.6 374.55 200.5 370.3 199.65 366.6 198.9 370.05 M184.4 391.75 L194.2 361.65 205.0 361.65 214.9 391.75 206.05 391.75 204.55 386.15 194.8 386.15 193.3 391.75 184.4 391.75 M222.9 370.15 L223.3 378.75 223.3 391.75 216.15 391.75 216.15 361.75 226.95 361.75 233.2 383.05 233.35 383.05 239.5 361.75 250.3 361.75 250.3 391.75 242.85 391.75 242.85 378.6 242.9 376.35 243.15 370.2 242.95 370.2 236.9 391.75 229.2 391.75 223.05 370.15 222.9 370.15 M272.55 368.25 L262.85 368.25 262.85 373.0 271.8 373.0 271.8 379.5 262.85 379.5 262.85 385.15 272.55 385.15 272.55 391.75 254.75 391.75 254.75 361.75 272.55 361.75 272.55 368.25 M292.8 361.75 L292.8 385.2 304.35 385.2 304.35 391.75 284.7 391.75 284.7 361.75 292.8 361.75" fill="url(#gradient0)" fill-rule="evenodd" stroke="none"/>
  </g>
  <defs>
    <linearGradient gradientTransform="matrix(0.0, -0.0189, 0.0184, 0.0, 228.25, 376.7)" gradientUnits="userSpaceOnUse" id="gradient0" spreadMethod="pad" x1="-819.2" x2="819.2">
      <stop offset="0.0" stop-color="#cccccc"/>
      <stop offset="1.0" stop-color="#ffffff"/>
    </linearGradient>
  </defs>
</svg>
