<?xml version="1.0" encoding="UTF-8" standalone="no"?>
<svg xmlns:xlink="http://www.w3.org/1999/xlink" height="20.0px" width="20.0px" xmlns="http://www.w3.org/2000/svg">
  <g transform="matrix(1, 0, 0, 1, 0.0, 0.0)">
    <path d="M17.05 0.0 Q18.3 0.1 19.15 1.0 20.0 1.95 20.0 3.2 L20.0 16.75 Q20.0 18.1 19.1 19.05 18.15 20.0 16.85 20.0 L3.0 19.95 Q1.75 19.9 0.9 18.95 0.0 18.0 0.0 16.75 L0.0 3.2 Q0.0 1.85 0.95 0.95 1.9 0.0 3.2 0.0 L17.05 0.0" fill="url(#gradient0)" fill-rule="evenodd" stroke="none"/>
    <path d="M7.95 3.0 L11.95 3.0 11.95 17.0 7.95 17.0 7.95 3.0" fill="url(#gradient1)" fill-rule="evenodd" stroke="none"/>
    <path d="M16.95 12.0 L2.95 12.0 2.95 8.0 16.95 8.0 16.95 12.0" fill="url(#gradient2)" fill-rule="evenodd" stroke="none"/>
    <path d="M19.15 1.0 Q20.0 1.95 20.0 3.2 L20.0 16.75 Q20.0 18.1 19.1 19.05 18.15 20.0 16.85 20.0 L3.0 19.95 Q1.75 19.9 0.9 18.95 0.0 18.0 0.0 16.75 L0.0 3.2 Q0.0 1.85 0.95 0.95 1.9 0.0 3.2 0.0 L17.05 0.0 Q18.3 0.1 19.15 1.0" fill="#ffffff" fill-opacity="0.4" fill-rule="evenodd" stroke="none"/>
  </g>
  <defs>
    <linearGradient gradientTransform="matrix(0.0, 0.0128, -0.0128, 0.0, 11.95, 10.5)" gradientUnits="userSpaceOnUse" id="gradient0" spreadMethod="pad" x1="-819.2" x2="819.2">
      <stop offset="0.0" stop-color="#0099ff"/>
      <stop offset="0.9921568627450981" stop-color="#005086"/>
    </linearGradient>
    <linearGradient gradientTransform="matrix(0.0024, 0.0, 0.0, 0.0024, 9.95, 9.5)" gradientUnits="userSpaceOnUse" id="gradient1" spreadMethod="pad" x1="-819.2" x2="819.2">
      <stop offset="0.0" stop-color="#ffffff"/>
      <stop offset="0.9882352941176471" stop-color="#ffffff"/>
    </linearGradient>
    <linearGradient gradientTransform="matrix(0.0024, 0.0, 0.0, 0.0024, 4.95, 14.5)" gradientUnits="userSpaceOnUse" id="gradient2" spreadMethod="pad" x1="-819.2" x2="819.2">
      <stop offset="0.0" stop-color="#ffffff"/>
      <stop offset="0.9882352941176471" stop-color="#ffffff"/>
    </linearGradient>
  </defs>
</svg>
