<?xml version="1.0" encoding="UTF-8" standalone="no"?>
<svg xmlns:xlink="http://www.w3.org/1999/xlink" height="57.0px" width="57.0px" xmlns="http://www.w3.org/2000/svg">
  <g transform="matrix(1, 0, 0, 1, 0.5, 0.5)">
    <path d="M55.5 2.75 Q55.5 1.85 54.8 1.2 54.1 0.5 53.2 0.5 L2.75 0.5 Q1.85 0.5 1.2 1.2 0.5 1.85 0.5 2.75 L0.5 53.2 Q0.5 54.1 1.2 54.8 1.85 55.5 2.75 55.5 L53.2 55.5 Q54.1 55.5 54.8 54.8 55.5 54.1 55.5 53.2 L55.5 2.75 M53.2 -0.5 Q54.5 -0.5 55.5 0.45 56.5 1.45 56.5 2.75 L56.5 53.2 Q56.5 54.5 55.5 55.5 54.5 56.5 53.2 56.5 L2.75 56.5 Q1.45 56.5 0.45 55.5 -0.5 54.5 -0.5 53.2 L-0.5 2.75 Q-0.5 1.45 0.45 0.45 1.45 -0.5 2.75 -0.5 L53.2 -0.5" fill="#000000" fill-rule="evenodd" stroke="none"/>
  </g>
</svg>
