<?xml version="1.0" encoding="UTF-8" standalone="no"?>
<svg xmlns:xlink="http://www.w3.org/1999/xlink" height="57.0px" width="57.0px" xmlns="http://www.w3.org/2000/svg">
  <g transform="matrix(1, 0, 0, 1, 0.5, 0.5)">
    <path d="M55.5 2.75 Q55.5 1.85 54.8 1.2 54.1 0.5 53.2 0.5 L2.75 0.5 Q1.85 0.5 1.2 1.2 0.5 1.85 0.5 2.75 L0.5 53.2 Q0.5 54.1 1.2 54.8 1.85 55.5 2.75 55.5 L53.2 55.5 Q54.1 55.5 54.8 54.8 55.5 54.1 55.5 53.2 L55.5 2.75 M53.2 -0.5 Q54.5 -0.5 55.5 0.45 56.5 1.45 56.5 2.75 L56.5 53.2 Q56.5 54.5 55.5 55.5 54.5 56.5 53.2 56.5 L2.75 56.5 Q1.45 56.5 0.45 55.5 -0.5 54.5 -0.5 53.2 L-0.5 2.75 Q-0.5 1.45 0.45 0.45 1.45 -0.5 2.75 -0.5 L53.2 -0.5" fill="#000000" fill-rule="evenodd" stroke="none"/>
    <path d="M53.15 0.0 Q54.3 0.0 55.15 0.8 56.0 1.65 56.0 2.8 L56.0 53.15 Q56.0 54.3 55.15 55.15 54.3 56.0 53.15 56.0 L2.8 56.0 Q1.65 56.0 0.8 55.15 0.0 54.3 0.0 53.15 L0.0 2.8 Q0.0 1.65 0.8 0.8 1.65 0.0 2.8 0.0 L53.15 0.0" fill="url(#gradient0)" fill-rule="evenodd" stroke="none"/>
  </g>
  <defs>
    <linearGradient gradientTransform="matrix(0.0, 0.0342, -0.0342, 0.0, 25.0, 28.0)" gradientUnits="userSpaceOnUse" id="gradient0" spreadMethod="pad" x1="-819.2" x2="819.2">
      <stop offset="0.0" stop-color="#ffffff"/>
      <stop offset="0.7764705882352941" stop-color="#c0c0c0"/>
      <stop offset="0.9921568627450981" stop-color="#e7e7e7"/>
    </linearGradient>
  </defs>
</svg>
