<?xml version="1.0" encoding="UTF-8" standalone="no"?>
<svg xmlns:xlink="http://www.w3.org/1999/xlink" height="8.0px" width="38.1px" xmlns="http://www.w3.org/2000/svg">
  <g transform="matrix(1, 0, 0, 1, -14.9, -45.0)">
    <path d="M52.7 45.25 L53.0 45.95 53.0 52.0 52.7 52.7 52.0 53.0 45.95 53.0 Q45.55 53.0 45.25 52.7 L45.0 52.0 52.0 45.0 52.7 45.25" fill="#333333" fill-rule="evenodd" stroke="none"/>
    <path d="M14.9 48.8 Q14.9 47.35 18.65 46.3 22.4 45.3 27.65 45.3 32.95 45.3 36.65 46.3 40.4 47.35 40.4 48.8 40.4 50.25 36.65 51.3 32.95 52.3 27.65 52.3 22.4 52.3 18.65 51.3 14.9 50.25 14.9 48.8" fill="url(#gradient0)" fill-rule="evenodd" stroke="none"/>
  </g>
  <defs>
    <radialGradient cx="0" cy="0" gradientTransform="matrix(0.0156, 0.0, 0.0, -0.0043, 27.65, 48.8)" gradientUnits="userSpaceOnUse" id="gradient0" r="819.2" spreadMethod="pad">
      <stop offset="0.0" stop-color="#000000" stop-opacity="0.49803922"/>
      <stop offset="0.9882352941176471" stop-color="#000000" stop-opacity="0.0"/>
    </radialGradient>
  </defs>
</svg>
