<?xml version="1.0" encoding="UTF-8" standalone="no"?>
<svg xmlns:xlink="http://www.w3.org/1999/xlink" height="7.55px" width="11.55px" xmlns="http://www.w3.org/2000/svg">
  <g transform="matrix(1, 0, 0, 1, 0.75, 1.75)">
    <path d="M6.1 -0.2 L5.5 0.05 4.3 1.2 4.3 1.25 Q2.9 2.35 1.9 2.45 L1.05 2.65 1.05 2.75 0.95 3.25 0.65 3.55 0.8 3.65 0.8 3.7 0.95 3.95 1.95 4.05 6.25 4.3 9.25 4.05 9.3 3.4 9.15 3.0 8.95 0.3 8.0 0.25 7.95 0.25 6.4 -0.2 6.1 -0.2 M4.55 -1.05 L4.6 -1.15 5.8 -1.65 5.85 -1.7 7.25 -1.45 8.2 -1.25 8.6 -1.05 Q9.1 -1.75 9.85 -1.05 L10.35 -0.35 10.45 -0.05 10.65 2.5 10.75 2.7 10.8 3.0 10.75 4.15 Q10.85 5.8 6.25 5.8 L1.85 5.55 0.5 5.35 0.45 5.35 Q-0.5 5.05 -0.7 3.95 L-0.65 3.95 Q-0.9 2.85 -0.45 2.4 -0.35 1.85 0.15 1.5 0.65 1.05 1.7 0.95 2.35 0.85 3.3 0.1 L3.35 0.1 4.55 -1.05" fill="#19060a" fill-rule="evenodd" stroke="none"/>
    <path d="M8.05 3.8 L9.9 2.95 9.95 2.95 10.05 2.95 10.0 4.1 Q9.95 5.05 6.25 5.05 L1.9 4.8 0.7 4.65 Q0.15 4.45 0.05 3.8 -0.05 3.15 0.2 2.9 L0.3 2.85 0.8 2.95 2.55 3.65 8.05 3.8" fill="#999999" fill-rule="evenodd" stroke="none"/>
  </g>
</svg>
