<?xml version="1.0" encoding="UTF-8" standalone="no"?>
<svg xmlns:xlink="http://www.w3.org/1999/xlink" height="28.0px" width="26.0px" xmlns="http://www.w3.org/2000/svg">
  <g transform="matrix(1, 0, 0, 1, 0.0, 0.0)">
    <path d="M22.5 4.05 L22.6 4.15 22.75 4.3 Q23.8 5.5 24.5 6.9 25.25 8.25 25.65 9.8 26.0 11.3 26.0 12.9 26.0 14.7 25.55 16.4 L25.25 17.3 25.0 18.0 24.5 19.0 24.45 19.05 24.25 19.45 24.2 19.55 24.05 19.8 24.0 19.85 23.8 20.2 Q22.3 22.4 20.2 24.05 18.15 25.75 15.7 26.7 13.3 27.7 10.7 27.95 L9.45 28.0 7.0 27.75 5.15 27.05 Q4.4 26.6 4.1 25.95 L3.2 23.9 1.85 22.3 Q1.0 21.05 0.55 19.3 0.05 17.55 0.0 15.45 L0.0 14.95 0.0 14.65 0.0 14.35 0.0 14.2 0.0 14.05 Q0.05 12.4 0.35 11.05 0.6 9.65 1.05 8.55 1.7 7.05 2.65 5.95 L3.4 5.0 4.4 3.85 4.4 3.7 4.6 3.45 4.95 3.0 5.95 2.15 7.55 1.15 Q8.5 0.65 9.8 0.35 L12.75 0.0 15.25 0.2 16.05 0.35 16.1 0.4 16.55 0.5 17.8 0.9 19.2 1.5 20.65 2.45 21.0 2.7 21.05 2.7 21.05 2.75 22.5 4.05" fill="#19060b" fill-rule="evenodd" stroke="none"/>
  </g>
</svg>
