<?xml version="1.0" encoding="UTF-8" standalone="no"?>
<svg xmlns:xlink="http://www.w3.org/1999/xlink" height="26.6px" width="24.65px" xmlns="http://www.w3.org/2000/svg">
  <g transform="matrix(1, 0, 0, 1, 11.25, 15.35)">
    <path d="M-6.85 -12.15 L-6.2 -12.3 -4.6 -12.55 -2.3 -12.5 Q-1.05 -12.35 0.25 -11.75 L0.3 -10.85 Q0.15 -10.9 -0.05 -11.0 L-1.05 -11.35 -1.35 -11.45 -2.0 -11.6 -2.5 -11.7 -2.65 -11.7 -3.8 -11.8 -4.45 -11.75 -6.05 -11.5 -6.65 -11.35 -6.65 -11.45 -6.85 -12.15 M0.4 -10.6 L1.95 -9.8 2.3 -9.6 3.15 -10.15 5.85 -11.2 8.3 -11.5 10.15 -11.3 10.25 -11.25 10.35 -11.15 9.75 -11.25 9.2 -11.25 6.55 -10.95 Q5.15 -10.65 3.7 -9.85 L2.85 -9.3 4.65 -8.05 6.8 -6.1 7.75 -4.95 8.55 -3.6 9.1 -2.1 9.85 -3.0 Q10.35 -3.35 10.95 -3.35 L12.0 -2.95 12.7 -1.85 13.0 -0.15 12.95 0.25 12.7 0.9 12.5 1.3 12.5 1.35 11.45 2.55 10.25 3.4 10.0 3.5 9.3 3.7 9.25 3.7 8.75 3.5 8.7 3.4 8.65 3.4 8.65 3.3 8.55 3.1 8.5 2.4 8.55 1.4 6.9 3.85 4.55 5.9 Q3.25 6.85 1.8 7.5 0.35 8.2 -1.1 8.55 L-2.0 8.75 -1.6 10.0 -1.05 11.25 -1.15 11.25 -1.45 11.25 -1.7 10.65 -2.35 8.95 -2.4 8.8 -3.8 8.9 Q-5.7 8.9 -7.15 8.15 -8.6 7.4 -9.55 5.9 L-9.75 5.6 -10.8 3.1 -10.85 2.85 -11.25 -0.3 -11.25 -0.55 -11.25 -0.95 -11.25 -1.05 -11.25 -1.35 -11.25 -1.45 -11.25 -1.55 -11.25 -1.85 -11.25 -1.95 -11.2 -2.9 -11.15 -3.4 -11.15 -3.5 -10.9 -5.0 -10.9 -5.05 -10.85 -5.4 -10.8 -5.5 -10.4 -6.75 -10.3 -7.0 -10.25 -7.2 Q-9.65 -8.65 -8.7 -9.6 L-7.75 -10.4 Q-6.15 -11.5 -3.9 -11.55 L-3.0 -11.5 -1.25 -11.15 -0.05 -10.75 0.35 -10.55 0.4 -10.6" fill="#000000" fill-opacity="0.44705883" fill-rule="evenodd" stroke="none"/>
    <path d="M10.35 -11.15 Q11.75 -9.55 12.55 -7.55 13.4 -5.45 13.4 -3.1 13.4 -1.35 12.95 0.25 L13.0 -0.15 12.7 -1.85 12.0 -2.95 10.95 -3.35 Q10.35 -3.35 9.85 -3.0 L9.1 -2.1 8.55 -3.6 7.75 -4.95 6.8 -6.1 4.65 -8.05 2.85 -9.3 3.7 -9.85 Q5.15 -10.65 6.55 -10.95 L9.2 -11.25 9.75 -11.25 10.35 -11.15 M12.7 0.9 L12.65 1.05 11.7 3.1 11.5 3.4 11.25 3.8 8.45 7.05 Q6.9 8.4 5.25 9.3 3.55 10.15 1.9 10.65 L-1.05 11.25 -1.6 10.0 -2.0 8.75 -1.1 8.55 Q0.35 8.2 1.8 7.5 3.25 6.85 4.55 5.9 L6.9 3.85 8.55 1.4 8.5 2.4 8.55 3.1 Q8.55 3.6 8.7 3.9 8.85 4.2 9.3 4.2 L10.1 4.05 11.05 3.5 11.95 2.6 12.45 1.45 12.5 1.35 12.5 1.3 12.7 0.9 M8.65 3.4 L8.55 3.1 8.65 3.3 8.65 3.4" fill="#000000" fill-opacity="0.2" fill-rule="evenodd" stroke="none"/>
    <path d="M-6.85 -12.15 L-6.55 -12.45 -5.75 -13.15 -4.4 -14.05 -2.45 -14.85 0.1 -15.3 3.2 -15.1 4.45 -14.85 5.65 -14.45 6.95 -13.85 8.3 -13.0 7.75 -13.15 6.25 -13.3 4.3 -13.2 Q3.25 -13.0 2.2 -12.45 L1.45 -12.0 0.3 -10.85 0.25 -11.75 Q-1.05 -12.35 -2.3 -12.5 L-4.6 -12.55 -6.2 -12.3 -6.85 -12.15" fill="#000000" fill-opacity="0.08627451" fill-rule="evenodd" stroke="none"/>
    <path d="M12.5 1.35 L12.45 1.45 11.95 2.6 11.05 3.5 10.1 4.05 9.3 4.2 Q8.85 4.2 8.7 3.9 8.55 3.6 8.55 3.1 L8.65 3.4 8.7 3.4 8.75 3.5 9.25 3.7 9.3 3.7 10.0 3.5 10.25 3.4 11.45 2.55 12.5 1.35" fill="#000000" fill-opacity="0.6" fill-rule="evenodd" stroke="none"/>
    <path d="M0.3 -10.85 L1.45 -12.0 1.75 -12.15 3.45 -12.9 5.2 -13.2 6.75 -13.2 7.85 -13.05 8.3 -13.0 8.65 -12.7 8.25 -12.8 7.15 -12.95 5.6 -13.0 3.85 -12.75 2.0 -12.0 0.4 -10.6 0.35 -10.55 -0.05 -10.75 -1.25 -11.15 -3.0 -11.5 -3.9 -11.55 -4.9 -11.55 -6.9 -11.05 -6.65 -11.45 -6.65 -11.35 -6.05 -11.5 -4.45 -11.75 -3.8 -11.8 -2.65 -11.7 -2.5 -11.7 -2.0 -11.6 -1.35 -11.45 -1.05 -11.35 -0.05 -11.0 Q0.15 -10.9 0.3 -10.85" fill="#000000" fill-opacity="0.24705882" fill-rule="evenodd" stroke="none"/>
    <path d="M3.95 -7.5 Q5.25 -6.55 6.25 -5.45 L7.9 -3.3 Q8.45 -2.2 8.4 -1.2 8.35 0.05 7.8 1.2 L6.15 3.45 3.9 5.35 1.15 6.85 -1.65 7.8 -4.3 8.15 Q-6.15 8.15 -7.45 7.45 -8.8 6.75 -9.65 5.5 -10.45 4.25 -10.85 2.55 -11.25 0.9 -11.25 -1.05 L-11.2 -2.7 -10.95 -4.75 -10.25 -6.9 Q-9.85 -7.95 -9.05 -8.85 -8.35 -9.7 -7.15 -10.2 L-4.35 -10.8 -1.65 -10.4 Q-0.25 -9.95 1.25 -9.2 L3.95 -7.5" fill="url(#gradient0)" fill-rule="evenodd" stroke="none"/>
    <path d="M3.95 -7.5 Q5.25 -6.55 6.25 -5.45 L7.9 -3.3 Q8.45 -2.2 8.4 -1.2 8.35 0.05 7.8 1.2 L6.15 3.45 3.9 5.35 1.15 6.85 -1.65 7.8 -4.3 8.15 -7.05 7.65 Q-8.25 7.15 -9.05 6.2 -7.65 7.05 -5.65 7.05 L-3.0 6.7 -0.2 5.7 2.45 4.2 4.8 2.3 6.35 0.1 Q7.0 -1.1 7.05 -2.35 L6.7 -4.0 5.6 -5.8 3.95 -7.5" fill="#000000" fill-opacity="0.7058824" fill-rule="evenodd" stroke="none"/>
    <path d="M2.6 -6.95 L0.25 -7.6 -1.85 -7.85 -1.95 -7.85 Q-4.45 -7.8 -6.15 -6.75 -7.85 -5.7 -8.85 -3.6 L-9.55 -1.6 -9.9 0.45 -10.05 2.4 Q-10.6 0.7 -10.6 -1.45 L-10.55 -3.1 -10.25 -4.95 -9.65 -6.85 Q-8.9 -8.45 -7.6 -9.25 -6.3 -10.05 -4.45 -10.05 L-4.35 -10.05 -2.15 -9.75 0.3 -8.9 2.75 -7.6 4.95 -5.95 2.6 -6.95" fill="url(#gradient1)" fill-rule="evenodd" stroke="none"/>
    <path d="M8.9 -1.1 L9.6 -2.2 Q10.1 -2.7 10.7 -2.85 L11.55 -2.65 Q11.95 -2.3 11.8 -1.75 L11.15 -0.6 Q10.65 -0.1 10.05 0.05 9.45 0.15 9.15 -0.15 8.8 -0.5 8.9 -1.1" fill="#ffffff" fill-opacity="0.24705882" fill-rule="evenodd" stroke="none"/>
    <path d="M3.4 -12.9 L1.75 -12.2 0.3 -10.85 0.25 -11.75 0.45 -12.0 1.05 -12.5 2.1 -13.1 3.6 -13.5 5.65 -13.55 7.8 -13.1 7.75 -13.1 6.65 -13.2 5.15 -13.2 3.4 -12.9" fill="url(#gradient2)" fill-rule="evenodd" stroke="none"/>
    <path d="M9.3 -11.8 L9.5 -11.55 8.35 -11.6 Q5.45 -11.6 3.05 -10.25 L2.4 -9.9 2.2 -10.05 2.95 -10.5 Q5.4 -11.85 8.35 -11.85 L9.3 -11.8" fill="url(#gradient3)" fill-rule="evenodd" stroke="none"/>
    <path d="M-7.2 9.25 L-7.5 8.65 -7.75 8.1 -7.8 7.9 -6.75 9.35 -5.4 10.25 -4.15 10.8 -3.15 11.0 -2.95 11.05 -4.8 10.75 -6.1 10.3 -6.85 9.75 -7.2 9.25" fill="url(#gradient4)" fill-rule="evenodd" stroke="none"/>
    <path d="M-1.95 11.0 L-2.3 10.2 -2.75 9.05 -2.45 9.0 -2.05 10.25 -1.7 11.0 -1.95 11.0" fill="url(#gradient5)" fill-rule="evenodd" stroke="none"/>
  </g>
  <defs>
    <linearGradient gradientTransform="matrix(0.0, 0.0044, -0.0044, 0.0, -1.45, -2.55)" gradientUnits="userSpaceOnUse" id="gradient0" spreadMethod="pad" x1="-819.2" x2="819.2">
      <stop offset="0.0" stop-color="#000000"/>
      <stop offset="1.0" stop-color="#272727"/>
    </linearGradient>
    <radialGradient cx="0" cy="0" gradientTransform="matrix(0.0173, 0.0, 0.0, 0.0186, -8.85, -19.7)" gradientUnits="userSpaceOnUse" id="gradient1" r="819.2" spreadMethod="pad">
      <stop offset="0.17254901960784313" stop-color="#ffffff" stop-opacity="0.49803922"/>
      <stop offset="0.6470588235294118" stop-color="#ffffff" stop-opacity="0.47843137"/>
      <stop offset="1.0" stop-color="#ffffff" stop-opacity="0.06666667"/>
    </radialGradient>
    <radialGradient cx="0" cy="0" gradientTransform="matrix(0.0246, 0.0, 0.0, 0.0249, 13.15, -27.3)" gradientUnits="userSpaceOnUse" id="gradient2" r="819.2" spreadMethod="pad">
      <stop offset="0.17254901960784313" stop-color="#ffffff" stop-opacity="0.2"/>
      <stop offset="0.6470588235294118" stop-color="#ffffff" stop-opacity="0.08627451"/>
      <stop offset="1.0" stop-color="#ffffff" stop-opacity="0.02745098"/>
    </radialGradient>
    <radialGradient cx="0" cy="0" gradientTransform="matrix(0.0056, 0.0, 0.0, 0.0056, 3.2, -14.35)" gradientUnits="userSpaceOnUse" id="gradient3" r="819.2" spreadMethod="pad">
      <stop offset="0.17254901960784313" stop-color="#ffffff" stop-opacity="0.49803922"/>
      <stop offset="0.6470588235294118" stop-color="#ffffff" stop-opacity="0.47843137"/>
      <stop offset="1.0" stop-color="#ffffff" stop-opacity="0.06666667"/>
    </radialGradient>
    <radialGradient cx="0" cy="0" gradientTransform="matrix(0.0117, 0.0, 0.0, 0.0118, -12.2, 3.5)" gradientUnits="userSpaceOnUse" id="gradient4" r="819.2" spreadMethod="pad">
      <stop offset="0.17254901960784313" stop-color="#ffffff" stop-opacity="0.69411767"/>
      <stop offset="0.6470588235294118" stop-color="#ffffff" stop-opacity="0.6509804"/>
      <stop offset="1.0" stop-color="#ffffff" stop-opacity="0.08627451"/>
    </radialGradient>
    <radialGradient cx="0" cy="0" gradientTransform="matrix(0.0064, 0.0, 0.0, 0.0065, -6.15, 7.85)" gradientUnits="userSpaceOnUse" id="gradient5" r="819.2" spreadMethod="pad">
      <stop offset="0.17254901960784313" stop-color="#ffffff" stop-opacity="0.6509804"/>
      <stop offset="0.6470588235294118" stop-color="#ffffff" stop-opacity="0.6"/>
      <stop offset="1.0" stop-color="#ffffff" stop-opacity="0.047058824"/>
    </radialGradient>
  </defs>
</svg>
