<?xml version="1.0" encoding="UTF-8" standalone="no"?>
<svg xmlns:xlink="http://www.w3.org/1999/xlink" height="30.0px" width="27.45px" xmlns="http://www.w3.org/2000/svg">
  <g transform="matrix(1, 0, 0, 1, 13.7, 15.0)">
    <path d="M7.1 -7.1 Q10.0 -4.15 10.0 0.0 10.0 1.7 9.5 3.25 8.8 5.35 7.1 7.1 4.1 10.0 0.0 10.0 -4.1 10.0 -7.05 7.1 -8.75 5.35 -9.45 3.25 -10.0 1.7 -10.0 0.0 -10.0 -4.15 -7.05 -7.1 -4.1 -10.0 0.0 -10.0 4.1 -10.0 7.1 -7.1" fill="none" stroke="#0e0e0e" stroke-linecap="round" stroke-linejoin="round" stroke-width="2.0"/>
    <path d="M-3.0 -9.0 L-3.0 -12.0 Q-3.0 -12.85 -2.15 -13.45 -1.25 -14.0 0.0 -14.0 1.25 -14.0 2.1 -13.45 3.0 -12.85 3.0 -12.0 L3.0 -9.0 M6.3 -7.1 L8.9 -8.6 Q9.65 -9.0 10.6 -8.6 11.5 -8.1 12.1 -7.0 12.75 -5.95 12.7 -4.9 12.65 -3.85 11.9 -3.45 L9.3 -1.95 M-9.3 -1.95 L-11.9 -3.45 Q-12.65 -3.85 -12.7 -4.85 -12.7 -5.95 -12.1 -7.05 -11.45 -8.1 -10.6 -8.55 L-8.9 -8.6 -6.3 -7.1 M-6.3 7.05 L-8.9 8.55 -10.55 8.6 -12.1 6.95 Q-12.7 5.9 -12.7 4.9 -12.65 3.85 -11.9 3.4 L-9.3 1.9 M3.0 9.0 L3.0 12.0 Q3.0 12.85 2.15 13.45 1.25 14.0 0.0 14.0 -1.25 14.0 -2.1 13.45 -3.0 12.85 -3.0 12.0 L-3.0 9.0 M9.3 1.9 L11.9 3.4 Q12.65 3.85 12.75 4.85 12.75 5.9 12.1 7.0 11.5 8.05 10.6 8.55 9.65 9.0 8.9 8.55 L6.3 7.05" fill="none" stroke="#0e0e0e" stroke-linecap="round" stroke-linejoin="round" stroke-width="2.0"/>
    <path d="M3.0 12.0 L-3.0 12.0 -3.0 9.0 3.0 9.0 3.0 12.0" fill="url(#gradient0)" fill-rule="evenodd" stroke="none"/>
    <path d="M3.0 12.0 Q3.0 12.85 2.1 13.45 1.25 14.0 0.0 14.0 -1.25 14.0 -2.15 13.45 -3.0 12.85 -3.0 12.0 L3.0 12.0" fill="url(#gradient1)" fill-rule="evenodd" stroke="none"/>
    <path d="M8.9 -8.6 Q9.65 -9.0 10.6 -8.6 11.5 -8.1 12.1 -7.0 12.75 -5.95 12.7 -4.9 12.65 -3.85 11.9 -3.45 L8.9 -8.6" fill="url(#gradient2)" fill-rule="evenodd" stroke="none"/>
    <path d="M11.9 -3.45 L9.3 -1.95 6.3 -7.1 8.9 -8.6 11.9 -3.45" fill="url(#gradient3)" fill-rule="evenodd" stroke="none"/>
    <path d="M-11.9 -3.5 L-8.95 -8.7 -6.35 -7.2 -9.3 -2.0 -11.9 -3.5" fill="url(#gradient4)" fill-rule="evenodd" stroke="none"/>
    <path d="M-11.9 -3.5 Q-12.65 -3.95 -12.75 -4.95 L-12.15 -7.05 -10.6 -8.6 -8.95 -8.7 -11.9 -3.5" fill="url(#gradient5)" fill-rule="evenodd" stroke="none"/>
    <path d="M10.7 -2.75 Q10.0 -5.6 7.8 -7.8 L7.7 -7.9 8.9 -8.6 Q9.65 -9.0 10.6 -8.6 11.5 -8.1 12.1 -7.0 12.75 -5.95 12.7 -4.9 12.65 -3.85 11.9 -3.45 L10.7 -2.75 M3.0 10.6 L3.0 12.0 Q3.0 12.85 2.1 13.45 1.25 14.0 0.0 14.0 -1.25 14.0 -2.15 13.45 -3.0 12.85 -3.0 12.0 L-3.0 10.6 0.0 11.0 3.0 10.6 M-10.65 -2.75 L-11.9 -3.5 Q-12.65 -3.95 -12.75 -4.95 L-12.15 -7.05 -10.6 -8.6 -8.95 -8.7 -7.6 -7.9 -7.75 -7.8 Q-9.95 -5.6 -10.65 -2.75" fill="#0e0e0e" fill-opacity="0.49803922" fill-rule="evenodd" stroke="none"/>
    <path d="M7.7 -7.9 L7.8 -7.8 Q10.0 -5.6 10.7 -2.75 L9.3 -1.95 6.3 -7.1 7.7 -7.9 M-3.0 10.6 L-3.0 9.0 3.0 9.0 3.0 10.6 0.0 11.0 -3.0 10.6 M-10.65 -2.75 Q-9.95 -5.6 -7.75 -7.8 L-7.6 -7.9 -6.35 -7.2 -9.3 -2.0 -10.65 -2.75" fill="#0e0e0e" fill-opacity="0.69411767" fill-rule="evenodd" stroke="none"/>
    <path d="M7.1 -7.1 Q10.0 -4.15 10.0 0.0 10.0 1.7 9.5 3.25 8.8 5.35 7.1 7.1 4.1 10.0 0.0 10.0 -4.1 10.0 -7.05 7.1 -8.75 5.35 -9.45 3.25 -10.0 1.7 -10.0 0.0 -10.0 -4.15 -7.05 -7.1 -4.1 -10.0 0.0 -10.0 4.1 -10.0 7.1 -7.1" fill="url(#gradient6)" fill-rule="evenodd" stroke="none"/>
    <path d="M2.8 -2.9 Q4.0 -1.7 4.0 0.0 4.0 1.6 2.8 2.8 1.7 4.0 0.0 4.0 -1.65 4.0 -2.8 2.8 -4.0 1.6 -4.0 0.0 -4.0 -1.7 -2.8 -2.9 -1.65 -4.0 0.0 -4.0 1.7 -4.0 2.8 -2.9" fill="#990000" fill-rule="evenodd" stroke="none"/>
    <path d="M2.0 -0.5 Q2.0 0.5 1.25 1.25 0.55 2.0 -0.5 2.0 -1.55 2.0 -2.25 1.25 -3.0 0.5 -3.0 -0.5 -3.0 -1.55 -2.25 -2.3 -1.55 -3.0 -0.5 -3.0 0.55 -3.0 1.25 -2.3 2.0 -1.55 2.0 -0.5" fill="#cc0000" fill-rule="evenodd" stroke="none"/>
    <path d="M-1.0 -2.0 Q-0.6 -2.0 -0.3 -1.7 0.0 -1.4 0.0 -1.0 0.0 -0.6 -0.3 -0.3 -0.6 0.0 -1.0 0.0 -1.4 0.0 -1.7 -0.3 L-2.0 -1.0 -1.7 -1.7 -1.0 -2.0" fill="#ffbfbf" fill-rule="evenodd" stroke="none"/>
    <path d="M3.0 -12.0 L3.0 -9.0 -3.0 -9.0 -3.0 -12.0 3.0 -12.0" fill="url(#gradient7)" fill-rule="evenodd" stroke="none"/>
    <path d="M-3.0 -12.0 Q-3.0 -12.85 -2.15 -13.45 -1.25 -14.0 0.0 -14.0 1.25 -14.0 2.1 -13.45 3.0 -12.85 3.0 -12.0 L-3.0 -12.0" fill="url(#gradient8)" fill-rule="evenodd" stroke="none"/>
    <path d="M-8.9 8.55 L-11.9 3.4 -9.3 1.9 -6.3 7.05 -8.9 8.55" fill="url(#gradient9)" fill-rule="evenodd" stroke="none"/>
    <path d="M-8.9 8.55 Q-9.65 9.0 -10.6 8.55 -11.45 8.05 -12.1 7.0 -12.7 5.9 -12.7 4.85 -12.65 3.85 -11.9 3.4 L-8.9 8.55" fill="url(#gradient10)" fill-rule="evenodd" stroke="none"/>
    <path d="M11.85 3.35 Q12.6 3.8 12.7 4.8 12.7 5.85 12.05 6.9 11.5 8.0 10.55 8.5 L8.9 8.55 11.85 3.35" fill="url(#gradient11)" fill-rule="evenodd" stroke="none"/>
    <path d="M8.9 8.55 L6.3 7.05 9.25 1.85 11.85 3.35 8.9 8.55" fill="url(#gradient12)" fill-rule="evenodd" stroke="none"/>
  </g>
  <defs>
    <linearGradient gradientTransform="matrix(0.0037, 0.0, 0.0, -0.0018, 0.0, 10.5)" gradientUnits="userSpaceOnUse" id="gradient0" spreadMethod="pad" x1="-819.2" x2="819.2">
      <stop offset="0.0" stop-color="#333333"/>
      <stop offset="0.47058823529411764" stop-color="#666666"/>
      <stop offset="0.5568627450980392" stop-color="#666666"/>
      <stop offset="1.0" stop-color="#333333"/>
    </linearGradient>
    <linearGradient gradientTransform="matrix(0.0037, 0.0, 0.0, -0.0012, 0.0, 13.0)" gradientUnits="userSpaceOnUse" id="gradient1" spreadMethod="pad" x1="-819.2" x2="819.2">
      <stop offset="0.0" stop-color="#333333"/>
      <stop offset="0.47058823529411764" stop-color="#666666"/>
      <stop offset="0.5568627450980392" stop-color="#666666"/>
      <stop offset="1.0" stop-color="#333333"/>
    </linearGradient>
    <linearGradient gradientTransform="matrix(0.0018, 0.0032, -0.0011, 6.0E-4, 11.25, -6.5)" gradientUnits="userSpaceOnUse" id="gradient2" spreadMethod="pad" x1="-819.2" x2="819.2">
      <stop offset="0.0" stop-color="#333333"/>
      <stop offset="0.47058823529411764" stop-color="#666666"/>
      <stop offset="0.5568627450980392" stop-color="#666666"/>
      <stop offset="1.0" stop-color="#333333"/>
    </linearGradient>
    <linearGradient gradientTransform="matrix(0.0018, 0.0032, -0.0016, 9.0E-4, 9.1, -5.25)" gradientUnits="userSpaceOnUse" id="gradient3" spreadMethod="pad" x1="-819.2" x2="819.2">
      <stop offset="0.0" stop-color="#333333"/>
      <stop offset="0.47058823529411764" stop-color="#666666"/>
      <stop offset="0.5568627450980392" stop-color="#666666"/>
      <stop offset="1.0" stop-color="#333333"/>
    </linearGradient>
    <linearGradient gradientTransform="matrix(-0.0018, 0.0032, 0.0016, 9.0E-4, -9.15, -5.3)" gradientUnits="userSpaceOnUse" id="gradient4" spreadMethod="pad" x1="-819.2" x2="819.2">
      <stop offset="0.0" stop-color="#333333"/>
      <stop offset="0.47058823529411764" stop-color="#666666"/>
      <stop offset="0.5568627450980392" stop-color="#666666"/>
      <stop offset="1.0" stop-color="#333333"/>
    </linearGradient>
    <linearGradient gradientTransform="matrix(-0.0018, 0.0032, 0.0011, 6.0E-4, -11.3, -6.55)" gradientUnits="userSpaceOnUse" id="gradient5" spreadMethod="pad" x1="-819.2" x2="819.2">
      <stop offset="0.0" stop-color="#333333"/>
      <stop offset="0.47058823529411764" stop-color="#666666"/>
      <stop offset="0.5568627450980392" stop-color="#666666"/>
      <stop offset="1.0" stop-color="#333333"/>
    </linearGradient>
    <radialGradient cx="0" cy="0" gradientTransform="matrix(0.0142, 0.0, 0.0, 0.0142, -2.5, -2.4)" gradientUnits="userSpaceOnUse" id="gradient6" r="819.2" spreadMethod="pad">
      <stop offset="0.11764705882352941" stop-color="#666666"/>
      <stop offset="0.5058823529411764" stop-color="#575757"/>
      <stop offset="1.0" stop-color="#333333"/>
    </radialGradient>
    <linearGradient gradientTransform="matrix(0.0037, 0.0, 0.0, 0.0018, 0.0, -10.5)" gradientUnits="userSpaceOnUse" id="gradient7" spreadMethod="pad" x1="-819.2" x2="819.2">
      <stop offset="0.0" stop-color="#333333"/>
      <stop offset="0.47058823529411764" stop-color="#666666"/>
      <stop offset="0.5568627450980392" stop-color="#666666"/>
      <stop offset="1.0" stop-color="#333333"/>
    </linearGradient>
    <linearGradient gradientTransform="matrix(0.0037, 0.0, 0.0, 0.0012, 0.0, -13.0)" gradientUnits="userSpaceOnUse" id="gradient8" spreadMethod="pad" x1="-819.2" x2="819.2">
      <stop offset="0.0" stop-color="#333333"/>
      <stop offset="0.47058823529411764" stop-color="#666666"/>
      <stop offset="0.5568627450980392" stop-color="#666666"/>
      <stop offset="1.0" stop-color="#333333"/>
    </linearGradient>
    <linearGradient gradientTransform="matrix(0.0018, 0.0032, 0.0016, -9.0E-4, -9.1, 5.25)" gradientUnits="userSpaceOnUse" id="gradient9" spreadMethod="pad" x1="-819.2" x2="819.2">
      <stop offset="0.0" stop-color="#333333"/>
      <stop offset="0.47058823529411764" stop-color="#666666"/>
      <stop offset="0.5568627450980392" stop-color="#666666"/>
      <stop offset="1.0" stop-color="#333333"/>
    </linearGradient>
    <linearGradient gradientTransform="matrix(0.0018, 0.0032, 0.0011, -6.0E-4, -11.25, 6.5)" gradientUnits="userSpaceOnUse" id="gradient10" spreadMethod="pad" x1="-819.2" x2="819.2">
      <stop offset="0.0" stop-color="#333333"/>
      <stop offset="0.47058823529411764" stop-color="#666666"/>
      <stop offset="0.5568627450980392" stop-color="#666666"/>
      <stop offset="1.0" stop-color="#333333"/>
    </linearGradient>
    <linearGradient gradientTransform="matrix(-0.0018, 0.0032, -0.0011, -6.0E-4, 11.25, 6.4)" gradientUnits="userSpaceOnUse" id="gradient11" spreadMethod="pad" x1="-819.2" x2="819.2">
      <stop offset="0.0" stop-color="#333333"/>
      <stop offset="0.47058823529411764" stop-color="#666666"/>
      <stop offset="0.5568627450980392" stop-color="#666666"/>
      <stop offset="1.0" stop-color="#333333"/>
    </linearGradient>
    <linearGradient gradientTransform="matrix(-0.0018, 0.0032, -0.0016, -9.0E-4, 9.05, 5.2)" gradientUnits="userSpaceOnUse" id="gradient12" spreadMethod="pad" x1="-819.2" x2="819.2">
      <stop offset="0.0" stop-color="#333333"/>
      <stop offset="0.47058823529411764" stop-color="#666666"/>
      <stop offset="0.5568627450980392" stop-color="#666666"/>
      <stop offset="1.0" stop-color="#333333"/>
    </linearGradient>
  </defs>
</svg>
