<?xml version="1.0" encoding="UTF-8" standalone="no"?>
<svg xmlns:xlink="http://www.w3.org/1999/xlink" height="41.0px" width="117.0px" xmlns="http://www.w3.org/2000/svg">
  <g transform="matrix(1, 0, 0, 1, 59.05, 22.35)">
    <path d="M53.95 -1.85 Q53.95 5.0 38.0 9.8 22.05 14.65 -0.55 14.65 -23.15 14.65 -39.1 9.8 -55.05 5.0 -55.05 -1.85 -55.05 -8.7 -39.1 -13.55 -23.15 -18.35 -0.55 -18.35 22.05 -18.35 38.0 -13.55 53.95 -8.7 53.95 -1.85" fill="#ffffff" fill-opacity="0.0" fill-rule="evenodd" stroke="none"/>
    <path d="M53.95 -1.85 Q53.95 5.0 38.0 9.8 22.05 14.65 -0.55 14.65 -23.15 14.65 -39.1 9.8 -55.05 5.0 -55.05 -1.85 -55.05 -8.7 -39.1 -13.55 -23.15 -18.35 -0.55 -18.35 22.05 -18.35 38.0 -13.55 53.95 -8.7 53.95 -1.85" fill="none" stroke="#990000" stroke-linecap="round" stroke-linejoin="round" stroke-width="8.0"/>
  </g>
</svg>
