<?xml version="1.0" encoding="UTF-8" standalone="no"?>
<svg xmlns:xlink="http://www.w3.org/1999/xlink" height="34.0px" width="160.0px" xmlns="http://www.w3.org/2000/svg">
  <g transform="matrix(1, 0, 0, 1, 0.0, -2.75)">
    <path d="M160.0 23.1 Q160.0 28.75 156.0 32.75 152.05 36.75 146.4 36.75 L5.05 36.75 Q2.95 36.75 1.5 35.25 0.0 33.75 0.0 31.65 L0.0 16.35 Q0.0 10.7 3.95 6.7 7.9 2.75 13.55 2.75 L154.9 2.75 Q157.0 2.75 158.5 4.25 160.0 5.7 160.0 7.85 L160.0 23.1" fill="url(#gradient0)" fill-rule="evenodd" stroke="none"/>
    <path d="M146.4 36.75 L5.05 36.75 Q2.95 36.75 1.5 35.25 0.0 33.75 0.0 31.65 L0.0 16.35 Q0.0 10.7 3.95 6.7 7.9 2.75 13.55 2.75 L154.9 2.75 Q157.0 2.75 158.5 4.25 160.0 5.7 160.0 7.85 L160.0 23.1 Q160.0 28.75 156.0 32.75 152.05 36.75 146.4 36.75" fill="#ebebeb" fill-opacity="0.29803923" fill-rule="evenodd" stroke="none"/>
  </g>
  <defs>
    <linearGradient gradientTransform="matrix(0.0, 0.0189, -0.0189, 0.0, 114.0, 18.25)" gradientUnits="userSpaceOnUse" id="gradient0" spreadMethod="pad" x1="-819.2" x2="819.2">
      <stop offset="0.0" stop-color="#0099ff"/>
      <stop offset="0.40784313725490196" stop-color="#005791"/>
      <stop offset="0.9882352941176471" stop-color="#0099ff"/>
    </linearGradient>
  </defs>
</svg>
