<?xml version="1.0" encoding="UTF-8" standalone="no"?>
<svg xmlns:xlink="http://www.w3.org/1999/xlink" height="139.0px" width="799.95px" xmlns="http://www.w3.org/2000/svg">
  <g transform="matrix(1, 0, 0, 1, -0.35, -44.35)">
    <path d="M800.3 183.35 L0.35 183.35 0.35 44.35 800.3 44.35 800.3 183.35" fill="url(#gradient0)" fill-rule="evenodd" stroke="none"/>
    <path d="M450.15 138.65 Q450.15 138.2 450.5 137.85 450.8 137.55 451.3 137.55 L459.55 137.55 460.35 137.85 460.75 138.65 460.7 158.5 475.05 158.5 Q475.55 158.5 475.85 158.85 476.25 159.15 476.25 159.65 L476.25 166.2 475.9 167.0 475.1 167.35 451.35 167.35 Q450.95 167.35 450.5 167.0 450.15 166.55 450.15 166.2 L450.15 138.65 M437.8 137.85 L438.65 137.55 446.05 137.55 446.9 137.85 447.25 138.65 447.25 166.2 446.9 167.0 446.05 167.35 437.55 167.35 437.05 167.2 436.6 166.85 425.9 152.45 425.9 166.2 425.55 167.0 Q425.1 167.35 424.7 167.35 L417.3 167.35 416.5 167.0 Q416.15 166.55 416.15 166.2 L416.15 138.65 Q416.15 138.3 416.5 137.85 416.9 137.55 417.3 137.55 L425.75 137.55 426.3 137.7 426.7 138.05 437.5 152.65 437.5 138.65 Q437.5 138.25 437.8 137.85 M377.15 152.4 Q377.15 144.6 381.7 140.8 386.25 136.95 395.0 136.95 403.8 136.95 408.35 140.8 412.9 144.65 412.9 152.4 412.9 160.15 408.35 164.0 403.8 167.8 395.0 167.8 386.25 167.8 381.7 164.0 377.15 160.2 377.15 152.4 M400.45 157.3 Q402.35 155.7 402.35 152.4 402.35 149.05 400.45 147.45 398.6 145.8 395.0 145.8 391.5 145.8 389.6 147.45 387.75 149.1 387.75 152.4 387.75 155.65 389.6 157.3 391.5 158.95 395.0 158.95 398.6 158.95 400.45 157.3 M486.9 137.85 L487.2 138.65 487.2 166.2 486.9 167.0 Q486.65 167.35 486.2 167.35 L479.15 167.35 Q478.8 167.35 478.45 167.0 478.15 166.65 478.15 166.2 L478.15 138.65 478.45 137.85 Q478.75 137.55 479.15 137.55 L486.2 137.55 Q486.7 137.55 486.9 137.85 M524.15 138.65 Q524.15 138.3 524.5 137.85 524.9 137.55 525.3 137.55 L547.45 137.55 Q547.95 137.55 548.25 137.85 548.6 138.2 548.6 138.65 L548.6 144.2 Q548.6 144.75 548.25 145.05 547.95 145.4 547.45 145.4 L534.7 145.4 534.7 148.45 545.6 148.45 Q546.05 148.45 546.4 148.8 546.75 149.15 546.75 149.6 L546.75 155.05 546.4 155.9 545.6 156.25 534.7 156.25 534.7 159.45 548.5 159.45 Q549.0 159.45 549.3 159.8 L549.6 160.65 549.6 166.2 549.3 167.0 Q548.95 167.35 548.5 167.35 L525.3 167.35 524.5 167.0 Q524.15 166.55 524.15 166.2 L524.15 138.65 M520.9 137.85 Q521.25 138.2 521.25 138.65 L521.25 166.2 520.9 167.0 520.05 167.35 511.55 167.35 511.05 167.2 510.6 166.85 499.9 152.45 499.9 166.2 499.55 167.0 498.7 167.35 491.3 167.35 Q490.95 167.35 490.5 167.0 490.15 166.55 490.15 166.2 L490.15 138.65 Q490.15 138.3 490.5 137.85 490.9 137.55 491.3 137.55 L499.75 137.55 500.3 137.7 500.7 138.05 511.5 152.65 511.5 138.65 Q511.5 138.25 511.8 137.85 512.2 137.55 512.65 137.55 L520.05 137.55 Q520.55 137.55 520.9 137.85" fill="#99cc00" fill-rule="evenodd" stroke="none"/>
    <path d="M450.15 138.65 Q450.15 138.2 450.5 137.85 450.8 137.55 451.3 137.55 L459.55 137.55 460.35 137.85 460.75 138.65 460.7 158.5 475.05 158.5 Q475.55 158.5 475.85 158.85 476.25 159.15 476.25 159.65 L476.25 166.2 475.9 167.0 475.1 167.35 451.35 167.35 Q450.95 167.35 450.5 167.0 450.15 166.55 450.15 166.2 L450.15 138.65 M437.8 137.85 L438.65 137.55 446.05 137.55 446.9 137.85 447.25 138.65 447.25 166.2 446.9 167.0 446.05 167.35 437.55 167.35 437.05 167.2 436.6 166.85 425.9 152.45 425.9 166.2 425.55 167.0 Q425.1 167.35 424.7 167.35 L417.3 167.35 416.5 167.0 Q416.15 166.55 416.15 166.2 L416.15 138.65 Q416.15 138.3 416.5 137.85 416.9 137.55 417.3 137.55 L425.75 137.55 426.3 137.7 426.7 138.05 437.5 152.65 437.5 138.65 Q437.5 138.25 437.8 137.85 M377.15 152.4 Q377.15 144.6 381.7 140.8 386.25 136.95 395.0 136.95 403.8 136.95 408.35 140.8 412.9 144.65 412.9 152.4 412.9 160.15 408.35 164.0 403.8 167.8 395.0 167.8 386.25 167.8 381.7 164.0 377.15 160.2 377.15 152.4 M400.45 157.3 Q402.35 155.7 402.35 152.4 402.35 149.05 400.45 147.45 398.6 145.8 395.0 145.8 391.5 145.8 389.6 147.45 387.75 149.1 387.75 152.4 387.75 155.65 389.6 157.3 391.5 158.95 395.0 158.95 398.6 158.95 400.45 157.3 M486.9 137.85 L487.2 138.65 487.2 166.2 486.9 167.0 Q486.65 167.35 486.2 167.35 L479.15 167.35 Q478.8 167.35 478.45 167.0 478.15 166.65 478.15 166.2 L478.15 138.65 478.45 137.85 Q478.75 137.55 479.15 137.55 L486.2 137.55 Q486.7 137.55 486.9 137.85 M524.15 138.65 Q524.15 138.3 524.5 137.85 524.9 137.55 525.3 137.55 L547.45 137.55 Q547.95 137.55 548.25 137.85 548.6 138.2 548.6 138.65 L548.6 144.2 Q548.6 144.75 548.25 145.05 547.95 145.4 547.45 145.4 L534.7 145.4 534.7 148.45 545.6 148.45 Q546.05 148.45 546.4 148.8 546.75 149.15 546.75 149.6 L546.75 155.05 546.4 155.9 545.6 156.25 534.7 156.25 534.7 159.45 548.5 159.45 Q549.0 159.45 549.3 159.8 L549.6 160.65 549.6 166.2 549.3 167.0 Q548.95 167.35 548.5 167.35 L525.3 167.35 524.5 167.0 Q524.15 166.55 524.15 166.2 L524.15 138.65 M520.9 137.85 Q521.25 138.2 521.25 138.65 L521.25 166.2 520.9 167.0 520.05 167.35 511.55 167.35 511.05 167.2 510.6 166.85 499.9 152.45 499.9 166.2 499.55 167.0 498.7 167.35 491.3 167.35 Q490.95 167.35 490.5 167.0 490.15 166.55 490.15 166.2 L490.15 138.65 Q490.15 138.3 490.5 137.85 490.9 137.55 491.3 137.55 L499.75 137.55 500.3 137.7 500.7 138.05 511.5 152.65 511.5 138.65 Q511.5 138.25 511.8 137.85 512.2 137.55 512.65 137.55 L520.05 137.55 Q520.55 137.55 520.9 137.85" fill="url(#gradient1)" fill-rule="evenodd" stroke="none"/>
    <path d="M124.85 101.45 L122.6 100.95 119.75 100.75 Q117.4 100.75 115.8 101.55 114.1 102.4 112.95 103.8 111.8 105.3 111.2 107.1 110.65 109.05 110.65 111.1 110.65 112.95 111.1 114.6 111.55 116.25 112.45 117.35 113.4 118.5 114.85 119.2 116.2 119.85 118.2 119.85 L121.95 119.3 Q123.4 118.8 124.85 117.85 L124.85 101.45 M130.45 89.25 Q135.75 90.2 140.1 92.1 L140.1 129.85 Q140.1 133.1 139.45 136.65 138.85 140.15 137.55 143.0 136.3 145.9 134.25 148.5 132.2 151.1 129.4 152.85 126.55 154.65 122.9 155.7 119.15 156.7 114.6 156.7 L105.85 156.05 Q101.8 155.35 99.2 154.3 L99.2 143.95 Q102.8 145.1 105.45 145.5 L110.75 145.95 Q114.25 145.95 117.0 144.95 119.65 143.9 121.35 142.1 123.1 140.45 123.95 137.9 124.85 135.5 124.85 132.7 L125.2 126.65 125.05 126.65 122.85 128.95 120.2 130.85 Q118.6 131.7 116.9 132.15 L112.95 132.6 Q108.8 132.6 105.55 131.15 102.3 129.75 99.8 127.05 97.45 124.45 96.05 120.7 94.7 117.05 94.7 112.45 94.7 106.65 96.75 102.0 98.75 97.5 102.2 94.45 105.6 91.45 110.1 89.85 114.65 88.25 119.55 88.25 L130.45 89.25 M298.45 101.15 L299.3 99.3 289.05 99.3 289.05 115.2 Q289.05 116.55 289.45 117.9 289.9 119.2 290.75 120.1 291.6 121.0 292.9 121.6 294.25 122.15 295.95 122.15 L298.0 122.05 299.25 121.85 298.3 119.75 Q296.7 115.4 296.7 110.45 296.7 105.25 298.45 101.15 M323.6 101.35 Q322.0 99.6 319.25 99.6 318.0 99.6 316.8 100.15 315.7 100.7 314.75 101.65 313.95 102.55 313.3 103.8 312.8 104.9 312.65 106.3 L325.1 106.3 Q325.1 103.15 323.6 101.35 M195.85 101.0 L192.75 100.75 Q188.5 100.75 186.1 103.55 183.75 106.35 183.75 111.2 183.75 115.65 185.8 117.9 187.85 120.25 191.4 120.25 L195.2 119.7 Q197.05 119.15 198.3 118.2 L198.3 101.75 197.25 101.3 195.85 101.0 M364.6 101.35 Q363.0 99.6 360.25 99.6 359.0 99.6 357.8 100.15 356.7 100.7 355.75 101.65 354.95 102.55 354.3 103.8 353.8 104.9 353.65 106.3 L366.1 106.3 Q366.1 103.15 364.6 101.35 M369.15 89.7 Q373.15 91.25 375.65 93.85 378.25 96.4 379.75 100.3 381.15 104.05 381.15 108.8 L381.0 111.65 380.6 114.35 353.55 114.35 Q353.7 116.3 354.5 118.1 355.3 119.75 356.7 120.75 358.15 121.75 360.45 122.3 L365.9 122.8 369.7 122.65 376.5 121.45 379.25 120.7 379.25 129.65 Q378.05 130.4 376.2 131.0 L372.1 132.15 367.2 133.0 361.9 133.3 Q356.05 133.3 351.6 131.6 347.15 129.95 344.05 126.95 341.0 124.05 339.3 119.75 338.35 117.2 337.95 114.35 L312.55 114.35 Q312.7 116.3 313.5 118.1 314.3 119.75 315.7 120.75 317.15 121.75 319.45 122.3 L324.9 122.8 328.7 122.65 335.5 121.45 338.25 120.7 338.25 129.65 Q337.05 130.4 335.2 131.0 L331.1 132.15 326.2 133.0 320.9 133.3 Q315.05 133.3 310.6 131.6 306.15 129.95 303.05 126.95 301.55 125.6 300.25 123.55 L300.25 131.8 295.75 132.9 292.9 133.2 289.9 133.3 Q282.0 133.3 278.05 129.35 274.05 125.5 274.05 117.25 L274.05 99.3 268.55 99.3 268.55 132.35 253.55 132.35 253.55 99.3 241.1 132.35 224.2 132.35 213.25 100.7 213.25 132.35 199.25 132.35 198.4 126.95 198.2 126.95 195.95 129.3 Q194.9 130.3 193.05 131.35 L189.5 132.75 185.25 133.3 Q180.8 133.3 177.5 131.8 174.25 130.3 172.05 127.6 169.85 124.95 168.8 121.3 167.7 117.7 167.7 113.3 167.7 107.75 169.25 103.45 L168.95 103.4 165.55 103.15 Q163.05 103.15 161.5 103.95 160.0 104.65 159.1 106.2 158.2 107.7 157.9 109.75 157.55 111.7 157.55 114.4 L157.55 132.35 142.55 132.35 142.45 99.45 141.3 89.3 155.2 89.3 155.85 91.25 156.5 93.7 157.0 96.15 157.35 98.15 157.55 98.15 Q161.15 88.25 168.1 88.25 170.5 88.25 171.75 88.85 L171.75 98.5 Q173.25 96.25 175.1 94.55 178.5 91.45 183.05 89.85 187.6 88.25 192.55 88.25 L203.7 89.3 209.85 90.85 209.35 89.3 225.15 89.3 231.4 111.9 Q232.9 116.85 233.05 120.45 L233.25 120.45 Q233.45 118.4 233.8 116.7 L234.95 112.2 241.85 89.3 274.05 89.3 277.25 75.95 289.05 75.95 289.05 89.3 300.25 89.3 300.25 97.7 Q301.45 95.9 303.25 94.15 306.35 91.3 310.45 89.8 314.5 88.25 319.35 88.25 324.2 88.25 328.15 89.7 332.15 91.25 334.65 93.85 337.25 96.4 338.75 100.3 L339.2 101.7 339.45 101.15 Q341.15 97.1 344.25 94.15 347.35 91.3 351.45 89.8 355.5 88.25 360.35 88.25 365.2 88.25 369.15 89.7" fill="#ffffff" fill-rule="evenodd" stroke="none"/>
    <path d="M470.25 101.3 L468.85 101.0 465.75 100.75 Q461.5 100.75 459.1 103.55 456.75 106.35 456.75 111.2 456.75 115.65 458.8 117.9 460.85 120.25 464.4 120.25 L468.2 119.7 Q470.05 119.15 471.3 118.2 L471.3 101.75 470.25 101.3 M397.15 118.1 L397.7 115.65 405.95 89.3 419.1 89.3 426.5 115.65 426.7 116.65 427.15 121.1 427.45 121.1 428.2 115.65 433.8 89.3 448.1 89.3 445.95 96.85 448.1 94.55 Q451.5 91.45 456.05 89.85 460.6 88.25 465.55 88.25 L476.7 89.3 Q482.0 90.35 486.25 92.0 L486.25 132.35 472.25 132.35 471.4 126.95 471.2 126.95 468.95 129.3 466.05 131.35 462.5 132.75 458.25 133.3 Q453.8 133.3 450.5 131.8 447.25 130.3 445.05 127.6 442.85 124.95 441.8 121.3 440.9 118.35 440.75 115.15 L435.9 132.35 419.75 132.35 412.85 109.9 Q412.45 108.7 412.2 106.65 L411.9 103.05 411.6 103.05 411.15 106.7 410.4 109.8 403.1 132.35 387.7 132.35 375.8 89.3 390.9 89.3 396.55 121.0 396.85 121.0 397.15 118.1 M547.2 91.35 L547.2 101.8 540.05 100.5 537.7 100.35 534.1 100.8 Q532.65 101.25 532.65 102.6 532.65 103.25 533.15 103.7 L534.65 104.55 537.15 105.45 540.7 106.6 Q545.2 108.1 547.35 111.2 549.4 114.3 549.4 118.7 549.4 122.15 548.3 124.8 547.2 127.5 545.0 129.35 542.9 131.25 539.45 132.3 536.0 133.3 531.65 133.3 L524.1 132.55 Q520.3 131.8 517.55 130.5 L517.55 119.05 520.45 120.45 523.6 121.55 526.75 122.3 529.65 122.55 Q532.45 122.55 533.7 121.95 535.05 121.3 535.05 119.9 L534.75 118.8 533.7 117.85 531.55 116.9 528.1 115.65 Q522.4 113.7 519.85 110.55 517.6 107.6 517.4 103.65 L515.95 103.4 512.55 103.15 Q510.05 103.15 508.5 103.95 507.0 104.65 506.1 106.2 505.2 107.7 504.9 109.75 504.55 111.7 504.55 114.4 L504.55 132.35 489.55 132.35 489.45 99.45 488.3 89.3 502.2 89.3 502.85 91.25 503.5 93.7 504.0 96.15 504.35 98.15 504.55 98.15 Q508.15 88.25 515.1 88.25 517.5 88.25 518.75 88.85 L518.75 96.85 Q520.1 94.45 522.5 92.8 525.05 91.05 528.4 90.15 532.1 89.2 536.15 89.2 L542.05 89.85 544.85 90.5 Q546.15 90.85 547.2 91.35" fill="#666666" fill-rule="evenodd" stroke="none"/>
    <path d="M124.85 101.45 L122.6 100.95 119.75 100.75 Q117.4 100.75 115.8 101.55 114.1 102.4 112.95 103.8 111.8 105.3 111.2 107.1 110.65 109.05 110.65 111.1 110.65 112.95 111.1 114.6 111.55 116.25 112.45 117.35 113.4 118.5 114.85 119.2 116.2 119.85 118.2 119.85 L121.95 119.3 Q123.4 118.8 124.85 117.85 L124.85 101.45 M130.45 89.25 Q135.75 90.2 140.1 92.1 L140.1 129.85 Q140.1 133.1 139.45 136.65 138.85 140.15 137.55 143.0 136.3 145.9 134.25 148.5 132.2 151.1 129.4 152.85 126.55 154.65 122.9 155.7 119.15 156.7 114.6 156.7 L105.85 156.05 Q101.8 155.35 99.2 154.3 L99.2 143.95 Q102.8 145.1 105.45 145.5 L110.75 145.95 Q114.25 145.95 117.0 144.95 119.65 143.9 121.35 142.1 123.1 140.45 123.95 137.9 124.85 135.5 124.85 132.7 L125.2 126.65 125.05 126.65 122.85 128.95 120.2 130.85 Q118.6 131.7 116.9 132.15 L112.95 132.6 Q108.8 132.6 105.55 131.15 102.3 129.75 99.8 127.05 97.45 124.45 96.05 120.7 94.7 117.05 94.7 112.45 94.7 106.65 96.75 102.0 98.75 97.5 102.2 94.45 105.6 91.45 110.1 89.85 114.65 88.25 119.55 88.25 L130.45 89.25 M298.45 101.15 L299.3 99.3 289.05 99.3 289.05 115.2 Q289.05 116.55 289.45 117.9 289.9 119.2 290.75 120.1 291.6 121.0 292.9 121.6 294.25 122.15 295.95 122.15 L298.0 122.05 299.25 121.85 298.3 119.75 Q296.7 115.4 296.7 110.45 296.7 105.25 298.45 101.15 M323.6 101.35 Q322.0 99.6 319.25 99.6 318.0 99.6 316.8 100.15 315.7 100.7 314.75 101.65 313.95 102.55 313.3 103.8 312.8 104.9 312.65 106.3 L325.1 106.3 Q325.1 103.15 323.6 101.35 M195.85 101.0 L192.75 100.75 Q188.5 100.75 186.1 103.55 183.75 106.35 183.75 111.2 183.75 115.65 185.8 117.9 187.85 120.25 191.4 120.25 L195.2 119.7 Q197.05 119.15 198.3 118.2 L198.3 101.75 197.25 101.3 195.85 101.0 M470.25 101.3 L468.85 101.0 465.75 100.75 Q461.5 100.75 459.1 103.55 456.75 106.35 456.75 111.2 456.75 115.65 458.8 117.9 460.85 120.25 464.4 120.25 L468.2 119.7 Q470.05 119.15 471.3 118.2 L471.3 101.75 470.25 101.3 M364.6 101.35 Q363.0 99.6 360.25 99.6 359.0 99.6 357.8 100.15 356.7 100.7 355.75 101.65 354.95 102.55 354.3 103.8 353.8 104.9 353.65 106.3 L366.1 106.3 Q366.1 103.15 364.6 101.35 M369.15 89.7 Q373.15 91.25 375.65 93.85 376.8 94.95 377.75 96.35 L375.8 89.3 390.9 89.3 396.3 118.15 396.55 121.0 396.85 121.0 397.15 118.1 397.7 115.65 405.95 89.3 419.1 89.3 426.5 115.65 426.7 116.65 427.15 121.1 427.45 121.1 427.75 118.45 433.8 89.3 448.1 89.3 445.95 96.85 448.1 94.55 Q451.5 91.45 456.05 89.85 460.6 88.25 465.55 88.25 L476.7 89.3 Q482.0 90.35 486.25 92.0 L486.25 132.35 472.25 132.35 471.4 126.95 471.2 126.95 468.95 129.3 466.05 131.35 462.5 132.75 458.25 133.3 Q453.8 133.3 450.5 131.8 447.25 130.3 445.05 127.6 442.85 124.95 441.8 121.3 440.9 118.35 440.75 115.15 L435.9 132.35 419.75 132.35 412.85 109.9 Q412.45 108.7 412.2 106.65 L411.9 103.05 411.6 103.05 411.15 106.7 410.4 109.8 403.1 132.35 387.7 132.35 381.15 108.65 381.0 111.65 380.6 114.35 353.55 114.35 Q353.7 116.3 354.5 118.1 355.3 119.75 356.7 120.75 358.15 121.75 360.45 122.3 L365.9 122.8 369.7 122.65 376.5 121.45 379.25 120.7 379.25 129.65 Q378.05 130.4 376.2 131.0 L372.1 132.15 367.2 133.0 361.9 133.3 Q356.05 133.3 351.6 131.6 347.15 129.95 344.05 126.95 341.0 124.05 339.3 119.75 338.35 117.2 337.95 114.35 L312.55 114.35 Q312.7 116.3 313.5 118.1 314.3 119.75 315.7 120.75 317.15 121.75 319.45 122.3 L324.9 122.8 328.7 122.65 335.5 121.45 338.25 120.7 338.25 129.65 Q337.05 130.4 335.2 131.0 L331.1 132.15 326.2 133.0 320.9 133.3 Q315.05 133.3 310.6 131.6 306.15 129.95 303.05 126.95 301.55 125.6 300.25 123.55 L300.25 131.8 295.75 132.9 292.9 133.2 289.9 133.3 Q282.0 133.3 278.05 129.35 274.05 125.5 274.05 117.25 L274.05 99.3 268.55 99.3 268.55 132.35 253.55 132.35 253.55 99.3 241.1 132.35 224.2 132.35 213.25 100.7 213.25 132.35 199.25 132.35 198.4 126.95 198.2 126.95 195.95 129.3 Q194.9 130.3 193.05 131.35 L189.5 132.75 185.25 133.3 Q180.8 133.3 177.5 131.8 174.25 130.3 172.05 127.6 169.85 124.95 168.8 121.3 167.7 117.7 167.7 113.3 167.7 107.75 169.25 103.45 L168.95 103.4 165.55 103.15 Q163.05 103.15 161.5 103.95 160.0 104.65 159.1 106.2 158.2 107.7 157.9 109.75 157.55 111.7 157.55 114.4 L157.55 132.35 142.55 132.35 142.45 99.45 141.3 89.3 155.2 89.3 155.85 91.25 156.5 93.7 157.0 96.15 157.35 98.15 157.55 98.15 Q161.15 88.25 168.1 88.25 170.5 88.25 171.75 88.85 L171.75 98.5 Q173.25 96.25 175.1 94.55 178.5 91.45 183.05 89.85 187.6 88.25 192.55 88.25 L203.7 89.3 209.85 90.85 209.35 89.3 225.15 89.3 231.4 111.9 Q232.9 116.85 233.05 120.45 L233.25 120.45 Q233.45 118.4 233.8 116.7 L234.95 112.2 241.85 89.3 274.05 89.3 277.25 75.95 289.05 75.95 289.05 89.3 300.25 89.3 300.25 97.7 Q301.45 95.9 303.25 94.15 306.35 91.3 310.45 89.8 314.5 88.25 319.35 88.25 324.2 88.25 328.15 89.7 332.15 91.25 334.65 93.85 337.25 96.4 338.75 100.3 L339.2 101.7 339.45 101.15 Q341.15 97.1 344.25 94.15 347.35 91.3 351.45 89.8 355.5 88.25 360.35 88.25 365.2 88.25 369.15 89.7 M547.2 91.35 L547.2 101.8 540.05 100.5 537.7 100.35 534.1 100.8 Q532.65 101.25 532.65 102.6 532.65 103.25 533.15 103.7 L534.65 104.55 537.15 105.45 540.7 106.6 Q545.2 108.1 547.35 111.2 549.4 114.3 549.4 118.7 549.4 122.15 548.3 124.8 547.2 127.5 545.0 129.35 542.9 131.25 539.45 132.3 536.0 133.3 531.65 133.3 L524.1 132.55 Q520.3 131.8 517.55 130.5 L517.55 119.05 520.45 120.45 523.6 121.55 526.75 122.3 529.65 122.55 Q532.45 122.55 533.7 121.95 535.05 121.3 535.05 119.9 L534.75 118.8 533.7 117.85 531.55 116.9 528.1 115.65 Q522.4 113.7 519.85 110.55 517.6 107.6 517.4 103.65 L515.95 103.4 512.55 103.15 Q510.05 103.15 508.5 103.95 507.0 104.65 506.1 106.2 505.2 107.7 504.9 109.75 504.55 111.7 504.55 114.4 L504.55 132.35 489.55 132.35 489.45 99.45 488.3 89.3 502.2 89.3 502.85 91.25 503.5 93.7 504.0 96.15 504.35 98.15 504.55 98.15 Q508.15 88.25 515.1 88.25 517.5 88.25 518.75 88.85 L518.75 96.85 Q520.1 94.45 522.5 92.8 525.05 91.05 528.4 90.15 532.1 89.2 536.15 89.2 L542.05 89.85 544.85 90.5 Q546.15 90.85 547.2 91.35" fill="url(#gradient2)" fill-rule="evenodd" stroke="none"/>
    <path d="M269.5 68.1 Q271.45 70.65 271.75 73.85 272.15 78.45 269.3 81.95 266.4 85.5 261.85 85.95 259.35 86.2 257.0 85.35 254.7 84.5 253.0 82.8 247.1 76.95 237.9 74.4 224.35 70.6 205.25 74.5 198.45 75.8 200.2 73.2 201.1 71.9 203.3 70.45 220.35 59.65 241.1 59.75 256.6 59.85 264.65 64.5 267.55 65.65 269.5 68.1 M261.35 66.35 Q257.6 66.35 255.0 69.0 252.35 71.6 252.35 75.35 252.35 79.05 255.0 81.7 257.6 84.35 261.35 84.35 265.05 84.35 267.7 81.7 270.35 79.05 270.35 75.35 270.35 71.6 267.7 69.0 265.05 66.35 261.35 66.35" fill="#ffffff" fill-rule="evenodd" stroke="none"/>
  </g>
  <defs>
    <linearGradient gradientTransform="matrix(0.0, 0.0854, -0.0854, 0.0, 372.8, 114.35)" gradientUnits="userSpaceOnUse" id="gradient0" spreadMethod="pad" x1="-819.2" x2="819.2">
      <stop offset="0.0" stop-color="#1f1f1f"/>
      <stop offset="0.9882352941176471" stop-color="#000000"/>
    </linearGradient>
    <linearGradient gradientTransform="matrix(0.0, 0.0183, -0.0183, 0.0, 454.35, 152.35)" gradientUnits="userSpaceOnUse" id="gradient1" spreadMethod="pad" x1="-819.2" x2="819.2">
      <stop offset="0.0" stop-color="#000000" stop-opacity="0.0"/>
      <stop offset="0.9882352941176471" stop-color="#000000" stop-opacity="0.29803923"/>
    </linearGradient>
    <linearGradient gradientTransform="matrix(0.0, 0.0366, -0.0366, 0.0, 262.35, 112.35)" gradientUnits="userSpaceOnUse" id="gradient2" spreadMethod="pad" x1="-819.2" x2="819.2">
      <stop offset="0.0" stop-color="#000000" stop-opacity="0.0"/>
      <stop offset="0.9921568627450981" stop-color="#000000" stop-opacity="0.29803923"/>
    </linearGradient>
  </defs>
</svg>
