<?xml version="1.0" encoding="UTF-8" standalone="no"?>
<svg xmlns:xlink="http://www.w3.org/1999/xlink" height="8.0px" width="18.0px" xmlns="http://www.w3.org/2000/svg">
  <g transform="matrix(1, 0, 0, 1, 1.0, 1.0)">
    <path d="M16.0 3.0 Q16.0 4.25 15.15 5.15 14.25 6.0 13.0 6.0 L3.0 6.0 Q1.75 6.0 0.9 5.15 0.0 4.25 0.0 3.0 0.0 1.8 0.9 0.9 1.75 0.0 3.0 0.0 L13.0 0.0 Q14.25 0.0 15.15 0.9 16.0 1.8 16.0 3.0" fill="none" stroke="#242424" stroke-linecap="round" stroke-linejoin="round" stroke-width="2.0"/>
    <path d="M16.0 3.0 Q16.0 4.25 15.15 5.15 14.25 6.0 13.0 6.0 L3.0 6.0 Q1.75 6.0 0.9 5.15 0.0 4.25 0.0 3.0 0.0 1.8 0.9 0.9 1.75 0.0 3.0 0.0 L13.0 0.0 Q14.25 0.0 15.15 0.9 16.0 1.8 16.0 3.0" fill="url(#gradient0)" fill-rule="evenodd" stroke="none"/>
    <path d="M12.0 6.0 L12.0 0.0 13.0 0.0 13.0 6.0 12.0 6.0" fill="#000000" fill-opacity="0.29803923" fill-rule="evenodd" stroke="none"/>
    <path d="M3.0 6.0 L3.0 0.0 7.0 0.0 7.0 6.0 3.0 6.0" fill="url(#gradient1)" fill-rule="evenodd" stroke="none"/>
    <path d="M2.0 6.0 L2.0 0.0 3.0 0.0 3.0 6.0 2.0 6.0 M7.0 6.0 L7.0 0.0 8.0 0.0 8.0 6.0 7.0 6.0" fill="#000000" fill-opacity="0.29803923" fill-rule="evenodd" stroke="none"/>
  </g>
  <defs>
    <linearGradient gradientTransform="matrix(0.0, 0.0035, -0.0037, 0.0, 8.0, 3.0)" gradientUnits="userSpaceOnUse" id="gradient0" spreadMethod="pad" x1="-819.2" x2="819.2">
      <stop offset="0.0" stop-color="#3e3e3e"/>
      <stop offset="0.4745098039215686" stop-color="#666666"/>
      <stop offset="0.5725490196078431" stop-color="#666666"/>
      <stop offset="1.0" stop-color="#3e3e3e"/>
    </linearGradient>
    <linearGradient gradientTransform="matrix(0.0, 0.0038, -0.0029, 0.0, 4.95, 2.95)" gradientUnits="userSpaceOnUse" id="gradient1" spreadMethod="pad" x1="-819.2" x2="819.2">
      <stop offset="0.0" stop-color="#004e82"/>
      <stop offset="0.4745098039215686" stop-color="#0099ff"/>
      <stop offset="0.5725490196078431" stop-color="#0099ff"/>
      <stop offset="1.0" stop-color="#004e82"/>
    </linearGradient>
  </defs>
</svg>
