<?xml version="1.0" encoding="UTF-8" standalone="no"?>
<svg xmlns:xlink="http://www.w3.org/1999/xlink" height="8.0px" width="12.0px" xmlns="http://www.w3.org/2000/svg">
  <g transform="matrix(1, 0, 0, 1, 2.0, 4.0)">
    <path d="M9.0 -2.0 L9.0 2.0 7.0 2.0 7.0 3.0 -1.0 3.0 -1.0 -3.0 7.0 -3.0 7.0 -2.0 9.0 -2.0" fill="none" stroke="#242424" stroke-linecap="round" stroke-linejoin="round" stroke-width="2.0"/>
    <path d="M7.0 -3.0 L7.0 3.0 -1.0 3.0 -1.0 -3.0 7.0 -3.0" fill="#eeeeee" fill-rule="evenodd" stroke="none"/>
    <path d="M9.0 -2.0 L9.0 2.0 7.0 2.0 7.0 -2.0 9.0 -2.0" fill="#cccccc" fill-rule="evenodd" stroke="none"/>
    <path d="M8.0 -2.0 L9.0 -2.0 9.0 2.0 8.0 2.0 8.0 -2.0" fill="#cccccc" fill-rule="evenodd" stroke="none"/>
    <path d="M8.0 2.0 L7.0 2.0 7.0 -2.0 8.0 -2.0 8.0 2.0" fill="#000000" fill-opacity="0.2509804" fill-rule="evenodd" stroke="none"/>
  </g>
</svg>
