<?xml version="1.0" encoding="UTF-8" standalone="no"?>
<svg xmlns:xlink="http://www.w3.org/1999/xlink" height="9.9px" width="7.7px" xmlns="http://www.w3.org/2000/svg">
  <g transform="matrix(1, 0, 0, 1, -4.75, 19.8)">
    <path d="M8.7 -17.25 L9.65 -19.0 Q9.9 -19.55 10.5 -19.7 L11.65 -19.6 12.4 -18.75 Q12.55 -18.15 12.3 -17.6 L12.1 -17.25 8.7 -17.25 M11.6 -16.25 L8.75 -11.0 5.35 -11.0 8.2 -16.25 11.6 -16.25 M8.2 -10.0 L8.15 -9.9 4.75 -9.9 4.8 -10.0 8.2 -10.0" fill="#eeeeee" fill-rule="evenodd" stroke="none"/>
    <path d="M12.1 -17.25 L11.6 -16.25 8.2 -16.25 8.7 -17.25 12.1 -17.25 M8.75 -11.0 L8.2 -10.0 4.8 -10.0 5.35 -11.0 8.75 -11.0" fill="#949494" fill-rule="evenodd" stroke="none"/>
  </g>
</svg>
