<?xml version="1.0" encoding="UTF-8" standalone="no"?>
<svg xmlns:xlink="http://www.w3.org/1999/xlink" height="12.0px" width="12.0px" xmlns="http://www.w3.org/2000/svg">
  <g transform="matrix(1, 0, 0, 1, 6.0, 6.0)">
    <path d="M3.5 -3.55 L4.15 -2.75 3.45 -2.05 3.9 -1.0 4.9 -1.0 5.0 0.0 4.9 1.0 3.9 1.0 3.45 2.05 4.15 2.75 3.5 3.5 2.75 4.15 2.05 3.45 1.0 3.9 1.0 4.9 0.0 5.0 -1.0 4.9 -1.0 3.9 -2.0 3.45 -2.75 4.15 -3.55 3.5 -4.15 2.8 -3.4 2.05 -3.85 1.0 -4.9 1.0 -5.0 0.0 -4.9 -1.0 -3.85 -1.0 -3.45 -2.05 -4.15 -2.75 -3.55 -3.55 -2.75 -4.15 -2.05 -3.45 -1.0 -3.85 -1.0 -4.9 0.0 -5.0 1.0 -4.9 1.0 -3.85 2.05 -3.45 2.8 -4.15 3.5 -3.55" fill="none" stroke="#242424" stroke-linecap="round" stroke-linejoin="round" stroke-width="2.0"/>
    <path d="M3.5 -3.55 L4.15 -2.75 3.45 -2.05 3.9 -1.0 4.9 -1.0 5.0 0.0 4.9 1.0 3.9 1.0 3.45 2.05 4.15 2.75 3.5 3.5 2.75 4.15 2.05 3.45 1.0 3.9 1.0 4.9 0.0 5.0 -1.0 4.9 -1.0 3.9 -2.0 3.45 -2.75 4.15 -3.55 3.5 -4.15 2.8 -3.4 2.05 -3.85 1.0 -4.9 1.0 -5.0 0.0 -4.9 -1.0 -3.85 -1.0 -3.45 -2.05 -4.15 -2.75 -3.55 -3.55 -2.75 -4.15 -2.05 -3.45 -1.0 -3.85 -1.0 -4.9 0.0 -5.0 1.0 -4.9 1.0 -3.85 2.05 -3.45 2.8 -4.15 3.5 -3.55 M1.4 -1.4 Q0.8 -2.0 0.0 -2.0 -0.8 -2.0 -1.45 -1.4 -2.0 -0.8 -2.0 0.0 -2.0 0.85 -1.45 1.4 -0.8 2.0 0.0 2.0 0.8 2.0 1.4 1.4 2.0 0.85 2.0 0.0 2.0 -0.8 1.4 -1.4" fill="url(#gradient0)" fill-rule="evenodd" stroke="none"/>
    <path d="M1.4 -1.4 Q2.0 -0.8 2.0 0.0 2.0 0.85 1.4 1.4 0.8 2.0 0.0 2.0 -0.8 2.0 -1.45 1.4 -2.0 0.85 -2.0 0.0 -2.0 -0.8 -1.45 -1.4 -0.8 -2.0 0.0 -2.0 0.8 -2.0 1.4 -1.4" fill="url(#gradient1)" fill-rule="evenodd" stroke="none"/>
  </g>
  <defs>
    <linearGradient gradientTransform="matrix(0.0, -0.0061, 0.0061, 0.0, 0.0, 0.0)" gradientUnits="userSpaceOnUse" id="gradient0" spreadMethod="pad" x1="-819.2" x2="819.2">
      <stop offset="0.0" stop-color="#333333"/>
      <stop offset="1.0" stop-color="#666666"/>
    </linearGradient>
    <radialGradient cx="0" cy="0" gradientTransform="matrix(0.0032, 0.0, 0.0, 0.0032, -0.6, -0.6)" gradientUnits="userSpaceOnUse" id="gradient1" r="819.2" spreadMethod="pad">
      <stop offset="0.0" stop-color="#333333"/>
      <stop offset="1.0" stop-color="#202020"/>
    </radialGradient>
  </defs>
</svg>
