<?xml version="1.0" encoding="UTF-8" standalone="no"?>
<svg xmlns:xlink="http://www.w3.org/1999/xlink" height="8.9px" width="7.7px" xmlns="http://www.w3.org/2000/svg">
  <g transform="matrix(1, 0, 0, 1, -4.8, 18.95)">
    <path d="M8.65 -16.4 L9.75 -18.2 Q10.05 -18.75 10.65 -18.9 L11.1 -18.95 11.8 -18.7 12.45 -17.8 Q12.6 -17.2 12.3 -16.65 L12.1 -16.4 8.65 -16.4 M11.5 -15.4 L8.95 -11.15 5.5 -11.15 8.05 -15.4 11.5 -15.4 M8.35 -10.15 L8.3 -10.05 4.8 -10.05 4.85 -10.15 8.35 -10.15" fill="#eeeeee" fill-rule="evenodd" stroke="none"/>
    <path d="M12.1 -16.4 L11.5 -15.4 8.05 -15.4 8.65 -16.4 12.1 -16.4 M8.95 -11.15 L8.35 -10.15 4.85 -10.15 5.5 -11.15 8.95 -11.15" fill="#7b7b7b" fill-rule="evenodd" stroke="none"/>
  </g>
</svg>
