<?xml version="1.0" encoding="UTF-8" standalone="no"?>
<svg xmlns:xlink="http://www.w3.org/1999/xlink" height="8.0px" width="7.8px" xmlns="http://www.w3.org/2000/svg">
  <g transform="matrix(1, 0, 0, 1, -4.75, 19.25)">
    <path d="M8.5 -16.7 L9.85 -18.6 Q10.15 -19.1 10.8 -19.2 11.4 -19.35 11.9 -18.95 L12.0 -18.9 12.55 -18.0 Q12.65 -17.4 12.3 -16.9 L12.15 -16.7 8.5 -16.7 M11.45 -15.7 L9.15 -12.35 5.5 -12.35 7.8 -15.7 11.45 -15.7 M8.45 -11.35 L8.4 -11.25 4.75 -11.25 4.85 -11.35 8.45 -11.35" fill="#eeeeee" fill-rule="evenodd" stroke="none"/>
    <path d="M12.15 -16.7 L11.45 -15.7 7.8 -15.7 8.5 -16.7 12.15 -16.7 M9.15 -12.35 L8.45 -11.35 4.85 -11.35 5.5 -12.35 9.15 -12.35" fill="#7b7b7b" fill-rule="evenodd" stroke="none"/>
  </g>
</svg>
