<?xml version="1.0" encoding="UTF-8" standalone="no"?>
<svg xmlns:xlink="http://www.w3.org/1999/xlink" height="8.25px" width="7.7px" xmlns="http://www.w3.org/2000/svg">
  <g transform="matrix(1, 0, 0, 1, -4.8, 19.8)">
    <path d="M8.55 -17.3 L9.75 -19.1 10.7 -19.75 10.85 -19.8 11.85 -19.55 12.5 -18.6 Q12.6 -18.0 12.25 -17.45 L12.15 -17.3 8.55 -17.3 M11.5 -16.3 L9.1 -12.65 5.55 -12.65 7.9 -16.3 11.5 -16.3 M8.45 -11.65 L8.4 -11.55 4.8 -11.55 4.9 -11.65 8.45 -11.65" fill="#eeeeee" fill-rule="evenodd" stroke="none"/>
    <path d="M12.15 -17.3 L11.5 -16.3 7.9 -16.3 8.55 -17.3 12.15 -17.3 M9.1 -12.65 L8.45 -11.65 4.9 -11.65 5.55 -12.65 9.1 -12.65" fill="#7b7b7b" fill-rule="evenodd" stroke="none"/>
  </g>
</svg>
