<?xml version="1.0" encoding="UTF-8" standalone="no"?>
<svg xmlns:xlink="http://www.w3.org/1999/xlink" height="9.1px" width="7.8px" xmlns="http://www.w3.org/2000/svg">
  <g transform="matrix(1, 0, 0, 1, -4.75, 20.95)">
    <path d="M8.65 -18.35 L9.75 -20.2 Q10.05 -20.75 10.7 -20.9 L11.8 -20.75 12.2 -20.4 12.5 -19.8 Q12.65 -19.25 12.35 -18.7 L12.15 -18.35 8.65 -18.35 M11.55 -17.35 L8.9 -12.95 5.4 -12.95 8.05 -17.35 11.55 -17.35 M8.3 -11.95 L8.25 -11.85 4.75 -11.85 4.8 -11.95 8.3 -11.95" fill="#eeeeee" fill-rule="evenodd" stroke="none"/>
    <path d="M12.15 -18.35 L11.55 -17.35 8.05 -17.35 8.65 -18.35 12.15 -18.35 M8.9 -12.95 L8.3 -11.95 4.8 -11.95 5.4 -12.95 8.9 -12.95" fill="#747474" fill-rule="evenodd" stroke="none"/>
  </g>
</svg>
