<?xml version="1.0" encoding="UTF-8" standalone="no"?>
<svg xmlns:xlink="http://www.w3.org/1999/xlink" height="9.25px" width="7.8px" xmlns="http://www.w3.org/2000/svg">
  <g transform="matrix(1, 0, 0, 1, -4.75, 21.15)">
    <path d="M8.75 -18.65 L9.75 -20.4 Q10.05 -20.95 10.7 -21.1 L10.8 -21.1 11.8 -20.95 Q12.35 -20.65 12.5 -20.0 12.65 -19.45 12.35 -18.9 L12.2 -18.65 8.75 -18.65 M11.65 -17.65 L8.9 -13.0 5.4 -13.0 8.15 -17.65 11.65 -17.65 M8.3 -12.0 L8.25 -11.9 4.75 -11.9 4.8 -12.0 8.3 -12.0" fill="#eeeeee" fill-rule="evenodd" stroke="none"/>
    <path d="M12.2 -18.65 L11.65 -17.65 8.15 -17.65 8.75 -18.65 12.2 -18.65 M8.9 -13.0 L8.3 -12.0 4.8 -12.0 5.4 -13.0 8.9 -13.0" fill="#747474" fill-rule="evenodd" stroke="none"/>
  </g>
</svg>
