<?xml version="1.0" encoding="UTF-8" standalone="no"?>
<svg xmlns:xlink="http://www.w3.org/1999/xlink" height="100.0px" width="100.0px" xmlns="http://www.w3.org/2000/svg">
  <g transform="matrix(1, 0, 0, 1, 50.0, 50.0)">
    <path d="M-50.0 0.0 Q-50.0 20.75 -35.4 35.35 -20.75 50.0 0.0 50.0 20.75 50.0 35.35 35.35 50.0 20.75 50.0 0.0 50.0 -20.75 35.35 -35.4 20.75 -50.0 0.0 -50.0 -20.75 -50.0 -35.4 -35.4 -50.0 -20.75 -50.0 0.0" fill="#ffffff" fill-rule="evenodd" stroke="none">
      <animate attributeName="fill" dur="2s" repeatCount="indefinite" values="#ffffff;#ffffff"/>
      <animate attributeName="fill-opacity" dur="2s" repeatCount="indefinite" values="1.0;1.0"/>
      <animate attributeName="d" dur="2s" repeatCount="indefinite" values="M-50.0 0.0 Q-50.0 20.75 -35.4 35.35 -20.75 50.0 0.0 50.0 20.75 50.0 35.35 35.35 50.0 20.75 50.0 0.0 50.0 -20.75 35.35 -35.4 20.75 -50.0 0.0 -50.0 -20.75 -50.0 -35.4 -35.4 -50.0 -20.75 -50.0 0.0;M-1.0 0.0 Q-0.85 0.35 -0.7 0.7 -0.35 0.85 0.0 1.0 0.35 0.85 0.7 0.7 0.85 0.35 1.0 0.0 0.85 -0.35 0.7 -0.7 0.35 -0.85 0.0 -1.0 -0.35 -0.85 -0.7 -0.7 -0.85 -0.35 -1.0 0.0"/>
    </path>
    <path d="M-50.0 0.0 Q-50.0 -20.75 -35.4 -35.4 -20.75 -50.0 0.0 -50.0 20.75 -50.0 35.35 -35.4 50.0 -20.75 50.0 0.0 50.0 20.75 35.35 35.35 20.75 50.0 0.0 50.0 -20.75 50.0 -35.4 35.35 -50.0 20.75 -50.0 0.0" fill="none" stroke="#000000" stroke-linecap="round" stroke-linejoin="round" stroke-opacity="0.0" stroke-width="1.0">
      <animate attributeName="stroke" dur="2s" repeatCount="indefinite" values="#000000;#000001"/>
      <animate attributeName="stroke-width" dur="2s" repeatCount="indefinite" values="0.0;0.0"/>
      <animate attributeName="fill-opacity" dur="2s" repeatCount="indefinite" values="0.0;0.0"/>
      <animate attributeName="d" dur="2s" repeatCount="indefinite" values="M-50.0 0.0 Q-50.0 -20.75 -35.4 -35.4 -20.75 -50.0 0.0 -50.0 20.75 -50.0 35.35 -35.4 50.0 -20.75 50.0 0.0 50.0 20.75 35.35 35.35 20.75 50.0 0.0 50.0 -20.75 50.0 -35.4 35.35 -50.0 20.75 -50.0 0.0;M-1.0 0.0 Q-0.85 -0.35 -0.7 -0.7 -0.35 -0.85 0.0 -1.0 0.35 -0.85 0.7 -0.7 0.85 -0.35 1.0 0.0 0.85 0.35 0.7 0.7 0.35 0.85 0.0 1.0 -0.35 0.85 -0.7 0.7 -0.85 0.35 -1.0 0.0"/>
    </path>
  </g>
</svg>
