<?xml version="1.0" encoding="UTF-8" standalone="no"?>
<svg xmlns:xlink="http://www.w3.org/1999/xlink" height="16.0px" width="64.0px" xmlns="http://www.w3.org/2000/svg">
  <g transform="matrix(1, 0, 0, 1, 6.0, 7.8)">
    <path d="M44.0 0.2 Q44.0 -2.25 45.8 -4.05 47.55 -5.8 50.0 -5.8 52.5 -5.8 54.3 -4.05 56.0 -2.25 56.0 0.2 56.0 2.7 54.3 4.4 52.5 6.2 50.0 6.2 47.55 6.2 45.8 4.4 44.0 2.7 44.0 0.2 44.0 -2.25 45.8 -4.05 47.55 -5.8 50.0 -5.8 52.5 -5.8 54.3 -4.05 56.0 -2.25 56.0 0.2 56.0 2.7 54.3 4.4 52.5 6.2 50.0 6.2 47.55 6.2 45.8 4.4 44.0 2.7 44.0 0.2" fill="none" stroke="#0060ff" stroke-linecap="round" stroke-linejoin="round" stroke-width="4.0">
      <animate attributeName="stroke" dur="2s" repeatCount="indefinite" values="#0060ff;#0060ff"/>
      <animate attributeName="stroke-width" dur="2s" repeatCount="indefinite" values="4.0;4.0"/>
      <animate attributeName="fill-opacity" dur="2s" repeatCount="indefinite" values="1.0;1.0"/>
      <animate attributeName="d" dur="2s" repeatCount="indefinite" values="M44.0 0.2 Q44.0 -2.25 45.8 -4.05 47.55 -5.8 50.0 -5.8 52.5 -5.8 54.3 -4.05 56.0 -2.25 56.0 0.2 56.0 2.7 54.3 4.4 52.5 6.2 50.0 6.2 47.55 6.2 45.8 4.4 44.0 2.7 44.0 0.2 44.0 -2.25 45.8 -4.05 47.55 -5.8 50.0 -5.8 52.5 -5.8 54.3 -4.05 56.0 -2.25 56.0 0.2 56.0 2.7 54.3 4.4 52.5 6.2 50.0 6.2 47.55 6.2 45.8 4.4 44.0 2.7 44.0 0.2;M-4.0 0.0 Q-4.0 -1.65 -2.8 -2.85 -1.65 -4.0 0.0 -4.0 1.65 -4.0 2.85 -2.85 4.0 -1.65 4.0 0.0 4.0 1.65 2.85 2.8 1.65 4.0 0.0 4.0 -1.65 4.0 -2.8 2.8 -4.0 1.65 -4.0 0.0 -4.0 -1.65 -2.8 -2.85 -1.65 -4.0 0.0 -4.0 1.65 -4.0 2.85 -2.85 4.0 -1.65 4.0 0.0 4.0 1.65 2.85 2.8 1.65 4.0 0.0 4.0 -1.65 4.0 -2.8 2.8 -4.0 1.65 -4.0 0.0"/>
    </path>
  </g>
</svg>
