<?xml version="1.0" encoding="UTF-8" standalone="no"?>
<svg xmlns:xlink="http://www.w3.org/1999/xlink" height="16.0px" width="64.0px" xmlns="http://www.w3.org/2000/svg">
  <g transform="matrix(1, 0, 0, 1, 58.0, 7.8)">
    <path d="M-56.0 0.2 Q-56.0 -2.25 -54.2 -4.05 -52.45 -5.8 -50.0 -5.8 -47.5 -5.8 -45.7 -4.05 -44.0 -2.25 -44.0 0.2 -44.0 2.7 -45.7 4.4 -47.5 6.2 -50.0 6.2 -52.45 6.2 -54.2 4.4 -56.0 2.7 -56.0 0.2 -56.0 -2.25 -54.2 -4.05 -52.45 -5.8 -50.0 -5.8 -47.5 -5.8 -45.7 -4.05 -44.0 -2.25 -44.0 0.2 -44.0 2.7 -45.7 4.4 -47.5 6.2 -50.0 6.2 -52.45 6.2 -54.2 4.4 -56.0 2.7 -56.0 0.2" fill="none" stroke="#0060ff" stroke-linecap="round" stroke-linejoin="round" stroke-width="4.0">
      <animate attributeName="stroke" dur="2s" repeatCount="indefinite" values="#0060ff;#0060ff"/>
      <animate attributeName="stroke-width" dur="2s" repeatCount="indefinite" values="4.0;4.0"/>
      <animate attributeName="fill-opacity" dur="2s" repeatCount="indefinite" values="1.0;1.0"/>
      <animate attributeName="d" dur="2s" repeatCount="indefinite" values="M-56.0 0.2 Q-56.0 -2.25 -54.2 -4.05 -52.45 -5.8 -50.0 -5.8 -47.5 -5.8 -45.7 -4.05 -44.0 -2.25 -44.0 0.2 -44.0 2.7 -45.7 4.4 -47.5 6.2 -50.0 6.2 -52.45 6.2 -54.2 4.4 -56.0 2.7 -56.0 0.2 -56.0 -2.25 -54.2 -4.05 -52.45 -5.8 -50.0 -5.8 -47.5 -5.8 -45.7 -4.05 -44.0 -2.25 -44.0 0.2 -44.0 2.7 -45.7 4.4 -47.5 6.2 -50.0 6.2 -52.45 6.2 -54.2 4.4 -56.0 2.7 -56.0 0.2;M-4.0 0.0 Q-4.0 -1.65 -2.8 -2.85 -1.65 -4.0 0.0 -4.0 1.65 -4.0 2.85 -2.85 4.0 -1.65 4.0 0.0 4.0 1.65 2.85 2.8 1.65 4.0 0.0 4.0 -1.65 4.0 -2.8 2.8 -4.0 1.65 -4.0 0.0 -4.0 -1.65 -2.8 -2.85 -1.65 -4.0 0.0 -4.0 1.65 -4.0 2.85 -2.85 4.0 -1.65 4.0 0.0 4.0 1.65 2.85 2.8 1.65 4.0 0.0 4.0 -1.65 4.0 -2.8 2.8 -4.0 1.65 -4.0 0.0"/>
    </path>
  </g>
</svg>
