<?xml version="1.0" encoding="UTF-8" standalone="no"?>
<svg xmlns:xlink="http://www.w3.org/1999/xlink" height="15.05px" width="66.0px" xmlns="http://www.w3.org/2000/svg">
  <g transform="matrix(1, 0, 0, 1, 58.5, 7.55)">
    <path d="M-57.0 -0.05 Q-57.0 -2.5 -55.2 -4.3 -53.45 -6.05 -51.0 -6.05 -48.5 -6.05 -46.7 -4.3 -45.0 -2.5 -45.0 -0.05 -45.0 2.45 -46.7 4.15 -48.5 5.95 -51.0 5.95 -53.45 5.95 -55.2 4.15 -57.0 2.45 -57.0 -0.05 -57.0 -2.5 -55.2 -4.3 -53.45 -6.05 -51.0 -6.05 -48.5 -6.05 -46.7 -4.3 -45.0 -2.5 -45.0 -0.05 -45.0 2.45 -46.7 4.15 -48.5 5.95 -51.0 5.95 -53.45 5.95 -55.2 4.15 -57.0 2.45 -57.0 -0.05" fill="none" stroke="#990000" stroke-linecap="round" stroke-linejoin="round" stroke-width="3.0">
      <animate attributeName="stroke" dur="2s" repeatCount="indefinite" values="#990000;#990001"/>
      <animate attributeName="stroke-width" dur="2s" repeatCount="indefinite" values="3.0;3.0"/>
      <animate attributeName="fill-opacity" dur="2s" repeatCount="indefinite" values="1.0;1.0"/>
      <animate attributeName="d" dur="2s" repeatCount="indefinite" values="M-57.0 -0.05 Q-57.0 -2.5 -55.2 -4.3 -53.45 -6.05 -51.0 -6.05 -48.5 -6.05 -46.7 -4.3 -45.0 -2.5 -45.0 -0.05 -45.0 2.45 -46.7 4.15 -48.5 5.95 -51.0 5.95 -53.45 5.95 -55.2 4.15 -57.0 2.45 -57.0 -0.05 -57.0 -2.5 -55.2 -4.3 -53.45 -6.05 -51.0 -6.05 -48.5 -6.05 -46.7 -4.3 -45.0 -2.5 -45.0 -0.05 -45.0 2.45 -46.7 4.15 -48.5 5.95 -51.0 5.95 -53.45 5.95 -55.2 4.15 -57.0 2.45 -57.0 -0.05;M-6.0 0.0 Q-6.0 -2.45 -4.2 -4.25 -2.45 -6.0 0.0 -6.0 2.5 -6.0 4.3 -4.25 6.0 -2.45 6.0 0.0 6.0 2.5 4.3 4.2 2.5 6.0 0.0 6.0 -2.45 6.0 -4.2 4.2 -6.0 2.5 -6.0 0.0 -6.0 -2.45 -4.2 -4.25 -2.45 -6.0 0.0 -6.0 2.5 -6.0 4.3 -4.25 6.0 -2.45 6.0 0.0 6.0 2.5 4.3 4.2 2.5 6.0 0.0 6.0 -2.45 6.0 -4.2 4.2 -6.0 2.5 -6.0 0.0"/>
    </path>
  </g>
</svg>
