<?xml version="1.0" encoding="UTF-8" standalone="no"?>
<svg xmlns:xlink="http://www.w3.org/1999/xlink" height="18.0px" width="66.0px" xmlns="http://www.w3.org/2000/svg">
  <g transform="matrix(1, 0, 0, 1, 59.0, 9.0)">
    <path d="M-4.0 0.0 Q-4.0 -1.65 -2.8 -2.85 -1.65 -4.0 0.0 -4.0 1.65 -4.0 2.85 -2.85 4.0 -1.65 4.0 0.0 4.0 1.65 2.85 2.8 1.65 4.0 0.0 4.0 -1.65 4.0 -2.8 2.8 -4.0 1.65 -4.0 0.0 -4.0 -1.65 -2.8 -2.85 -1.65 -4.0 0.0 -4.0 1.65 -4.0 2.85 -2.85 4.0 -1.65 4.0 0.0 4.0 1.65 2.85 2.8 1.65 4.0 0.0 4.0 -1.65 4.0 -2.8 2.8 -4.0 1.65 -4.0 0.0" fill="none" stroke="#0043b3" stroke-linecap="round" stroke-linejoin="round" stroke-width="6.0">
      <animate attributeName="stroke" dur="2s" repeatCount="indefinite" values="#0043b3;#0043b4"/>
      <animate attributeName="stroke-width" dur="2s" repeatCount="indefinite" values="6.0;6.0"/>
      <animate attributeName="fill-opacity" dur="2s" repeatCount="indefinite" values="1.0;1.0"/>
      <animate attributeName="d" dur="2s" repeatCount="indefinite" values="M-4.0 0.0 Q-4.0 -1.65 -2.8 -2.85 -1.65 -4.0 0.0 -4.0 1.65 -4.0 2.85 -2.85 4.0 -1.65 4.0 0.0 4.0 1.65 2.85 2.8 1.65 4.0 0.0 4.0 -1.65 4.0 -2.8 2.8 -4.0 1.65 -4.0 0.0 -4.0 -1.65 -2.8 -2.85 -1.65 -4.0 0.0 -4.0 1.65 -4.0 2.85 -2.85 4.0 -1.65 4.0 0.0 4.0 1.65 2.85 2.8 1.65 4.0 0.0 4.0 -1.65 4.0 -2.8 2.8 -4.0 1.65 -4.0 0.0;M-56.0 0.0 Q-56.0 -2.45 -54.2 -4.25 -52.45 -6.0 -50.0 -6.0 -47.5 -6.0 -45.7 -4.25 -44.0 -2.45 -44.0 0.0 -44.0 2.5 -45.7 4.2 -47.5 6.0 -50.0 6.0 -52.45 6.0 -54.2 4.2 -56.0 2.5 -56.0 0.0 -56.0 -2.45 -54.2 -4.25 -52.45 -6.0 -50.0 -6.0 -47.5 -6.0 -45.7 -4.25 -44.0 -2.45 -44.0 0.0 -44.0 2.5 -45.7 4.2 -47.5 6.0 -50.0 6.0 -52.45 6.0 -54.2 4.2 -56.0 2.5 -56.0 0.0"/>
    </path>
  </g>
</svg>
