<?xml version="1.0" encoding="UTF-8" standalone="no"?>
<svg xmlns:xlink="http://www.w3.org/1999/xlink" height="83.0px" width="41.5px" xmlns="http://www.w3.org/2000/svg">
  <g transform="matrix(1, 0, 0, 1, 20.75, 41.5)">
    <path d="M-0.7 0.0 Q-0.55 0.55 -0.45 1.05 -0.2 1.25 0.0 1.4 0.25 1.2 0.5 1.05 0.6 0.5 0.7 0.0 0.6 -0.5 0.5 -1.0 0.25 -1.2 0.0 -1.4 -0.3 -1.4 -0.45 -1.0 -0.6 -0.5 -0.7 0.0 M-7.1 0.0 Q-7.1 6.1 -5.05 10.4 -2.9 14.8 0.0 14.8 2.9 14.8 5.0 10.4 7.1 6.1 7.1 0.0 7.1 -6.1 5.0 -10.55 2.9 -14.8 0.0 -14.8 -2.9 -14.8 -5.05 -10.55 -7.1 -6.1 -7.1 0.0" fill="#ffffff" fill-opacity="0.6862745" fill-rule="evenodd" stroke="none">
      <animate attributeName="fill" dur="2s" repeatCount="indefinite" values="#ffffff;#ffffff"/>
      <animate attributeName="fill-opacity" dur="2s" repeatCount="indefinite" values="0.6862745;0.0"/>
      <animate attributeName="d" dur="2s" repeatCount="indefinite" values="M-0.7 0.0 Q-0.55 0.55 -0.45 1.05 -0.2 1.25 0.0 1.4 0.25 1.2 0.5 1.05 0.6 0.5 0.7 0.0 0.6 -0.5 0.5 -1.0 0.25 -1.2 0.0 -1.4 -0.3 -1.4 -0.45 -1.0 -0.6 -0.5 -0.7 0.0 M-7.1 0.0 Q-7.1 6.1 -5.05 10.4 -2.9 14.8 0.0 14.8 2.9 14.8 5.0 10.4 7.1 6.1 7.1 0.0 7.1 -6.1 5.0 -10.55 2.9 -14.8 0.0 -14.8 -2.9 -14.8 -5.05 -10.55 -7.1 -6.1 -7.1 0.0;M-19.9 0.0 Q-19.9 16.55 -14.1 28.15 -8.25 39.85 0.0 39.85 8.25 39.85 14.1 28.15 19.9 16.55 19.9 0.0 19.9 -16.55 14.1 -28.2 8.25 -39.85 0.0 -39.85 -8.25 -39.85 -14.1 -28.2 -19.9 -16.55 -19.9 0.0 M-20.75 0.0 Q-20.75 17.2 -14.65 29.3 -8.6 41.5 0.0 41.5 8.6 41.5 14.65 29.3 20.75 17.2 20.75 0.0 20.75 -17.15 14.65 -29.3 8.6 -41.5 0.0 -41.5 -8.6 -41.5 -14.65 -29.3 -20.75 -17.15 -20.75 0.0"/>
    </path>
    <path d="M-7.1 0.0 Q-7.1 -6.1 -5.05 -10.55 -2.9 -14.8 0.0 -14.8 2.9 -14.8 5.0 -10.55 7.1 -6.1 7.1 0.0 7.1 6.1 5.0 10.4 2.9 14.8 0.0 14.8 -2.9 14.8 -5.05 10.4 -7.1 6.1 -7.1 0.0 M-0.7 0.0 Q-0.6 -0.5 -0.45 -1.0 -0.3 -1.4 0.0 -1.4 0.25 -1.2 0.5 -1.0 0.6 -0.5 0.7 0.0 0.6 0.5 0.5 1.05 0.25 1.2 0.0 1.4 -0.2 1.25 -0.45 1.05 -0.55 0.55 -0.7 0.0" fill="none" stroke="#000000" stroke-linecap="round" stroke-linejoin="round" stroke-opacity="0.0" stroke-width="1.0">
      <animate attributeName="stroke" dur="2s" repeatCount="indefinite" values="#000000;#000001"/>
      <animate attributeName="stroke-width" dur="2s" repeatCount="indefinite" values="0.0;0.0"/>
      <animate attributeName="fill-opacity" dur="2s" repeatCount="indefinite" values="0.0;0.0"/>
      <animate attributeName="d" dur="2s" repeatCount="indefinite" values="M-7.1 0.0 Q-7.1 -6.1 -5.05 -10.55 -2.9 -14.8 0.0 -14.8 2.9 -14.8 5.0 -10.55 7.1 -6.1 7.1 0.0 7.1 6.1 5.0 10.4 2.9 14.8 0.0 14.8 -2.9 14.8 -5.05 10.4 -7.1 6.1 -7.1 0.0 M-0.7 0.0 Q-0.6 -0.5 -0.45 -1.0 -0.3 -1.4 0.0 -1.4 0.25 -1.2 0.5 -1.0 0.6 -0.5 0.7 0.0 0.6 0.5 0.5 1.05 0.25 1.2 0.0 1.4 -0.2 1.25 -0.45 1.05 -0.55 0.55 -0.7 0.0;M-20.75 0.0 Q-20.75 -17.15 -14.65 -29.3 -8.6 -41.5 0.0 -41.5 8.6 -41.5 14.65 -29.3 20.75 -17.15 20.75 0.0 20.75 17.2 14.65 29.3 8.6 41.5 0.0 41.5 -8.6 41.5 -14.65 29.3 -20.75 17.2 -20.75 0.0 M-19.9 0.0 Q-19.9 -16.55 -14.1 -28.2 -8.25 -39.85 0.0 -39.85 8.25 -39.85 14.1 -28.2 19.9 -16.55 19.9 0.0 19.9 16.55 14.1 28.15 8.25 39.85 0.0 39.85 -8.25 39.85 -14.1 28.15 -19.9 16.55 -19.9 0.0"/>
    </path>
  </g>
</svg>
