<?xml version="1.0" encoding="UTF-8" standalone="no"?>
<svg xmlns:xlink="http://www.w3.org/1999/xlink" height="15.05px" width="66.0px" xmlns="http://www.w3.org/2000/svg">
  <g transform="matrix(1, 0, 0, 1, 7.5, 7.55)">
    <path d="M-6.0 0.0 Q-6.0 -2.45 -4.2 -4.25 -2.45 -6.0 0.0 -6.0 2.5 -6.0 4.3 -4.25 6.0 -2.45 6.0 0.0 6.0 2.5 4.3 4.2 2.5 6.0 0.0 6.0 -2.45 6.0 -4.2 4.2 -6.0 2.5 -6.0 0.0 -6.0 -2.45 -4.2 -4.25 -2.45 -6.0 0.0 -6.0 2.5 -6.0 4.3 -4.25 6.0 -2.45 6.0 0.0 6.0 2.5 4.3 4.2 2.5 6.0 0.0 6.0 -2.45 6.0 -4.2 4.2 -6.0 2.5 -6.0 0.0" fill="none" stroke="#990000" stroke-linecap="round" stroke-linejoin="round" stroke-width="3.0">
      <animate attributeName="stroke" dur="2s" repeatCount="indefinite" values="#990000;#990001"/>
      <animate attributeName="stroke-width" dur="2s" repeatCount="indefinite" values="3.0;3.0"/>
      <animate attributeName="fill-opacity" dur="2s" repeatCount="indefinite" values="1.0;1.0"/>
      <animate attributeName="d" dur="2s" repeatCount="indefinite" values="M-6.0 0.0 Q-6.0 -2.45 -4.2 -4.25 -2.45 -6.0 0.0 -6.0 2.5 -6.0 4.3 -4.25 6.0 -2.45 6.0 0.0 6.0 2.5 4.3 4.2 2.5 6.0 0.0 6.0 -2.45 6.0 -4.2 4.2 -6.0 2.5 -6.0 0.0 -6.0 -2.45 -4.2 -4.25 -2.45 -6.0 0.0 -6.0 2.5 -6.0 4.3 -4.25 6.0 -2.45 6.0 0.0 6.0 2.5 4.3 4.2 2.5 6.0 0.0 6.0 -2.45 6.0 -4.2 4.2 -6.0 2.5 -6.0 0.0;M45.0 -0.05 Q45.0 -2.5 46.8 -4.3 48.55 -6.05 51.0 -6.05 53.5 -6.05 55.3 -4.3 57.0 -2.5 57.0 -0.05 57.0 2.45 55.3 4.15 53.5 5.95 51.0 5.95 48.55 5.95 46.8 4.15 45.0 2.45 45.0 -0.05 45.0 -2.5 46.8 -4.3 48.55 -6.05 51.0 -6.05 53.5 -6.05 55.3 -4.3 57.0 -2.5 57.0 -0.05 57.0 2.45 55.3 4.15 53.5 5.95 51.0 5.95 48.55 5.95 46.8 4.15 45.0 2.45 45.0 -0.05"/>
    </path>
  </g>
</svg>
