<?xml version="1.0" encoding="UTF-8" standalone="no"?>
<svg xmlns:xlink="http://www.w3.org/1999/xlink" height="30.7px" width="32.3px" xmlns="http://www.w3.org/2000/svg">
  <g transform="matrix(1, 0, 0, 1, 19.45, 73.75)">
    <path d="M-5.25 -59.05 L-4.05 -59.0 Q-4.0 -59.2 -3.95 -59.35 -3.8 -59.45 -3.65 -59.5 -3.45 -59.4 -3.3 -59.35 -3.25 -59.2 -3.2 -59.05 -3.3 -58.85 -3.4 -58.65 -3.55 -58.5 -3.8 -58.45 L-3.9 -58.4 -4.25 -58.45 -4.25 -57.3 -3.1 -57.3 -3.1 -57.7 Q-2.7 -57.95 -2.35 -58.2 -2.0 -58.5 -2.0 -59.0 -2.1 -59.3 -2.15 -59.6 L-2.55 -60.05 Q-3.1 -60.25 -3.6 -60.45 -4.25 -60.45 -4.75 -60.05 -5.25 -59.7 -5.25 -59.05 M-8.2 -59.5 Q-8.2 -58.8 -7.8 -58.25 -8.2 -57.7 -8.2 -56.95 -8.2 -56.05 -7.6 -55.45 -7.0 -54.8 -6.1 -54.8 -5.5 -54.8 -5.05 -55.1 -4.8 -54.75 -4.6 -54.4 -3.95 -53.75 -3.1 -53.75 -2.2 -53.75 -1.6 -54.4 L-1.35 -54.65 -0.55 -54.5 Q0.35 -54.5 0.95 -55.15 1.6 -55.8 1.6 -56.65 1.6 -57.4 1.15 -57.95 L0.95 -58.15 1.0 -58.3 Q1.15 -58.9 1.3 -59.45 1.3 -60.2 0.9 -60.75 L0.7 -60.95 Q0.05 -61.55 -0.8 -61.55 -1.2 -61.45 -1.6 -61.4 -1.8 -61.85 -2.0 -62.25 L-2.2 -62.45 Q-2.8 -63.1 -3.7 -63.1 -4.6 -63.1 -5.2 -62.45 L-5.4 -62.25 Q-5.55 -61.9 -5.7 -61.6 L-6.1 -61.65 Q-7.0 -61.65 -7.6 -61.05 -8.2 -60.4 -8.2 -59.5 M-4.35 -56.35 Q-4.35 -56.05 -4.15 -55.85 -3.9 -55.75 -3.65 -55.65 -3.35 -55.65 -3.15 -55.85 -3.05 -56.1 -2.95 -56.35 -3.05 -56.6 -3.15 -56.85 -3.35 -57.05 -4.15 -56.85 -4.25 -56.6 -4.35 -56.35" fill="url(#gradient0)" fill-rule="evenodd" stroke="none">
      <animate attributeName="d" dur="2s" repeatCount="indefinite" values="M-5.25 -59.05 L-4.05 -59.0 Q-4.0 -59.2 -3.95 -59.35 -3.8 -59.45 -3.65 -59.5 -3.45 -59.4 -3.3 -59.35 -3.25 -59.2 -3.2 -59.05 -3.3 -58.85 -3.4 -58.65 -3.55 -58.5 -3.8 -58.45 L-3.9 -58.4 -4.25 -58.45 -4.25 -57.3 -3.1 -57.3 -3.1 -57.7 Q-2.7 -57.95 -2.35 -58.2 -2.0 -58.5 -2.0 -59.0 -2.1 -59.3 -2.15 -59.6 L-2.55 -60.05 Q-3.1 -60.25 -3.6 -60.45 -4.25 -60.45 -4.75 -60.05 -5.25 -59.7 -5.25 -59.05 M-8.2 -59.5 Q-8.2 -58.8 -7.8 -58.25 -8.2 -57.7 -8.2 -56.95 -8.2 -56.05 -7.6 -55.45 -7.0 -54.8 -6.1 -54.8 -5.5 -54.8 -5.05 -55.1 -4.8 -54.75 -4.6 -54.4 -3.95 -53.75 -3.1 -53.75 -2.2 -53.75 -1.6 -54.4 L-1.35 -54.65 -0.55 -54.5 Q0.35 -54.5 0.95 -55.15 1.6 -55.8 1.6 -56.65 1.6 -57.4 1.15 -57.95 L0.95 -58.15 1.0 -58.3 Q1.15 -58.9 1.3 -59.45 1.3 -60.2 0.9 -60.75 L0.7 -60.95 Q0.05 -61.55 -0.8 -61.55 -1.2 -61.45 -1.6 -61.4 -1.8 -61.85 -2.0 -62.25 L-2.2 -62.45 Q-2.8 -63.1 -3.7 -63.1 -4.6 -63.1 -5.2 -62.45 L-5.4 -62.25 Q-5.55 -61.9 -5.7 -61.6 L-6.1 -61.65 Q-7.0 -61.65 -7.6 -61.05 -8.2 -60.4 -8.2 -59.5 M-4.35 -56.35 Q-4.35 -56.05 -4.15 -55.85 -3.9 -55.75 -3.65 -55.65 -3.35 -55.65 -3.15 -55.85 -3.05 -56.1 -2.95 -56.35 -3.05 -56.6 -3.15 -56.85 -3.35 -57.05 -4.15 -56.85 -4.25 -56.6 -4.35 -56.35;M-9.7 -60.4 L-5.7 -60.35 Q-5.7 -61.0 -5.35 -61.45 -5.0 -61.9 -4.3 -61.9 -3.7 -61.9 -3.25 -61.45 -2.85 -61.0 -2.85 -60.4 -2.85 -59.55 -3.5 -59.1 -4.1 -58.6 -4.85 -58.45 L-5.15 -58.4 -6.3 -58.5 -6.3 -54.65 -2.6 -54.65 -2.6 -56.05 Q-1.1 -56.5 -0.05 -57.6 1.0 -58.65 1.0 -60.35 1.0 -61.35 0.5 -62.3 L-0.7 -63.8 Q-1.45 -64.45 -4.2 -65.05 -6.35 -65.05 -8.0 -63.85 -9.7 -62.65 -9.7 -60.4 M-19.45 -62.0 Q-19.45 -59.6 -18.0 -57.8 -19.45 -55.95 -19.45 -53.5 -19.45 -50.65 -17.4 -48.6 -15.35 -46.5 -12.45 -46.5 -10.55 -46.5 -9.0 -47.4 -8.5 -46.2 -7.45 -45.15 -5.4 -43.05 -2.5 -43.05 0.4 -43.05 2.45 -45.15 L3.25 -46.05 5.85 -45.55 Q8.75 -45.55 10.8 -47.65 12.85 -49.7 12.85 -52.55 12.85 -55.0 11.45 -56.85 L10.85 -57.5 10.95 -58.05 Q12.0 -59.7 12.0 -61.75 12.0 -64.2 10.6 -66.05 L9.95 -66.75 Q7.9 -68.75 5.0 -68.75 3.55 -68.75 2.3 -68.25 2.0 -69.8 1.05 -71.05 L0.4 -71.75 Q-1.65 -73.75 -4.55 -73.75 -7.45 -73.75 -9.5 -71.75 L-10.1 -71.05 Q-10.85 -70.05 -11.2 -68.9 L-12.45 -69.0 Q-15.35 -69.0 -17.4 -67.0 -19.45 -64.9 -19.45 -62.0 M-6.7 -51.55 Q-6.7 -50.55 -6.05 -49.9 -5.35 -49.2 -4.35 -49.2 -3.4 -49.2 -2.7 -49.9 -2.05 -50.55 -2.05 -51.5 -2.05 -52.5 -2.7 -53.2 -3.4 -53.85 -6.05 -53.2 -6.7 -52.5 -6.7 -51.55"/>
    </path>
    <path d="M-5.25 -59.05 L-4.05 -59.0 Q-4.0 -59.2 -3.95 -59.35 -3.8 -59.45 -3.65 -59.5 -3.45 -59.4 -3.3 -59.35 -3.25 -59.2 -3.2 -59.05 -3.3 -58.85 -3.4 -58.65 -3.55 -58.5 -3.8 -58.45 L-3.9 -58.4 -4.25 -58.45 -4.25 -57.3 -3.1 -57.3 -3.1 -57.7 Q-2.7 -57.95 -2.35 -58.2 -2.0 -58.5 -2.0 -59.0 -2.1 -59.3 -2.15 -59.6 L-2.55 -60.05 Q-3.1 -60.25 -3.6 -60.45 -4.25 -60.45 -4.75 -60.05 -5.25 -59.7 -5.25 -59.05 M-4.35 -56.35 Q-4.35 -56.05 -4.15 -55.85 -3.9 -55.75 -3.65 -55.65 -3.35 -55.65 -3.15 -55.85 -3.05 -56.1 -2.95 -56.35 -3.05 -56.6 -3.15 -56.85 -3.35 -57.05 -4.15 -56.85 -4.25 -56.6 -4.35 -56.35" fill="#000000" fill-rule="evenodd" stroke="none">
      <animate attributeName="fill" dur="2s" repeatCount="indefinite" values="#000000;#000001"/>
      <animate attributeName="fill-opacity" dur="2s" repeatCount="indefinite" values="1.0;1.0"/>
      <animate attributeName="d" dur="2s" repeatCount="indefinite" values="M-5.25 -59.05 L-4.05 -59.0 Q-4.0 -59.2 -3.95 -59.35 -3.8 -59.45 -3.65 -59.5 -3.45 -59.4 -3.3 -59.35 -3.25 -59.2 -3.2 -59.05 -3.3 -58.85 -3.4 -58.65 -3.55 -58.5 -3.8 -58.45 L-3.9 -58.4 -4.25 -58.45 -4.25 -57.3 -3.1 -57.3 -3.1 -57.7 Q-2.7 -57.95 -2.35 -58.2 -2.0 -58.5 -2.0 -59.0 -2.1 -59.3 -2.15 -59.6 L-2.55 -60.05 Q-3.1 -60.25 -3.6 -60.45 -4.25 -60.45 -4.75 -60.05 -5.25 -59.7 -5.25 -59.05 M-4.35 -56.35 Q-4.35 -56.05 -4.15 -55.85 -3.9 -55.75 -3.65 -55.65 -3.35 -55.65 -3.15 -55.85 -3.05 -56.1 -2.95 -56.35 -3.05 -56.6 -3.15 -56.85 -3.35 -57.05 -4.15 -56.85 -4.25 -56.6 -4.35 -56.35;M-9.7 -60.4 L-5.7 -60.35 Q-5.7 -61.0 -5.35 -61.45 -5.0 -61.9 -4.3 -61.9 -3.7 -61.9 -3.25 -61.45 -2.85 -61.0 -2.85 -60.4 -2.85 -59.55 -3.5 -59.1 -4.1 -58.6 -4.85 -58.45 L-5.15 -58.4 -6.3 -58.5 -6.3 -54.65 -2.6 -54.65 -2.6 -56.05 Q-1.1 -56.5 -0.05 -57.6 1.0 -58.65 1.0 -60.35 1.0 -61.35 0.5 -62.3 L-0.7 -63.8 Q-1.45 -64.45 -4.2 -65.05 -6.35 -65.05 -8.0 -63.85 -9.7 -62.65 -9.7 -60.4 M-6.7 -51.55 Q-6.7 -50.55 -6.05 -49.9 -5.35 -49.2 -4.35 -49.2 -3.4 -49.2 -2.7 -49.9 -2.05 -50.55 -2.05 -51.5 -2.05 -52.5 -2.7 -53.2 -3.4 -53.85 -6.05 -53.2 -6.7 -52.5 -6.7 -51.55"/>
    </path>
    <path d="M-8.2 -59.5 Q-8.2 -60.4 -7.6 -61.05 -7.0 -61.65 -6.1 -61.65 L-5.7 -61.6 Q-5.55 -61.9 -5.4 -62.25 L-5.2 -62.45 Q-4.6 -63.1 -3.7 -63.1 -2.8 -63.1 -2.2 -62.45 L-2.0 -62.25 Q-1.8 -61.85 -1.6 -61.4 -1.2 -61.45 -0.8 -61.55 0.05 -61.55 0.7 -60.95 L0.9 -60.75 Q1.3 -60.2 1.3 -59.45 1.15 -58.9 1.0 -58.3 L0.95 -58.15 1.15 -57.95 Q1.6 -57.4 1.6 -56.65 1.6 -55.8 0.95 -55.15 0.35 -54.5 -0.55 -54.5 L-1.35 -54.65 -1.6 -54.4 Q-2.2 -53.75 -3.1 -53.75 -3.95 -53.75 -4.6 -54.4 -4.8 -54.75 -5.05 -55.1 -5.5 -54.8 -6.1 -54.8 -7.0 -54.8 -7.6 -55.45 -8.2 -56.05 -8.2 -56.95 -8.2 -57.7 -7.8 -58.25 -8.2 -58.8 -8.2 -59.5 M-5.25 -59.05 Q-5.25 -59.7 -4.75 -60.05 -4.25 -60.45 -3.6 -60.45 -3.1 -60.25 -2.55 -60.05 L-2.15 -59.6 Q-2.1 -59.3 -2.0 -59.0 -2.0 -58.5 -2.35 -58.2 -2.7 -57.95 -3.1 -57.7 L-3.1 -57.3 -4.25 -57.3 -4.25 -58.45 -3.9 -58.4 -3.8 -58.45 Q-3.55 -58.5 -3.4 -58.65 -3.3 -58.85 -3.2 -59.05 -3.25 -59.2 -3.3 -59.35 -3.45 -59.4 -3.65 -59.5 -3.8 -59.45 -3.95 -59.35 -4.0 -59.2 -4.05 -59.0 L-5.25 -59.05 Q-5.25 -59.7 -4.75 -60.05 -4.25 -60.45 -3.6 -60.45 -3.1 -60.25 -2.55 -60.05 L-2.15 -59.6 Q-2.1 -59.3 -2.0 -59.0 -2.0 -58.5 -2.35 -58.2 -2.7 -57.95 -3.1 -57.7 L-3.1 -57.3 -4.25 -57.3 -4.25 -58.45 -3.9 -58.4 -3.8 -58.45 Q-3.55 -58.5 -3.4 -58.65 -3.3 -58.85 -3.2 -59.05 -3.25 -59.2 -3.3 -59.35 -3.45 -59.4 -3.65 -59.5 -3.8 -59.45 -3.95 -59.35 -4.0 -59.2 -4.05 -59.0 L-5.25 -59.05 M-4.35 -56.35 Q-4.25 -56.6 -4.15 -56.85 -3.35 -57.05 -3.15 -56.85 -3.05 -56.6 -2.95 -56.35 -3.05 -56.1 -3.15 -55.85 -3.35 -55.65 -3.65 -55.65 -3.9 -55.75 -4.15 -55.85 -4.35 -56.05 -4.35 -56.35 -4.25 -56.6 -4.15 -56.85 -3.35 -57.05 -3.15 -56.85 -3.05 -56.6 -2.95 -56.35 -3.05 -56.1 -3.15 -55.85 -3.35 -55.65 -3.65 -55.65 -3.9 -55.75 -4.15 -55.85 -4.35 -56.05 -4.35 -56.35" fill="none" stroke="#000000" stroke-linecap="round" stroke-linejoin="round" stroke-opacity="0.0" stroke-width="1.0">
      <animate attributeName="stroke" dur="2s" repeatCount="indefinite" values="#000000;#000001"/>
      <animate attributeName="stroke-width" dur="2s" repeatCount="indefinite" values="0.0;0.0"/>
      <animate attributeName="fill-opacity" dur="2s" repeatCount="indefinite" values="0.0;0.0"/>
      <animate attributeName="d" dur="2s" repeatCount="indefinite" values="M-8.2 -59.5 Q-8.2 -60.4 -7.6 -61.05 -7.0 -61.65 -6.1 -61.65 L-5.7 -61.6 Q-5.55 -61.9 -5.4 -62.25 L-5.2 -62.45 Q-4.6 -63.1 -3.7 -63.1 -2.8 -63.1 -2.2 -62.45 L-2.0 -62.25 Q-1.8 -61.85 -1.6 -61.4 -1.2 -61.45 -0.8 -61.55 0.05 -61.55 0.7 -60.95 L0.9 -60.75 Q1.3 -60.2 1.3 -59.45 1.15 -58.9 1.0 -58.3 L0.95 -58.15 1.15 -57.95 Q1.6 -57.4 1.6 -56.65 1.6 -55.8 0.95 -55.15 0.35 -54.5 -0.55 -54.5 L-1.35 -54.65 -1.6 -54.4 Q-2.2 -53.75 -3.1 -53.75 -3.95 -53.75 -4.6 -54.4 -4.8 -54.75 -5.05 -55.1 -5.5 -54.8 -6.1 -54.8 -7.0 -54.8 -7.6 -55.45 -8.2 -56.05 -8.2 -56.95 -8.2 -57.7 -7.8 -58.25 -8.2 -58.8 -8.2 -59.5 M-5.25 -59.05 Q-5.25 -59.7 -4.75 -60.05 -4.25 -60.45 -3.6 -60.45 -3.1 -60.25 -2.55 -60.05 L-2.15 -59.6 Q-2.1 -59.3 -2.0 -59.0 -2.0 -58.5 -2.35 -58.2 -2.7 -57.95 -3.1 -57.7 L-3.1 -57.3 -4.25 -57.3 -4.25 -58.45 -3.9 -58.4 -3.8 -58.45 Q-3.55 -58.5 -3.4 -58.65 -3.3 -58.85 -3.2 -59.05 -3.25 -59.2 -3.3 -59.35 -3.45 -59.4 -3.65 -59.5 -3.8 -59.45 -3.95 -59.35 -4.0 -59.2 -4.05 -59.0 L-5.25 -59.05 Q-5.25 -59.7 -4.75 -60.05 -4.25 -60.45 -3.6 -60.45 -3.1 -60.25 -2.55 -60.05 L-2.15 -59.6 Q-2.1 -59.3 -2.0 -59.0 -2.0 -58.5 -2.35 -58.2 -2.7 -57.95 -3.1 -57.7 L-3.1 -57.3 -4.25 -57.3 -4.25 -58.45 -3.9 -58.4 -3.8 -58.45 Q-3.55 -58.5 -3.4 -58.65 -3.3 -58.85 -3.2 -59.05 -3.25 -59.2 -3.3 -59.35 -3.45 -59.4 -3.65 -59.5 -3.8 -59.45 -3.95 -59.35 -4.0 -59.2 -4.05 -59.0 L-5.25 -59.05 M-4.35 -56.35 Q-4.25 -56.6 -4.15 -56.85 -3.35 -57.05 -3.15 -56.85 -3.05 -56.6 -2.95 -56.35 -3.05 -56.1 -3.15 -55.85 -3.35 -55.65 -3.65 -55.65 -3.9 -55.75 -4.15 -55.85 -4.35 -56.05 -4.35 -56.35 -4.25 -56.6 -4.15 -56.85 -3.35 -57.05 -3.15 -56.85 -3.05 -56.6 -2.95 -56.35 -3.05 -56.1 -3.15 -55.85 -3.35 -55.65 -3.65 -55.65 -3.9 -55.75 -4.15 -55.85 -4.35 -56.05 -4.35 -56.35;M-19.45 -62.0 Q-19.45 -64.9 -17.4 -67.0 -15.35 -69.0 -12.45 -69.0 L-11.2 -68.9 Q-10.85 -70.05 -10.1 -71.05 L-9.5 -71.75 Q-7.45 -73.75 -4.55 -73.75 -1.65 -73.75 0.4 -71.75 L1.05 -71.05 Q2.0 -69.8 2.3 -68.25 3.55 -68.75 5.0 -68.75 7.9 -68.75 9.95 -66.75 L10.6 -66.05 Q12.0 -64.2 12.0 -61.75 12.0 -59.7 10.95 -58.05 L10.85 -57.5 11.45 -56.85 Q12.85 -55.0 12.85 -52.55 12.85 -49.7 10.8 -47.65 8.75 -45.55 5.85 -45.55 L3.25 -46.05 2.45 -45.15 Q0.4 -43.05 -2.5 -43.05 -5.4 -43.05 -7.45 -45.15 -8.5 -46.2 -9.0 -47.4 -10.55 -46.5 -12.45 -46.5 -15.35 -46.5 -17.4 -48.6 -19.45 -50.65 -19.45 -53.5 -19.45 -55.95 -18.0 -57.8 -19.45 -59.6 -19.45 -62.0 M-9.7 -60.4 Q-9.7 -62.65 -8.0 -63.85 -6.35 -65.05 -4.2 -65.05 -1.45 -64.45 -0.7 -63.8 L0.5 -62.3 Q1.0 -61.35 1.0 -60.35 1.0 -58.65 -0.05 -57.6 -1.1 -56.5 -2.6 -56.05 L-2.6 -54.65 -6.3 -54.65 -6.3 -58.5 -5.15 -58.4 -4.85 -58.45 Q-4.1 -58.6 -3.5 -59.1 -2.85 -59.55 -2.85 -60.4 -2.85 -61.0 -3.25 -61.45 -3.7 -61.9 -4.3 -61.9 -5.0 -61.9 -5.35 -61.45 -5.7 -61.0 -5.7 -60.35 L-9.7 -60.4 Q-9.7 -62.65 -8.0 -63.85 -6.35 -65.05 -4.2 -65.05 -1.45 -64.45 -0.7 -63.8 L0.5 -62.3 Q1.0 -61.35 1.0 -60.35 1.0 -58.65 -0.05 -57.6 -1.1 -56.5 -2.6 -56.05 L-2.6 -54.65 -6.3 -54.65 -6.3 -58.5 -5.15 -58.4 -4.85 -58.45 Q-4.1 -58.6 -3.5 -59.1 -2.85 -59.55 -2.85 -60.4 -2.85 -61.0 -3.25 -61.45 -3.7 -61.9 -4.3 -61.9 -5.0 -61.9 -5.35 -61.45 -5.7 -61.0 -5.7 -60.35 L-9.7 -60.4 M-6.7 -51.55 Q-6.7 -52.5 -6.05 -53.2 -3.4 -53.85 -2.7 -53.2 -2.05 -52.5 -2.05 -51.5 -2.05 -50.55 -2.7 -49.9 -3.4 -49.2 -4.35 -49.2 -5.35 -49.2 -6.05 -49.9 -6.7 -50.55 -6.7 -51.55 -6.7 -52.5 -6.05 -53.2 -3.4 -53.85 -2.7 -53.2 -2.05 -52.5 -2.05 -51.5 -2.05 -50.55 -2.7 -49.9 -3.4 -49.2 -4.35 -49.2 -5.35 -49.2 -6.05 -49.9 -6.7 -50.55 -6.7 -51.55"/>
    </path>
  </g>
  <defs>
    <linearGradient gradientTransform="matrix(0.0, 0.0057, -0.0057, 0.0, -3.3, -58.4)" gradientUnits="userSpaceOnUse" id="gradient0" spreadMethod="pad" x1="-819.2" x2="819.2">
      <animateTransform additive="replace" attributeName="gradientTransform" dur="2s" from="1" repeatCount="indefinite" to="1" type="scale"/>
      <animateTransform additive="sum" attributeName="gradientTransform" dur="2s" from="-3.3 -58.4" repeatCount="indefinite" to="-3.3 -58.4" type="translate"/>
      <animateTransform additive="sum" attributeName="gradientTransform" dur="2s" from="90.0" repeatCount="indefinite" to="90.0" type="rotate"/>
      <animateTransform additive="sum" attributeName="gradientTransform" dur="2s" from="0.0057 0.0057" repeatCount="indefinite" to="0.0189 0.0187" type="scale"/>
      <animateTransform additive="sum" attributeName="gradientTransform" dur="2s" from="0.0" repeatCount="indefinite" to="0.0" type="skewX"/>
      <stop offset="0.0" stop-color="#ffffff">
        <animate attributeName="offset" dur="2s" repeatCount="indefinite" values="0.0;0.0"/>
        <animate attributeName="stop-color" dur="2s" repeatCount="indefinite" values="#ffffff;#ffffff"/>
        <animate attributeName="stop-opacity" dur="2s" repeatCount="indefinite" values="1.0;1.0"/>
      </stop>
      <stop offset="0.9921568627450981" stop-color="#cccccc">
        <animate attributeName="offset" dur="2s" repeatCount="indefinite" values="0.9921568627450981;0.9921568627450981"/>
        <animate attributeName="stop-color" dur="2s" repeatCount="indefinite" values="#cccccc;#cccccd"/>
        <animate attributeName="stop-opacity" dur="2s" repeatCount="indefinite" values="1.0;1.0"/>
      </stop>
    </linearGradient>
  </defs>
</svg>
