<?xml version="1.0" encoding="UTF-8" standalone="no"?>
<svg xmlns:xlink="http://www.w3.org/1999/xlink" height="31.7px" width="32.3px" xmlns="http://www.w3.org/2000/svg">
  <g transform="matrix(1, 0, 0, 1, 19.45, 74.75)">
    <path d="M-9.7 -61.4 L-5.7 -61.35 Q-5.7 -62.0 -5.35 -62.45 -5.0 -62.9 -4.3 -62.9 -3.7 -62.9 -3.25 -62.45 -2.85 -62.0 -2.85 -61.4 -2.85 -60.55 -3.5 -60.1 -4.1 -59.6 -4.85 -59.45 L-5.15 -59.4 -6.3 -59.5 -6.3 -55.65 -2.6 -55.65 -2.6 -57.05 Q-1.1 -57.5 -0.05 -58.6 1.0 -59.65 1.0 -61.35 1.0 -62.35 0.5 -63.3 L-0.7 -64.8 Q-1.45 -65.45 -4.2 -66.05 -6.35 -66.05 -8.0 -64.85 -9.7 -63.65 -9.7 -61.4 M-19.45 -63.0 Q-19.45 -60.6 -18.0 -58.8 -19.45 -56.95 -19.45 -54.5 -19.45 -51.65 -17.4 -49.6 -15.35 -47.5 -12.45 -47.5 -10.55 -47.5 -9.0 -48.4 -8.5 -47.2 -7.45 -46.15 -5.4 -44.05 -2.5 -44.05 0.4 -44.05 2.45 -46.15 L3.25 -47.05 5.85 -46.55 Q8.75 -46.55 10.8 -48.65 12.85 -50.7 12.85 -53.55 12.85 -56.0 11.45 -57.85 L10.85 -58.5 10.95 -59.05 Q12.0 -60.7 12.0 -62.75 12.0 -65.2 10.6 -67.05 L9.95 -67.75 Q7.9 -69.75 5.0 -69.75 3.55 -69.75 2.3 -69.25 2.0 -70.8 1.05 -72.05 L0.4 -72.75 Q-1.65 -74.75 -4.55 -74.75 -7.45 -74.75 -9.5 -72.75 L-10.1 -72.05 Q-10.85 -71.05 -11.2 -69.9 L-12.45 -70.0 Q-15.35 -70.0 -17.4 -68.0 -19.45 -65.9 -19.45 -63.0 M-6.7 -52.55 Q-6.7 -51.55 -6.05 -50.9 -5.35 -50.2 -4.35 -50.2 -3.4 -50.2 -2.7 -50.9 -2.05 -51.55 -2.05 -52.5 -2.05 -53.5 -2.7 -54.2 -3.4 -54.85 -6.05 -54.2 -6.7 -53.5 -6.7 -52.55" fill="url(#gradient0)" fill-rule="evenodd" stroke="none">
      <animate attributeName="d" dur="2s" repeatCount="indefinite" values="M-9.7 -61.4 L-5.7 -61.35 Q-5.7 -62.0 -5.35 -62.45 -5.0 -62.9 -4.3 -62.9 -3.7 -62.9 -3.25 -62.45 -2.85 -62.0 -2.85 -61.4 -2.85 -60.55 -3.5 -60.1 -4.1 -59.6 -4.85 -59.45 L-5.15 -59.4 -6.3 -59.5 -6.3 -55.65 -2.6 -55.65 -2.6 -57.05 Q-1.1 -57.5 -0.05 -58.6 1.0 -59.65 1.0 -61.35 1.0 -62.35 0.5 -63.3 L-0.7 -64.8 Q-1.45 -65.45 -4.2 -66.05 -6.35 -66.05 -8.0 -64.85 -9.7 -63.65 -9.7 -61.4 M-19.45 -63.0 Q-19.45 -60.6 -18.0 -58.8 -19.45 -56.95 -19.45 -54.5 -19.45 -51.65 -17.4 -49.6 -15.35 -47.5 -12.45 -47.5 -10.55 -47.5 -9.0 -48.4 -8.5 -47.2 -7.45 -46.15 -5.4 -44.05 -2.5 -44.05 0.4 -44.05 2.45 -46.15 L3.25 -47.05 5.85 -46.55 Q8.75 -46.55 10.8 -48.65 12.85 -50.7 12.85 -53.55 12.85 -56.0 11.45 -57.85 L10.85 -58.5 10.95 -59.05 Q12.0 -60.7 12.0 -62.75 12.0 -65.2 10.6 -67.05 L9.95 -67.75 Q7.9 -69.75 5.0 -69.75 3.55 -69.75 2.3 -69.25 2.0 -70.8 1.05 -72.05 L0.4 -72.75 Q-1.65 -74.75 -4.55 -74.75 -7.45 -74.75 -9.5 -72.75 L-10.1 -72.05 Q-10.85 -71.05 -11.2 -69.9 L-12.45 -70.0 Q-15.35 -70.0 -17.4 -68.0 -19.45 -65.9 -19.45 -63.0 M-6.7 -52.55 Q-6.7 -51.55 -6.05 -50.9 -5.35 -50.2 -4.35 -50.2 -3.4 -50.2 -2.7 -50.9 -2.05 -51.55 -2.05 -52.5 -2.05 -53.5 -2.7 -54.2 -3.4 -54.85 -6.05 -54.2 -6.7 -53.5 -6.7 -52.55;M-9.7 -60.4 L-5.7 -60.35 Q-5.7 -61.0 -5.35 -61.45 -5.0 -61.9 -4.3 -61.9 -3.7 -61.9 -3.25 -61.45 -2.85 -61.0 -2.85 -60.4 -2.85 -59.55 -3.5 -59.1 -4.1 -58.6 -4.85 -58.45 L-5.15 -58.4 -6.3 -58.5 -6.3 -54.65 -2.6 -54.65 -2.6 -56.05 Q-1.1 -56.5 -0.05 -57.6 1.0 -58.65 1.0 -60.35 1.0 -61.35 0.5 -62.3 L-0.7 -63.8 Q-1.45 -64.45 -4.2 -65.05 -6.35 -65.05 -8.0 -63.85 -9.7 -62.65 -9.7 -60.4 M-19.45 -62.0 Q-19.45 -59.6 -18.0 -57.8 -19.45 -55.95 -19.45 -53.5 -19.45 -50.65 -17.4 -48.6 -15.35 -46.5 -12.45 -46.5 -10.55 -46.5 -9.0 -47.4 -8.5 -46.2 -7.45 -45.15 -5.4 -43.05 -2.5 -43.05 0.4 -43.05 2.45 -45.15 L3.25 -46.05 5.85 -45.55 Q8.75 -45.55 10.8 -47.65 12.85 -49.7 12.85 -52.55 12.85 -55.0 11.45 -56.85 L10.85 -57.5 10.95 -58.05 Q12.0 -59.7 12.0 -61.75 12.0 -64.2 10.6 -66.05 L9.95 -66.75 Q7.9 -68.75 5.0 -68.75 3.55 -68.75 2.3 -68.25 2.0 -69.8 1.05 -71.05 L0.4 -71.75 Q-1.65 -73.75 -4.55 -73.75 -7.45 -73.75 -9.5 -71.75 L-10.1 -71.05 Q-10.85 -70.05 -11.2 -68.9 L-12.45 -69.0 Q-15.35 -69.0 -17.4 -67.0 -19.45 -64.9 -19.45 -62.0 M-6.7 -51.55 Q-6.7 -50.55 -6.05 -49.9 -5.35 -49.2 -4.35 -49.2 -3.4 -49.2 -2.7 -49.9 -2.05 -50.55 -2.05 -51.5 -2.05 -52.5 -2.7 -53.2 -3.4 -53.85 -6.05 -53.2 -6.7 -52.5 -6.7 -51.55"/>
    </path>
    <path d="M-9.7 -61.4 L-5.7 -61.35 Q-5.7 -62.0 -5.35 -62.45 -5.0 -62.9 -4.3 -62.9 -3.7 -62.9 -3.25 -62.45 -2.85 -62.0 -2.85 -61.4 -2.85 -60.55 -3.5 -60.1 -4.1 -59.6 -4.85 -59.45 L-5.15 -59.4 -6.3 -59.5 -6.3 -55.65 -2.6 -55.65 -2.6 -57.05 Q-1.1 -57.5 -0.05 -58.6 1.0 -59.65 1.0 -61.35 1.0 -62.35 0.5 -63.3 L-0.7 -64.8 Q-1.45 -65.45 -4.2 -66.05 -6.35 -66.05 -8.0 -64.85 -9.7 -63.65 -9.7 -61.4 M-6.7 -52.55 Q-6.7 -51.55 -6.05 -50.9 -5.35 -50.2 -4.35 -50.2 -3.4 -50.2 -2.7 -50.9 -2.05 -51.55 -2.05 -52.5 -2.05 -53.5 -2.7 -54.2 -3.4 -54.85 -6.05 -54.2 -6.7 -53.5 -6.7 -52.55" fill="#000000" fill-rule="evenodd" stroke="none">
      <animate attributeName="fill" dur="2s" repeatCount="indefinite" values="#000000;#000001"/>
      <animate attributeName="fill-opacity" dur="2s" repeatCount="indefinite" values="1.0;1.0"/>
      <animate attributeName="d" dur="2s" repeatCount="indefinite" values="M-9.7 -61.4 L-5.7 -61.35 Q-5.7 -62.0 -5.35 -62.45 -5.0 -62.9 -4.3 -62.9 -3.7 -62.9 -3.25 -62.45 -2.85 -62.0 -2.85 -61.4 -2.85 -60.55 -3.5 -60.1 -4.1 -59.6 -4.85 -59.45 L-5.15 -59.4 -6.3 -59.5 -6.3 -55.65 -2.6 -55.65 -2.6 -57.05 Q-1.1 -57.5 -0.05 -58.6 1.0 -59.65 1.0 -61.35 1.0 -62.35 0.5 -63.3 L-0.7 -64.8 Q-1.45 -65.45 -4.2 -66.05 -6.35 -66.05 -8.0 -64.85 -9.7 -63.65 -9.7 -61.4 M-6.7 -52.55 Q-6.7 -51.55 -6.05 -50.9 -5.35 -50.2 -4.35 -50.2 -3.4 -50.2 -2.7 -50.9 -2.05 -51.55 -2.05 -52.5 -2.05 -53.5 -2.7 -54.2 -3.4 -54.85 -6.05 -54.2 -6.7 -53.5 -6.7 -52.55;M-9.7 -60.4 L-5.7 -60.35 Q-5.7 -61.0 -5.35 -61.45 -5.0 -61.9 -4.3 -61.9 -3.7 -61.9 -3.25 -61.45 -2.85 -61.0 -2.85 -60.4 -2.85 -59.55 -3.5 -59.1 -4.1 -58.6 -4.85 -58.45 L-5.15 -58.4 -6.3 -58.5 -6.3 -54.65 -2.6 -54.65 -2.6 -56.05 Q-1.1 -56.5 -0.05 -57.6 1.0 -58.65 1.0 -60.35 1.0 -61.35 0.5 -62.3 L-0.7 -63.8 Q-1.45 -64.45 -4.2 -65.05 -6.35 -65.05 -8.0 -63.85 -9.7 -62.65 -9.7 -60.4 M-6.7 -51.55 Q-6.7 -50.55 -6.05 -49.9 -5.35 -49.2 -4.35 -49.2 -3.4 -49.2 -2.7 -49.9 -2.05 -50.55 -2.05 -51.5 -2.05 -52.5 -2.7 -53.2 -3.4 -53.85 -6.05 -53.2 -6.7 -52.5 -6.7 -51.55"/>
    </path>
    <path d="M-19.45 -63.0 Q-19.45 -65.9 -17.4 -68.0 -15.35 -70.0 -12.45 -70.0 L-11.2 -69.9 Q-10.85 -71.05 -10.1 -72.05 L-9.5 -72.75 Q-7.45 -74.75 -4.55 -74.75 -1.65 -74.75 0.4 -72.75 L1.05 -72.05 Q2.0 -70.8 2.3 -69.25 3.55 -69.75 5.0 -69.75 7.9 -69.75 9.95 -67.75 L10.6 -67.05 Q12.0 -65.2 12.0 -62.75 12.0 -60.7 10.95 -59.05 L10.85 -58.5 11.45 -57.85 Q12.85 -56.0 12.85 -53.55 12.85 -50.7 10.8 -48.65 8.75 -46.55 5.85 -46.55 L3.25 -47.05 2.45 -46.15 Q0.4 -44.05 -2.5 -44.05 -5.4 -44.05 -7.45 -46.15 -8.5 -47.2 -9.0 -48.4 -10.55 -47.5 -12.45 -47.5 -15.35 -47.5 -17.4 -49.6 -19.45 -51.65 -19.45 -54.5 -19.45 -56.95 -18.0 -58.8 -19.45 -60.6 -19.45 -63.0 M-9.7 -61.4 Q-9.7 -63.65 -8.0 -64.85 -6.35 -66.05 -4.2 -66.05 -1.45 -65.45 -0.7 -64.8 L0.5 -63.3 Q1.0 -62.35 1.0 -61.35 1.0 -59.65 -0.05 -58.6 -1.1 -57.5 -2.6 -57.05 L-2.6 -55.65 -6.3 -55.65 -6.3 -59.5 -5.15 -59.4 -4.85 -59.45 Q-4.1 -59.6 -3.5 -60.1 -2.85 -60.55 -2.85 -61.4 -2.85 -62.0 -3.25 -62.45 -3.7 -62.9 -4.3 -62.9 -5.0 -62.9 -5.35 -62.45 -5.7 -62.0 -5.7 -61.35 L-9.7 -61.4 Q-9.7 -63.65 -8.0 -64.85 -6.35 -66.05 -4.2 -66.05 -1.45 -65.45 -0.7 -64.8 L0.5 -63.3 Q1.0 -62.35 1.0 -61.35 1.0 -59.65 -0.05 -58.6 -1.1 -57.5 -2.6 -57.05 L-2.6 -55.65 -6.3 -55.65 -6.3 -59.5 -5.15 -59.4 -4.85 -59.45 Q-4.1 -59.6 -3.5 -60.1 -2.85 -60.55 -2.85 -61.4 -2.85 -62.0 -3.25 -62.45 -3.7 -62.9 -4.3 -62.9 -5.0 -62.9 -5.35 -62.45 -5.7 -62.0 -5.7 -61.35 L-9.7 -61.4 M-6.7 -52.55 Q-6.7 -53.5 -6.05 -54.2 -3.4 -54.85 -2.7 -54.2 -2.05 -53.5 -2.05 -52.5 -2.05 -51.55 -2.7 -50.9 -3.4 -50.2 -4.35 -50.2 -5.35 -50.2 -6.05 -50.9 -6.7 -51.55 -6.7 -52.55 -6.7 -53.5 -6.05 -54.2 -3.4 -54.85 -2.7 -54.2 -2.05 -53.5 -2.05 -52.5 -2.05 -51.55 -2.7 -50.9 -3.4 -50.2 -4.35 -50.2 -5.35 -50.2 -6.05 -50.9 -6.7 -51.55 -6.7 -52.55" fill="none" stroke="#000000" stroke-linecap="round" stroke-linejoin="round" stroke-opacity="0.0" stroke-width="1.0">
      <animate attributeName="stroke" dur="2s" repeatCount="indefinite" values="#000000;#000001"/>
      <animate attributeName="stroke-width" dur="2s" repeatCount="indefinite" values="0.0;0.0"/>
      <animate attributeName="fill-opacity" dur="2s" repeatCount="indefinite" values="0.0;0.0"/>
      <animate attributeName="d" dur="2s" repeatCount="indefinite" values="M-19.45 -63.0 Q-19.45 -65.9 -17.4 -68.0 -15.35 -70.0 -12.45 -70.0 L-11.2 -69.9 Q-10.85 -71.05 -10.1 -72.05 L-9.5 -72.75 Q-7.45 -74.75 -4.55 -74.75 -1.65 -74.75 0.4 -72.75 L1.05 -72.05 Q2.0 -70.8 2.3 -69.25 3.55 -69.75 5.0 -69.75 7.9 -69.75 9.95 -67.75 L10.6 -67.05 Q12.0 -65.2 12.0 -62.75 12.0 -60.7 10.95 -59.05 L10.85 -58.5 11.45 -57.85 Q12.85 -56.0 12.85 -53.55 12.85 -50.7 10.8 -48.65 8.75 -46.55 5.85 -46.55 L3.25 -47.05 2.45 -46.15 Q0.4 -44.05 -2.5 -44.05 -5.4 -44.05 -7.45 -46.15 -8.5 -47.2 -9.0 -48.4 -10.55 -47.5 -12.45 -47.5 -15.35 -47.5 -17.4 -49.6 -19.45 -51.65 -19.45 -54.5 -19.45 -56.95 -18.0 -58.8 -19.45 -60.6 -19.45 -63.0 M-9.7 -61.4 Q-9.7 -63.65 -8.0 -64.85 -6.35 -66.05 -4.2 -66.05 -1.45 -65.45 -0.7 -64.8 L0.5 -63.3 Q1.0 -62.35 1.0 -61.35 1.0 -59.65 -0.05 -58.6 -1.1 -57.5 -2.6 -57.05 L-2.6 -55.65 -6.3 -55.65 -6.3 -59.5 -5.15 -59.4 -4.85 -59.45 Q-4.1 -59.6 -3.5 -60.1 -2.85 -60.55 -2.85 -61.4 -2.85 -62.0 -3.25 -62.45 -3.7 -62.9 -4.3 -62.9 -5.0 -62.9 -5.35 -62.45 -5.7 -62.0 -5.7 -61.35 L-9.7 -61.4 Q-9.7 -63.65 -8.0 -64.85 -6.35 -66.05 -4.2 -66.05 -1.45 -65.45 -0.7 -64.8 L0.5 -63.3 Q1.0 -62.35 1.0 -61.35 1.0 -59.65 -0.05 -58.6 -1.1 -57.5 -2.6 -57.05 L-2.6 -55.65 -6.3 -55.65 -6.3 -59.5 -5.15 -59.4 -4.85 -59.45 Q-4.1 -59.6 -3.5 -60.1 -2.85 -60.55 -2.85 -61.4 -2.85 -62.0 -3.25 -62.45 -3.7 -62.9 -4.3 -62.9 -5.0 -62.9 -5.35 -62.45 -5.7 -62.0 -5.7 -61.35 L-9.7 -61.4 M-6.7 -52.55 Q-6.7 -53.5 -6.05 -54.2 -3.4 -54.85 -2.7 -54.2 -2.05 -53.5 -2.05 -52.5 -2.05 -51.55 -2.7 -50.9 -3.4 -50.2 -4.35 -50.2 -5.35 -50.2 -6.05 -50.9 -6.7 -51.55 -6.7 -52.55 -6.7 -53.5 -6.05 -54.2 -3.4 -54.85 -2.7 -54.2 -2.05 -53.5 -2.05 -52.5 -2.05 -51.55 -2.7 -50.9 -3.4 -50.2 -4.35 -50.2 -5.35 -50.2 -6.05 -50.9 -6.7 -51.55 -6.7 -52.55;M-19.45 -62.0 Q-19.45 -64.9 -17.4 -67.0 -15.35 -69.0 -12.45 -69.0 L-11.2 -68.9 Q-10.85 -70.05 -10.1 -71.05 L-9.5 -71.75 Q-7.45 -73.75 -4.55 -73.75 -1.65 -73.75 0.4 -71.75 L1.05 -71.05 Q2.0 -69.8 2.3 -68.25 3.55 -68.75 5.0 -68.75 7.9 -68.75 9.95 -66.75 L10.6 -66.05 Q12.0 -64.2 12.0 -61.75 12.0 -59.7 10.95 -58.05 L10.85 -57.5 11.45 -56.85 Q12.85 -55.0 12.85 -52.55 12.85 -49.7 10.8 -47.65 8.75 -45.55 5.85 -45.55 L3.25 -46.05 2.45 -45.15 Q0.4 -43.05 -2.5 -43.05 -5.4 -43.05 -7.45 -45.15 -8.5 -46.2 -9.0 -47.4 -10.55 -46.5 -12.45 -46.5 -15.35 -46.5 -17.4 -48.6 -19.45 -50.65 -19.45 -53.5 -19.45 -55.95 -18.0 -57.8 -19.45 -59.6 -19.45 -62.0 M-9.7 -60.4 Q-9.7 -62.65 -8.0 -63.85 -6.35 -65.05 -4.2 -65.05 -1.45 -64.45 -0.7 -63.8 L0.5 -62.3 Q1.0 -61.35 1.0 -60.35 1.0 -58.65 -0.05 -57.6 -1.1 -56.5 -2.6 -56.05 L-2.6 -54.65 -6.3 -54.65 -6.3 -58.5 -5.15 -58.4 -4.85 -58.45 Q-4.1 -58.6 -3.5 -59.1 -2.85 -59.55 -2.85 -60.4 -2.85 -61.0 -3.25 -61.45 -3.7 -61.9 -4.3 -61.9 -5.0 -61.9 -5.35 -61.45 -5.7 -61.0 -5.7 -60.35 L-9.7 -60.4 Q-9.7 -62.65 -8.0 -63.85 -6.35 -65.05 -4.2 -65.05 -1.45 -64.45 -0.7 -63.8 L0.5 -62.3 Q1.0 -61.35 1.0 -60.35 1.0 -58.65 -0.05 -57.6 -1.1 -56.5 -2.6 -56.05 L-2.6 -54.65 -6.3 -54.65 -6.3 -58.5 -5.15 -58.4 -4.85 -58.45 Q-4.1 -58.6 -3.5 -59.1 -2.85 -59.55 -2.85 -60.4 -2.85 -61.0 -3.25 -61.45 -3.7 -61.9 -4.3 -61.9 -5.0 -61.9 -5.35 -61.45 -5.7 -61.0 -5.7 -60.35 L-9.7 -60.4 M-6.7 -51.55 Q-6.7 -52.5 -6.05 -53.2 -3.4 -53.85 -2.7 -53.2 -2.05 -52.5 -2.05 -51.5 -2.05 -50.55 -2.7 -49.9 -3.4 -49.2 -4.35 -49.2 -5.35 -49.2 -6.05 -49.9 -6.7 -50.55 -6.7 -51.55 -6.7 -52.5 -6.05 -53.2 -3.4 -53.85 -2.7 -53.2 -2.05 -52.5 -2.05 -51.5 -2.05 -50.55 -2.7 -49.9 -3.4 -49.2 -4.35 -49.2 -5.35 -49.2 -6.05 -49.9 -6.7 -50.55 -6.7 -51.55"/>
    </path>
  </g>
  <defs>
    <linearGradient gradientTransform="matrix(0.0, 0.0189, -0.0187, 0.0, -3.3, -59.4)" gradientUnits="userSpaceOnUse" id="gradient0" spreadMethod="pad" x1="-819.2" x2="819.2">
      <animateTransform additive="replace" attributeName="gradientTransform" dur="2s" from="1" repeatCount="indefinite" to="1" type="scale"/>
      <animateTransform additive="sum" attributeName="gradientTransform" dur="2s" from="-3.3 -59.4" repeatCount="indefinite" to="-3.3 -58.4" type="translate"/>
      <animateTransform additive="sum" attributeName="gradientTransform" dur="2s" from="90.0" repeatCount="indefinite" to="90.0" type="rotate"/>
      <animateTransform additive="sum" attributeName="gradientTransform" dur="2s" from="0.0189 0.0187" repeatCount="indefinite" to="0.0189 0.0187" type="scale"/>
      <animateTransform additive="sum" attributeName="gradientTransform" dur="2s" from="0.0" repeatCount="indefinite" to="0.0" type="skewX"/>
      <stop offset="0.0" stop-color="#ffffff">
        <animate attributeName="offset" dur="2s" repeatCount="indefinite" values="0.0;0.0"/>
        <animate attributeName="stop-color" dur="2s" repeatCount="indefinite" values="#ffffff;#ffffff"/>
        <animate attributeName="stop-opacity" dur="2s" repeatCount="indefinite" values="1.0;1.0"/>
      </stop>
      <stop offset="0.9921568627450981" stop-color="#cccccc">
        <animate attributeName="offset" dur="2s" repeatCount="indefinite" values="0.9921568627450981;0.9921568627450981"/>
        <animate attributeName="stop-color" dur="2s" repeatCount="indefinite" values="#cccccc;#cccccd"/>
        <animate attributeName="stop-opacity" dur="2s" repeatCount="indefinite" values="1.0;1.0"/>
      </stop>
    </linearGradient>
  </defs>
</svg>
