<?xml version="1.0" encoding="UTF-8" standalone="no"?>
<svg xmlns:xlink="http://www.w3.org/1999/xlink" height="18.6px" width="39.75px" xmlns="http://www.w3.org/2000/svg">
  <g transform="matrix(1, 0, 0, 1, 31.45, 5.8)">
    <path d="M-24.55 7.0 Q-24.35 7.7 -23.2 7.55 -22.2 7.55 -20.75 6.95 -19.35 6.35 -19.4 5.75 L-22.05 6.2 Q-24.1 6.75 -24.55 7.0 M-27.45 7.65 L-27.45 7.65 -27.4 7.9 -27.35 7.95 -26.8 7.95 -26.15 7.7 -25.85 7.6 -25.65 7.8 -25.6 7.8 -25.4 7.8 -25.0 7.85 -24.8 7.85 -24.95 8.05 -25.05 8.15 -25.25 8.35 -25.45 8.75 -25.25 8.95 -25.15 9.05 -25.0 9.05 -24.9 8.95 -24.5 8.85 -24.0 9.0 -23.9 9.0 -23.4 9.05 -23.2 9.05 -23.0 9.05 -23.0 9.05 -22.75 9.05 -21.95 8.95 -21.95 8.95 -21.55 8.85 -20.7 8.85 -20.7 8.9 -20.8 9.0 -20.95 9.1 Q-20.95 9.3 -20.95 9.5 L-20.95 9.65 -20.95 9.65 -20.75 9.65 -20.45 9.7 -20.15 9.6 -19.8 9.5 Q-19.8 10.3 -19.3 10.3 L-18.7 10.0 -18.2 9.7 Q-17.95 9.6 -17.7 9.5 L-17.5 9.65 -17.2 9.8 -17.2 9.8 -16.85 9.65 -16.35 9.5 -16.15 9.45 -16.0 9.45 -15.8 9.35 -15.7 9.35 -15.45 9.4 -15.45 9.4 -15.15 9.45 -14.9 9.45 Q-14.75 9.5 -14.6 9.55 L-14.05 9.75 -13.85 9.85 Q-13.65 10.0 -13.45 10.1 L-13.35 10.2 -12.45 10.8 -12.2 10.95 -12.05 10.95 -12.0 10.95 -11.9 11.05 -11.9 11.05 -11.5 10.8 Q-11.35 10.65 -11.2 10.5 L-11.1 10.4 -11.1 10.4 -11.1 10.3 -11.2 10.1 -11.2 10.1 -10.55 10.45 -10.35 10.45 -10.25 10.45 Q-10.0 10.4 -9.75 10.4 L-9.75 10.35 -9.7 10.05 -9.7 10.0 -9.75 9.8 -10.1 9.55 -10.3 9.5 -9.0 9.55 Q-8.45 9.55 -7.9 9.55 -7.5 9.55 -7.1 9.55 -6.6 9.55 -6.1 9.55 -5.9 9.55 -5.75 9.55 L-5.75 9.55 -5.1 8.5 -4.7 8.5 Q-3.35 8.5 -3.35 8.0 -3.35 7.75 -3.7 7.55 -4.0 7.45 -4.25 7.35 L-4.35 7.35 Q-4.5 7.3 -4.6 7.25 L-4.9 7.15 -5.0 7.15 -5.15 7.15 -6.3 6.75 -5.9 6.75 -5.8 6.75 -5.7 6.75 -5.0 6.85 Q-4.8 6.9 -4.6 6.95 L-4.3 6.95 -4.05 6.9 -3.95 6.9 -3.7 6.85 -3.6 6.85 -3.25 6.7 -2.95 6.35 Q-2.7 6.3 -2.45 6.3 L-2.2 6.3 -2.0 6.3 -1.9 6.3 -1.9 6.2 Q-1.8 6.05 -1.7 5.95 L-1.85 5.8 -2.05 5.7 -2.4 5.5 Q-1.95 5.2 -1.95 4.9 L-1.95 4.85 -1.95 4.85 Q-2.3 4.9 -2.65 4.9 L-2.75 4.9 -3.25 4.9 Q-3.75 4.9 -4.25 4.9 L-4.45 4.9 -4.45 4.9 -6.35 4.65 Q-6.55 4.6 -6.75 4.55 -7.5 4.2 -8.2 3.85 L-8.4 3.7 Q-8.95 3.25 -9.5 2.8 L-9.7 2.6 -9.8 2.5 -9.8 2.5 Q-9.8 2.5 -9.8 2.5 L-10.85 1.25 -11.15 0.85 Q-11.25 0.7 -11.35 0.55 L-11.35 0.55 -11.5 0.35 -11.6 0.25 -11.8 -0.1 -12.0 -0.75 -12.0 -0.85 -12.0 -1.0 -11.95 -1.2 -11.55 -1.9 -11.65 -2.45 -11.9 -3.7 -11.95 -4.15 -11.95 -4.4 Q-12.05 -4.7 -12.1 -4.95 -12.25 -5.35 -12.55 -5.6 L-12.65 -5.7 Q-13.05 -5.95 -13.55 -5.5 L-13.75 -5.3 Q-13.85 -5.15 -13.95 -5.05 L-13.95 -5.05 -13.95 -5.05 -14.05 -5.2 -14.25 -5.3 -14.85 -4.55 -15.15 -3.85 -15.25 -3.75 -15.35 -3.55 -15.45 -3.35 -15.6 -2.9 -15.6 -2.9 -15.7 -2.6 -15.8 -2.4 -15.75 -2.4 -15.45 -2.3 -15.3 -2.2 -15.05 -2.05 -14.85 -1.75 -14.75 -1.5 Q-14.7 -1.05 -14.65 -0.6 L-14.7 -0.25 -14.75 0.05 -15.2 1.0 -15.3 1.2 -15.4 1.3 -15.65 1.7 -15.65 1.8 -15.65 1.8 -16.35 2.9 -16.35 2.9 -16.55 3.2 Q-16.7 3.35 -16.8 3.5 L-17.1 3.8 -17.5 4.05 -17.6 4.15 -18.05 4.35 -18.45 4.55 -18.85 4.65 -19.05 4.75 Q-19.3 4.85 -19.55 4.9 L-19.65 4.9 -19.85 5.0 -19.9 5.0 -20.1 5.1 Q-20.25 5.15 -20.4 5.2 L-20.4 5.2 -20.95 5.4 Q-21.5 5.55 -22.0 5.7 L-22.45 5.9 -22.6 5.9 -22.6 5.9 -22.7 5.9 -25.4 6.45 -26.1 6.5 -26.15 6.5 -25.8 6.6 -25.8 6.65 -25.8 6.75 -26.65 7.05 -26.75 7.05 Q-27.1 7.35 -27.45 7.65 M-12.8 0.15 L-12.8 0.15 Q-11.85 0.4 -10.55 2.25 L-9.75 3.4 Q-7.25 4.65 -6.6 5.35 L-6.6 5.55 Q-6.7 5.7 -6.95 5.7 L-9.6 4.75 -9.95 4.8 -9.05 5.65 -8.95 5.75 -8.45 6.05 -6.35 7.55 Q-6.15 7.7 -6.45 8.2 -8.3 8.2 -9.85 6.35 L-10.6 5.4 Q-11.2 4.5 -10.65 4.05 -11.75 2.3 -12.8 0.6 L-12.8 0.15" fill="#00ff00" fill-rule="evenodd" stroke="none">
      <animate attributeName="fill" dur="2s" repeatCount="indefinite" values="#00ff00;#33cc01"/>
      <animate attributeName="fill-opacity" dur="2s" repeatCount="indefinite" values="1.0;1.0"/>
      <animate attributeName="d" dur="2s" repeatCount="indefinite" values="M-24.55 7.0 Q-24.35 7.7 -23.2 7.55 -22.2 7.55 -20.75 6.95 -19.35 6.35 -19.4 5.75 L-22.05 6.2 Q-24.1 6.75 -24.55 7.0 M-27.45 7.65 L-27.45 7.65 -27.4 7.9 -27.35 7.95 -26.8 7.95 -26.15 7.7 -25.85 7.6 -25.65 7.8 -25.6 7.8 -25.4 7.8 -25.0 7.85 -24.8 7.85 -24.95 8.05 -25.05 8.15 -25.25 8.35 -25.45 8.75 -25.25 8.95 -25.15 9.05 -25.0 9.05 -24.9 8.95 -24.5 8.85 -24.0 9.0 -23.9 9.0 -23.4 9.05 -23.2 9.05 -23.0 9.05 -23.0 9.05 -22.75 9.05 -21.95 8.95 -21.95 8.95 -21.55 8.85 -20.7 8.85 -20.7 8.9 -20.8 9.0 -20.95 9.1 Q-20.95 9.3 -20.95 9.5 L-20.95 9.65 -20.95 9.65 -20.75 9.65 -20.45 9.7 -20.15 9.6 -19.8 9.5 Q-19.8 10.3 -19.3 10.3 L-18.7 10.0 -18.2 9.7 Q-17.95 9.6 -17.7 9.5 L-17.5 9.65 -17.2 9.8 -17.2 9.8 -16.85 9.65 -16.35 9.5 -16.15 9.45 -16.0 9.45 -15.8 9.35 -15.7 9.35 -15.45 9.4 -15.45 9.4 -15.15 9.45 -14.9 9.45 Q-14.75 9.5 -14.6 9.55 L-14.05 9.75 -13.85 9.85 Q-13.65 10.0 -13.45 10.1 L-13.35 10.2 -12.45 10.8 -12.2 10.95 -12.05 10.95 -12.0 10.95 -11.9 11.05 -11.9 11.05 -11.5 10.8 Q-11.35 10.65 -11.2 10.5 L-11.1 10.4 -11.1 10.4 -11.1 10.3 -11.2 10.1 -11.2 10.1 -10.55 10.45 -10.35 10.45 -10.25 10.45 Q-10.0 10.4 -9.75 10.4 L-9.75 10.35 -9.7 10.05 -9.7 10.0 -9.75 9.8 -10.1 9.55 -10.3 9.5 -9.0 9.55 Q-8.45 9.55 -7.9 9.55 -7.5 9.55 -7.1 9.55 -6.6 9.55 -6.1 9.55 -5.9 9.55 -5.75 9.55 L-5.75 9.55 -5.1 8.5 -4.7 8.5 Q-3.35 8.5 -3.35 8.0 -3.35 7.75 -3.7 7.55 -4.0 7.45 -4.25 7.35 L-4.35 7.35 Q-4.5 7.3 -4.6 7.25 L-4.9 7.15 -5.0 7.15 -5.15 7.15 -6.3 6.75 -5.9 6.75 -5.8 6.75 -5.7 6.75 -5.0 6.85 Q-4.8 6.9 -4.6 6.95 L-4.3 6.95 -4.05 6.9 -3.95 6.9 -3.7 6.85 -3.6 6.85 -3.25 6.7 -2.95 6.35 Q-2.7 6.3 -2.45 6.3 L-2.2 6.3 -2.0 6.3 -1.9 6.3 -1.9 6.2 Q-1.8 6.05 -1.7 5.95 L-1.85 5.8 -2.05 5.7 -2.4 5.5 Q-1.95 5.2 -1.95 4.9 L-1.95 4.85 -1.95 4.85 Q-2.3 4.9 -2.65 4.9 L-2.75 4.9 -3.25 4.9 Q-3.75 4.9 -4.25 4.9 L-4.45 4.9 -4.45 4.9 -6.35 4.65 Q-6.55 4.6 -6.75 4.55 -7.5 4.2 -8.2 3.85 L-8.4 3.7 Q-8.95 3.25 -9.5 2.8 L-9.7 2.6 -9.8 2.5 -9.8 2.5 Q-9.8 2.5 -9.8 2.5 L-10.85 1.25 -11.15 0.85 Q-11.25 0.7 -11.35 0.55 L-11.35 0.55 -11.5 0.35 -11.6 0.25 -11.8 -0.1 -12.0 -0.75 -12.0 -0.85 -12.0 -1.0 -11.95 -1.2 -11.55 -1.9 -11.65 -2.45 -11.9 -3.7 -11.95 -4.15 -11.95 -4.4 Q-12.05 -4.7 -12.1 -4.95 -12.25 -5.35 -12.55 -5.6 L-12.65 -5.7 Q-13.05 -5.95 -13.55 -5.5 L-13.75 -5.3 Q-13.85 -5.15 -13.95 -5.05 L-13.95 -5.05 -13.95 -5.05 -14.05 -5.2 -14.25 -5.3 -14.85 -4.55 -15.15 -3.85 -15.25 -3.75 -15.35 -3.55 -15.45 -3.35 -15.6 -2.9 -15.6 -2.9 -15.7 -2.6 -15.8 -2.4 -15.75 -2.4 -15.45 -2.3 -15.3 -2.2 -15.05 -2.05 -14.85 -1.75 -14.75 -1.5 Q-14.7 -1.05 -14.65 -0.6 L-14.7 -0.25 -14.75 0.05 -15.2 1.0 -15.3 1.2 -15.4 1.3 -15.65 1.7 -15.65 1.8 -15.65 1.8 -16.35 2.9 -16.35 2.9 -16.55 3.2 Q-16.7 3.35 -16.8 3.5 L-17.1 3.8 -17.5 4.05 -17.6 4.15 -18.05 4.35 -18.45 4.55 -18.85 4.65 -19.05 4.75 Q-19.3 4.85 -19.55 4.9 L-19.65 4.9 -19.85 5.0 -19.9 5.0 -20.1 5.1 Q-20.25 5.15 -20.4 5.2 L-20.4 5.2 -20.95 5.4 Q-21.5 5.55 -22.0 5.7 L-22.45 5.9 -22.6 5.9 -22.6 5.9 -22.7 5.9 -25.4 6.45 -26.1 6.5 -26.15 6.5 -25.8 6.6 -25.8 6.65 -25.8 6.75 -26.65 7.05 -26.75 7.05 Q-27.1 7.35 -27.45 7.65 M-12.8 0.15 L-12.8 0.15 Q-11.85 0.4 -10.55 2.25 L-9.75 3.4 Q-7.25 4.65 -6.6 5.35 L-6.6 5.55 Q-6.7 5.7 -6.95 5.7 L-9.6 4.75 -9.95 4.8 -9.05 5.65 -8.95 5.75 -8.45 6.05 -6.35 7.55 Q-6.15 7.7 -6.45 8.2 -8.3 8.2 -9.85 6.35 L-10.6 5.4 Q-11.2 4.5 -10.65 4.05 -11.75 2.3 -12.8 0.6 L-12.8 0.15;M-25.7 7.2 Q-25.7 7.25 -25.7 7.3 -25.0 7.35 -24.3 7.4 -24.5 7.25 -23.6 6.65 L-25.15 7.2 Q-25.45 7.2 -25.7 7.2 M-31.45 6.65 L-31.1 7.05 -30.95 7.05 -30.75 7.05 -29.55 6.95 -28.05 6.85 -28.75 7.15 -29.35 7.4 -29.45 7.5 -29.15 7.95 -28.2 8.0 -28.65 8.0 -29.15 8.15 -29.2 8.35 -29.8 8.4 -31.0 8.5 -31.45 8.5 -31.45 8.95 -31.45 9.15 -31.15 9.3 -30.35 9.3 -29.65 9.3 -29.35 9.1 -28.4 9.1 -28.45 9.4 -28.15 9.7 -27.95 9.7 -27.35 9.7 -25.65 9.7 -25.55 9.6 -24.7 9.65 -22.9 9.85 -22.8 9.85 -22.7 10.0 -22.8 10.4 Q-22.85 10.7 -22.2 10.75 L-22.45 11.0 -22.45 11.1 -22.45 11.5 -21.75 11.6 -21.25 11.7 -20.65 11.5 Q-19.6 11.25 -18.55 11.0 L-17.15 10.6 -15.95 10.75 Q-15.55 10.85 -14.7 11.25 L-13.95 11.6 -13.2 11.95 -13.0 12.05 -11.85 12.55 -11.1 12.8 -10.65 12.55 -10.45 12.2 -10.75 11.9 -10.95 11.8 -11.2 11.6 -11.05 11.55 -10.35 12.15 -10.35 12.15 Q-9.95 12.55 -9.6 12.55 L-8.4 11.85 -8.05 11.35 Q-7.65 11.0 -6.9 11.0 L-6.45 11.0 -4.65 11.2 -4.05 11.15 -3.95 11.0 -3.95 10.9 -4.0 10.7 -4.15 10.6 -3.25 10.6 Q-2.7 10.8 -2.4 10.6 L-2.35 10.4 -2.35 10.4 -2.55 10.1 -2.05 10.1 -1.65 10.1 -0.4 10.2 -0.1 9.9 -0.2 9.75 Q-0.45 9.6 -1.25 9.3 L-1.35 9.3 -1.9 9.1 -2.35 9.0 -2.05 9.0 -1.3 9.05 -0.85 8.9 2.15 8.5 Q4.4 8.15 4.4 7.65 4.4 7.35 6.2 7.2 8.05 7.05 8.3 6.6 8.2 6.2 7.7 6.2 L7.6 6.2 5.2 6.15 4.45 6.15 Q3.1 6.2 1.75 6.2 1.1 6.15 0.45 6.15 0.15 5.75 -0.65 5.6 L-0.65 5.5 Q-0.65 5.0 -1.2 4.8 L-1.65 4.7 -1.85 4.6 -2.15 4.45 -4.55 4.4 -5.55 4.4 -5.6 4.35 -5.7 4.2 -6.95 4.15 Q-7.15 3.9 -7.7 3.6 L-8.25 3.4 -8.6 3.35 -8.8 3.4 -8.95 3.75 -9.1 3.75 -9.75 3.4 -10.2 2.7 Q-9.7 3.15 -9.0 3.25 L-8.5 3.3 -8.1 3.25 -7.9 3.25 -7.85 3.0 Q-7.85 2.55 -8.1 2.35 L-8.4 2.2 -9.05 2.15 -9.35 1.9 Q-9.8 1.4 -10.2 0.9 L-10.3 0.8 -10.65 0.35 Q-11.6 -0.75 -11.7 0.05 L-11.7 0.15 -11.2 1.4 Q-12.1 0.35 -12.8 0.15 L-12.8 0.6 -12.8 0.65 -10.65 4.05 Q-11.05 3.65 -11.45 3.6 -11.05 4.95 -9.85 6.35 L-9.5 6.75 Q-8.1 8.2 -6.45 8.2 L-6.1 8.15 -5.9 8.35 -5.8 8.45 Q-5.6 8.65 -5.65 8.95 L-8.95 9.15 -9.65 9.1 Q-9.95 9.1 -9.95 9.45 L-9.9 9.5 -9.65 9.8 -9.75 9.85 -10.25 10.0 -11.45 9.7 -11.6 9.75 -11.7 9.75 -11.75 10.3 -13.0 9.8 -13.65 9.45 -16.5 9.2 -17.35 9.35 -18.05 9.6 Q-18.8 10.0 -18.9 10.0 -19.5 9.6 -20.05 9.2 L-20.5 8.85 Q-21.6 8.75 -22.65 8.65 L-23.05 8.4 Q-22.85 8.05 -23.0 7.8 L-23.1 7.7 -23.4 7.6 -23.2 7.55 -22.7 7.5 -20.75 6.95 -19.35 6.05 -19.4 5.75 -19.8 5.7 -20.1 5.75 -19.85 5.35 -19.85 5.3 -19.2 5.15 -18.6 5.1 -18.4 5.1 -17.45 4.85 -17.8 5.15 -17.65 5.5 -18.2 6.15 -17.75 6.3 Q-17.0 6.3 -16.2 5.35 L-15.9 5.05 -16.2 5.7 -16.55 7.75 -16.25 8.2 -15.95 8.05 -15.8 7.2 -15.6 7.3 -15.3 7.45 -14.8 5.1 -14.7 5.1 -14.7 5.7 Q-14.7 6.15 -14.3 6.2 L-14.1 5.4 -14.15 4.55 -14.25 4.35 -14.45 3.35 -14.2 2.4 -13.95 1.6 -14.0 1.25 Q-14.6 1.45 -14.85 2.0 L-14.85 1.85 -14.9 1.4 -14.95 1.45 -14.85 1.05 Q-14.85 0.75 -15.0 0.65 L-15.15 0.6 -16.0 1.45 Q-17.4 2.7 -18.4 3.25 L-19.05 3.9 -19.05 4.05 -19.1 4.05 -19.3 4.1 -24.9 4.7 -26.35 5.0 -26.5 5.0 -27.15 5.1 -27.25 5.1 -27.45 5.1 -29.45 5.45 -29.65 5.55 Q-31.45 6.0 -31.45 6.65 M-12.95 4.2 L-12.95 4.35 Q-12.75 5.0 -12.55 5.65 L-12.45 6.05 Q-12.2 6.7 -12.0 7.35 L-12.0 7.35 Q-11.95 7.4 -11.9 7.45 L-11.4 8.3 -11.3 8.4 -11.0 8.55 -10.85 8.5 -10.7 8.45 -10.7 7.45 Q-10.8 7.35 -10.9 7.25 -11.25 6.55 -11.6 5.85 L-11.8 5.4 Q-12.0 4.95 -12.2 4.55 -12.5 3.85 -12.95 4.05 L-12.95 4.2"/>
    </path>
    <path d="M-24.55 7.0 Q-24.35 7.7 -23.2 7.55 -22.2 7.55 -20.75 6.95 -19.35 6.35 -19.4 5.75 L-22.05 6.2 Q-24.1 6.75 -24.55 7.0 M-12.95 4.2 Q-11.85 8.55 -11.0 8.55 -10.8 8.45 -10.7 7.45 L-12.9 3.65 -12.95 4.2 M-12.8 0.15 L-12.8 0.15 Q-11.85 0.4 -10.55 2.25 L-9.75 3.4 -9.2 3.7 Q-7.2 4.75 -6.6 5.35 L-6.6 5.55 Q-6.7 5.7 -6.95 5.7 L-8.7 5.1 -9.6 4.75 -9.95 4.8 -8.95 5.75 -6.65 7.25 Q-6.3 7.55 -6.85 8.2 -8.45 8.0 -9.85 6.35 -11.05 4.95 -10.65 4.05 L-12.8 0.6 -12.8 0.15 Q-12.1 0.35 -11.2 1.4 L-10.55 2.25 -9.75 3.4 -9.5 3.5 -9.0 3.8 -7.3 4.8 -6.6 5.35 -6.6 5.55 Q-6.7 5.7 -6.95 5.7 L-8.5 5.2 -9.5 4.75 -9.6 4.75 -9.95 4.8 -9.55 5.25 -8.95 5.75 -7.65 6.55 -6.8 7.15 -6.25 7.55 -5.95 8.05 -6.45 8.2 -7.5 8.05 Q-8.75 7.65 -9.85 6.35 L-10.95 4.8 -10.65 4.05 -12.8 0.6 -12.8 0.15" fill="#33cc00" fill-rule="evenodd" stroke="none">
      <animate attributeName="fill" dur="2s" repeatCount="indefinite" values="#33cc00;#00ff01"/>
      <animate attributeName="fill-opacity" dur="2s" repeatCount="indefinite" values="1.0;1.0"/>
      <animate attributeName="d" dur="2s" repeatCount="indefinite" values="M-24.55 7.0 Q-24.35 7.7 -23.2 7.55 -22.2 7.55 -20.75 6.95 -19.35 6.35 -19.4 5.75 L-22.05 6.2 Q-24.1 6.75 -24.55 7.0 M-12.95 4.2 Q-11.85 8.55 -11.0 8.55 -10.8 8.45 -10.7 7.45 L-12.9 3.65 -12.95 4.2 M-12.8 0.15 L-12.8 0.15 Q-11.85 0.4 -10.55 2.25 L-9.75 3.4 -9.2 3.7 Q-7.2 4.75 -6.6 5.35 L-6.6 5.55 Q-6.7 5.7 -6.95 5.7 L-8.7 5.1 -9.6 4.75 -9.95 4.8 -8.95 5.75 -6.65 7.25 Q-6.3 7.55 -6.85 8.2 -8.45 8.0 -9.85 6.35 -11.05 4.95 -10.65 4.05 L-12.8 0.6 -12.8 0.15 Q-12.1 0.35 -11.2 1.4 L-10.55 2.25 -9.75 3.4 -9.5 3.5 -9.0 3.8 -7.3 4.8 -6.6 5.35 -6.6 5.55 Q-6.7 5.7 -6.95 5.7 L-8.5 5.2 -9.5 4.75 -9.6 4.75 -9.95 4.8 -9.55 5.25 -8.95 5.75 -7.65 6.55 -6.8 7.15 -6.25 7.55 -5.95 8.05 -6.45 8.2 -7.5 8.05 Q-8.75 7.65 -9.85 6.35 L-10.95 4.8 -10.65 4.05 -12.8 0.6 -12.8 0.15;M-25.7 7.2 Q-25.7 7.25 -25.7 7.3 -25.0 7.35 -24.3 7.4 -24.5 7.25 -23.6 6.65 L-25.15 7.2 Q-25.45 7.2 -25.7 7.2 M-12.95 4.2 Q-11.85 8.55 -11.0 8.55 -10.8 8.45 -10.7 7.45 L-12.9 3.65 -12.95 4.2 M-10.2 2.7 L-10.0 3.05 Q-9.9 3.2 -9.85 3.3 L-9.75 3.4 -9.75 3.4 Q-9.5 3.55 -9.3 3.65 L-9.3 3.65 Q-9.3 3.65 -9.3 3.65 L-9.1 3.75 -8.95 3.75 -8.95 3.75 -8.95 3.55 -8.8 3.4 Q-8.9 3.3 -9.0 3.25 -9.05 3.25 -9.1 3.25 -9.4 3.15 -9.65 3.05 L-10.1 2.8 -10.2 2.7 Q-9.45 5.3 -8.95 5.75 L-8.3 6.15 -7.6 6.6 -7.5 6.7 -7.35 6.5 -6.1 6.35 -5.5 6.45 -5.4 6.45 Q-5.25 6.45 -5.1 6.45 L-4.15 6.55 -3.55 6.5 -3.55 6.5 -3.6 6.3 -3.6 6.1 -3.25 5.95 -2.55 5.85 -2.35 5.35 -2.65 5.4 -2.95 5.5 -3.2 5.5 -3.85 5.55 Q-4.75 5.5 -5.6 5.45 L-6.6 5.35 -7.4 5.6 -9.7 4.75 -9.95 4.8"/>
    </path>
    <path d="M-18.2 6.15 L-18.2 6.15 -18.1 6.25 -18.05 6.25 -17.75 6.3 -17.45 6.25 -16.85 6.0 Q-16.75 5.9 -16.65 5.8 L-16.3 5.45 -16.2 5.35 -15.9 5.05 -16.0 5.25 -16.2 5.7 -16.3 5.9 -16.3 6.1 -16.3 6.2 -16.4 6.55 -16.4 6.65 -16.5 6.85 -16.5 6.95 -16.5 6.95 Q-16.5 7.05 -16.5 7.15 L-16.5 7.25 -16.55 7.75 -16.25 8.2 -16.25 8.2 -16.15 8.2 -16.05 8.1 -15.95 8.05 Q-15.85 7.6 -15.8 7.2 L-15.3 7.45 -15.3 7.45 Q-15.2 7.05 -15.1 6.65 -15.05 6.5 -15.0 6.4 L-14.8 5.1 -14.7 5.1 -14.7 5.1 -14.7 5.2 Q-14.7 5.45 -14.7 5.7 L-14.65 6.0 -14.4 6.2 -14.4 6.2 -14.3 6.2 -14.2 6.05 Q-14.15 5.9 -14.1 5.75 L-14.1 5.4 -14.1 5.2 Q-14.15 4.95 -14.15 4.7 L-14.25 4.35 -14.3 4.2 -14.4 4.0 Q-14.45 3.65 -14.45 3.35 L-14.45 3.15 -14.4 2.95 -14.4 2.95 Q-14.3 2.65 -14.2 2.4 -14.1 2.2 -14.05 2.05 -14.0 1.8 -13.95 1.6 -13.95 1.55 -13.95 1.5 L-14.0 1.25 -14.3 1.4 -14.3 1.4 Q-14.45 1.55 -14.6 1.65 L-14.7 1.75 -14.85 2.0 -14.95 2.3 -15.0 2.5 -15.0 2.6 -15.1 2.95 -15.1 3.15 Q-15.1 3.25 -15.1 3.35 L-15.1 3.55 -15.1 3.55 -15.1 4.2 -15.1 4.2 -15.2 4.2 -15.45 4.4 -15.55 4.45 -15.45 4.3 -15.45 4.1 -15.45 3.95 -15.5 3.6 -15.5 3.5 -15.65 3.55 -15.85 3.55 Q-16.05 3.75 -16.25 3.9 L-16.25 3.9 -16.35 4.0 -16.45 4.1 -16.5 4.1 -16.6 4.15 -17.15 4.6 -17.35 4.8 -17.45 4.9 -17.45 4.9 -17.55 5.0 -17.65 5.05 -17.75 5.4 -18.2 6.05 -18.2 6.15 M-12.95 4.2 L-12.85 4.5 -12.45 6.05 Q-11.65 8.55 -11.0 8.55 L-10.7 8.45 -10.7 7.45 Q-11.15 7.1 -11.6 5.95 L-11.8 5.4 -12.9 3.65 -12.95 4.2" fill="#00ff00" fill-rule="evenodd" stroke="none">
      <animate attributeName="fill" dur="2s" repeatCount="indefinite" values="#00ff00;#00ff01"/>
      <animate attributeName="fill-opacity" dur="2s" repeatCount="indefinite" values="1.0;1.0"/>
      <animate attributeName="d" dur="2s" repeatCount="indefinite" values="M-18.2 6.15 L-18.2 6.15 -18.1 6.25 -18.05 6.25 -17.75 6.3 -17.45 6.25 -16.85 6.0 Q-16.75 5.9 -16.65 5.8 L-16.3 5.45 -16.2 5.35 -15.9 5.05 -16.0 5.25 -16.2 5.7 -16.3 5.9 -16.3 6.1 -16.3 6.2 -16.4 6.55 -16.4 6.65 -16.5 6.85 -16.5 6.95 -16.5 6.95 Q-16.5 7.05 -16.5 7.15 L-16.5 7.25 -16.55 7.75 -16.25 8.2 -16.25 8.2 -16.15 8.2 -16.05 8.1 -15.95 8.05 Q-15.85 7.6 -15.8 7.2 L-15.3 7.45 -15.3 7.45 Q-15.2 7.05 -15.1 6.65 -15.05 6.5 -15.0 6.4 L-14.8 5.1 -14.7 5.1 -14.7 5.1 -14.7 5.2 Q-14.7 5.45 -14.7 5.7 L-14.65 6.0 -14.4 6.2 -14.4 6.2 -14.3 6.2 -14.2 6.05 Q-14.15 5.9 -14.1 5.75 L-14.1 5.4 -14.1 5.2 Q-14.15 4.95 -14.15 4.7 L-14.25 4.35 -14.3 4.2 -14.4 4.0 Q-14.45 3.65 -14.45 3.35 L-14.45 3.15 -14.4 2.95 -14.4 2.95 Q-14.3 2.65 -14.2 2.4 -14.1 2.2 -14.05 2.05 -14.0 1.8 -13.95 1.6 -13.95 1.55 -13.95 1.5 L-14.0 1.25 -14.3 1.4 -14.3 1.4 Q-14.45 1.55 -14.6 1.65 L-14.7 1.75 -14.85 2.0 -14.95 2.3 -15.0 2.5 -15.0 2.6 -15.1 2.95 -15.1 3.15 Q-15.1 3.25 -15.1 3.35 L-15.1 3.55 -15.1 3.55 -15.1 4.2 -15.1 4.2 -15.2 4.2 -15.45 4.4 -15.55 4.45 -15.45 4.3 -15.45 4.1 -15.45 3.95 -15.5 3.6 -15.5 3.5 -15.65 3.55 -15.85 3.55 Q-16.05 3.75 -16.25 3.9 L-16.25 3.9 -16.35 4.0 -16.45 4.1 -16.5 4.1 -16.6 4.15 -17.15 4.6 -17.35 4.8 -17.45 4.9 -17.45 4.9 -17.55 5.0 -17.65 5.05 -17.75 5.4 -18.2 6.05 -18.2 6.15 M-12.95 4.2 L-12.85 4.5 -12.45 6.05 Q-11.65 8.55 -11.0 8.55 L-10.7 8.45 -10.7 7.45 Q-11.15 7.1 -11.6 5.95 L-11.8 5.4 -12.9 3.65 -12.95 4.2;M-23.4 7.6 L-22.95 7.9 -23.05 8.4 -22.65 8.65 -21.65 8.8 -20.5 8.85 -18.9 10.0 Q-18.8 10.0 -18.05 9.6 L-16.5 9.2 -16.05 9.2 -14.55 9.35 -13.65 9.45 -12.0 10.2 -11.75 10.3 -11.7 9.75 -11.45 9.7 -10.25 10.0 -9.75 9.85 -10.3 9.5 -9.9 9.5 -9.95 9.45 Q-9.95 9.1 -9.65 9.1 L-8.95 9.15 -7.45 9.05 -5.65 8.95 -5.65 8.75 -5.8 8.45 -6.1 8.15 -6.45 8.2 Q-7.7 8.2 -8.8 7.35 L-9.85 6.35 -9.95 6.25 Q-11.05 4.9 -11.45 3.6 -11.05 3.65 -10.65 4.05 L-12.7 0.7 -12.8 0.6 -12.8 0.45 -12.8 0.15 Q-12.2 0.3 -11.45 1.1 L-11.2 1.4 -11.7 0.15 -11.7 0.05 -11.85 -0.25 -12.0 -0.85 Q-12.0 -1.65 -11.55 -1.9 L-11.8 -3.0 -11.95 -4.15 Q-12.0 -5.1 -12.55 -5.6 L-13.45 -5.65 -13.95 -5.05 -14.25 -5.3 Q-14.65 -5.3 -15.35 -3.45 L-15.45 -3.35 -15.8 -2.4 -15.75 -2.4 Q-15.05 -2.25 -14.8 -1.6 -14.65 -1.2 -14.65 -0.6 -14.65 -0.15 -15.0 0.65 -14.85 0.75 -14.85 1.05 L-14.9 1.4 -14.85 1.85 -14.85 2.0 Q-14.6 1.45 -14.0 1.25 L-13.95 1.6 -14.2 2.4 -14.45 3.35 -14.25 4.35 -14.1 4.95 -14.1 5.4 -14.3 6.2 Q-14.7 6.15 -14.7 5.7 L-14.7 5.1 -14.8 5.1 -15.3 7.45 -15.4 7.4 -15.8 7.2 -15.95 8.05 -16.25 8.2 -16.55 7.75 -16.5 7.25 -16.45 6.8 -16.2 5.7 -16.1 5.4 -15.9 5.05 -16.2 5.35 Q-17.0 6.3 -17.75 6.3 L-18.0 6.3 -18.2 6.15 -17.65 5.5 -17.8 5.15 -17.45 4.85 -19.2 5.15 -19.85 5.35 -20.1 5.75 -19.8 5.7 -19.4 5.75 -19.35 6.05 -20.75 6.95 -23.2 7.55 -23.4 7.6 M-15.55 4.45 L-15.55 4.45 -15.1 4.2 Q-15.05 3.65 -15.0 3.1 L-15.0 3.0 -15.0 2.75 Q-15.25 3.15 -15.5 3.5 L-15.5 3.7 -15.5 4.35 -15.55 4.45"/>
    </path>
    <path d="M-18.2 6.15 L-18.0 6.3 -17.75 6.3 Q-17.0 6.3 -16.2 5.35 L-15.9 5.05 -16.2 5.7 -16.25 5.9 -16.55 7.75 -16.25 8.2 -15.95 8.05 -15.8 7.2 -15.3 7.45 -14.8 5.1 -14.7 5.1 -14.7 5.7 Q-14.7 6.15 -14.3 6.2 L-14.1 5.4 -14.1 5.0 -14.25 4.35 -14.45 3.35 -14.2 2.4 -13.95 1.6 -14.0 1.25 Q-14.8 1.5 -14.95 2.35 L-15.0 2.6 -15.1 4.2 -15.55 4.45 -15.45 4.1 -15.45 3.95 -15.45 3.8 -16.1 3.65 -17.65 5.5 -18.2 6.15 M-12.8 0.15 Q-12.1 0.35 -11.2 1.4 L-10.55 2.25 -9.75 3.4 -9.5 3.5 -9.0 3.8 -7.3 4.8 -6.6 5.35 -6.6 5.55 Q-6.7 5.7 -6.95 5.7 L-8.5 5.2 -9.5 4.75 -9.6 4.75 -9.95 4.8 -9.55 5.25 -8.95 5.75 -7.65 6.55 -6.8 7.15 -6.25 7.55 -5.95 8.05 -6.45 8.2 -7.5 8.05 Q-8.75 7.65 -9.85 6.35 L-10.95 4.8 -10.65 4.05 -12.8 0.6 -12.8 0.15" fill="#33cc00" fill-rule="evenodd" stroke="none">
      <animate attributeName="fill" dur="2s" repeatCount="indefinite" values="#33cc00;#33cc01"/>
      <animate attributeName="fill-opacity" dur="2s" repeatCount="indefinite" values="1.0;1.0"/>
      <animate attributeName="d" dur="2s" repeatCount="indefinite" values="M-18.2 6.15 L-18.0 6.3 -17.75 6.3 Q-17.0 6.3 -16.2 5.35 L-15.9 5.05 -16.2 5.7 -16.25 5.9 -16.55 7.75 -16.25 8.2 -15.95 8.05 -15.8 7.2 -15.3 7.45 -14.8 5.1 -14.7 5.1 -14.7 5.7 Q-14.7 6.15 -14.3 6.2 L-14.1 5.4 -14.1 5.0 -14.25 4.35 -14.45 3.35 -14.2 2.4 -13.95 1.6 -14.0 1.25 Q-14.8 1.5 -14.95 2.35 L-15.0 2.6 -15.1 4.2 -15.55 4.45 -15.45 4.1 -15.45 3.95 -15.45 3.8 -16.1 3.65 -17.65 5.5 -18.2 6.15 M-12.8 0.15 Q-12.1 0.35 -11.2 1.4 L-10.55 2.25 -9.75 3.4 -9.5 3.5 -9.0 3.8 -7.3 4.8 -6.6 5.35 -6.6 5.55 Q-6.7 5.7 -6.95 5.7 L-8.5 5.2 -9.5 4.75 -9.6 4.75 -9.95 4.8 -9.55 5.25 -8.95 5.75 -7.65 6.55 -6.8 7.15 -6.25 7.55 -5.95 8.05 -6.45 8.2 -7.5 8.05 Q-8.75 7.65 -9.85 6.35 L-10.95 4.8 -10.65 4.05 -12.8 0.6 -12.8 0.15;M-15.55 4.45 L-15.55 4.45 -15.45 4.35 Q-15.35 4.25 -15.3 4.2 L-15.2 4.2 -15.1 4.2 -15.1 4.2 -15.0 3.9 -15.0 3.8 -15.0 3.8 -15.0 3.7 -15.0 3.6 -15.0 3.15 -15.0 3.15 -15.0 3.05 Q-15.0 3.0 -15.0 2.95 L-15.0 2.75 -15.0 2.65 -15.1 2.95 -15.2 3.1 -15.25 3.2 -15.3 3.3 -15.3 3.3 Q-15.4 3.4 -15.5 3.5 L-15.5 3.6 -15.45 3.8 -15.45 3.9 -15.45 3.95 -15.45 3.95 -15.45 3.95 -15.45 4.1 -15.55 4.35 -15.55 4.45 M-9.95 4.8 Q-9.45 5.3 -8.95 5.75 L-8.3 6.15 -7.6 6.6 -7.5 6.7 -7.35 6.5 -6.1 6.35 -5.5 6.45 -5.4 6.45 Q-5.25 6.45 -5.1 6.45 L-4.15 6.55 -3.55 6.5 -3.55 6.5 -3.6 6.3 -3.6 6.1 -3.25 5.95 -2.55 5.85 -2.35 5.35 -2.65 5.4 -2.95 5.5 -3.2 5.5 -3.85 5.55 Q-4.75 5.5 -5.6 5.45 L-6.6 5.35 -7.4 5.6 -9.7 4.75 -9.95 4.8"/>
    </path>
    <path d="M-27.45 7.65 Q-27.1 7.35 -26.75 7.05 L-26.65 7.05 -25.8 6.75 -25.8 6.65 -25.8 6.6 -26.15 6.5 -26.1 6.5 -25.4 6.45 -22.7 5.9 -22.6 5.9 -22.6 5.9 -22.45 5.9 -22.0 5.7 Q-21.5 5.55 -20.95 5.4 L-20.4 5.2 -20.4 5.2 Q-20.25 5.15 -20.1 5.1 L-19.9 5.0 -19.85 5.0 -19.65 4.9 -19.55 4.9 Q-19.3 4.85 -19.05 4.75 L-18.85 4.65 -18.45 4.55 -18.05 4.35 -17.6 4.15 -17.5 4.05 -17.1 3.8 -16.8 3.5 Q-16.7 3.35 -16.55 3.2 L-16.35 2.9 -16.35 2.9 -15.65 1.8 -15.65 1.8 -15.65 1.7 -15.4 1.3 -15.3 1.2 -15.2 1.0 -14.75 0.05 -14.7 -0.25 -14.65 -0.6 Q-14.7 -1.05 -14.75 -1.5 L-14.85 -1.75 -15.05 -2.05 -15.3 -2.2 -15.45 -2.3 -15.75 -2.4 -15.8 -2.4 -15.7 -2.6 -15.6 -2.9 -15.6 -2.9 -15.45 -3.35 -15.35 -3.55 -15.25 -3.75 -15.15 -3.85 -14.85 -4.55 -14.25 -5.3 -14.05 -5.2 -13.95 -5.05 -13.95 -5.05 -13.95 -5.05 Q-13.85 -5.15 -13.75 -5.3 L-13.55 -5.5 Q-13.05 -5.95 -12.65 -5.7 L-12.55 -5.6 Q-12.25 -5.35 -12.1 -4.95 -12.05 -4.7 -11.95 -4.4 L-11.95 -4.15 -11.9 -3.7 -11.65 -2.45 -11.55 -1.9 -11.95 -1.2 -12.0 -1.0 -12.0 -0.85 -12.0 -0.75 -11.8 -0.1 -11.6 0.25 -11.5 0.35 -11.35 0.55 -11.35 0.55 Q-11.25 0.7 -11.15 0.85 L-10.85 1.25 -9.8 2.5 Q-9.8 2.5 -9.8 2.5 L-9.8 2.5 -9.7 2.6 -9.5 2.8 Q-8.95 3.25 -8.4 3.7 L-8.2 3.85 Q-7.5 4.2 -6.75 4.55 -6.55 4.6 -6.35 4.65 L-4.45 4.9 -4.45 4.9 -4.25 4.9 Q-3.75 4.9 -3.25 4.9 L-2.75 4.9 -2.65 4.9 Q-2.3 4.9 -1.95 4.85 L-1.95 4.85 -1.95 4.9 Q-1.95 5.2 -2.4 5.5 L-2.05 5.7 -1.85 5.8 -1.7 5.95 Q-1.8 6.05 -1.9 6.2 L-1.9 6.3 -2.0 6.3 -2.2 6.3 -2.45 6.3 Q-2.7 6.3 -2.95 6.35 L-3.25 6.7 -3.6 6.85 -3.7 6.85 -3.95 6.9 -4.05 6.9 -4.3 6.95 -4.6 6.95 Q-4.8 6.9 -5.0 6.85 L-5.7 6.75 -5.8 6.75 -5.9 6.75 -6.3 6.75 -5.15 7.15 -5.0 7.15 -4.9 7.15 -4.6 7.25 Q-4.5 7.3 -4.35 7.35 L-4.25 7.35 Q-4.0 7.45 -3.7 7.55 -3.35 7.75 -3.35 8.0 -3.35 8.5 -4.7 8.5 L-5.1 8.5 -5.75 9.55 -5.75 9.55 Q-5.9 9.55 -6.1 9.55 -6.6 9.55 -7.1 9.55 -7.5 9.55 -7.9 9.55 -8.45 9.55 -9.0 9.55 L-10.3 9.5 -10.1 9.55 -9.75 9.8 -9.7 10.0 -9.7 10.05 -9.75 10.35 -9.75 10.4 Q-10.0 10.4 -10.25 10.45 L-10.35 10.45 -10.55 10.45 -11.2 10.1 -11.2 10.1 -11.1 10.3 -11.1 10.4 -11.1 10.4 -11.2 10.5 Q-11.35 10.65 -11.5 10.8 L-11.9 11.05 -11.9 11.05 -12.0 10.95 -12.05 10.95 -12.2 10.95 -12.45 10.8 -13.35 10.2 -13.45 10.1 Q-13.65 10.0 -13.85 9.85 L-14.05 9.75 -14.6 9.55 Q-14.75 9.5 -14.9 9.45 L-15.15 9.45 -15.45 9.4 -15.45 9.4 -15.7 9.35 -15.8 9.35 -16.0 9.45 -16.15 9.45 -16.35 9.5 -16.85 9.65 -17.2 9.8 -17.2 9.8 -17.5 9.65 -17.7 9.5 Q-17.95 9.6 -18.2 9.7 L-18.7 10.0 -19.3 10.3 Q-19.8 10.3 -19.8 9.5 L-20.15 9.6 -20.45 9.7 -20.75 9.65 -20.95 9.65 -20.95 9.65 -20.95 9.5 Q-20.95 9.3 -20.95 9.1 L-20.8 9.0 -20.7 8.9 -20.7 8.85 -21.55 8.85 -21.95 8.95 -21.95 8.95 -22.75 9.05 -23.0 9.05 -23.0 9.05 -23.2 9.05 -23.4 9.05 -23.9 9.0 -24.0 9.0 -24.5 8.85 -24.9 8.95 -25.0 9.05 -25.15 9.05 -25.25 8.95 -25.45 8.75 -25.25 8.35 -25.05 8.15 -24.95 8.05 -24.8 7.85 -25.0 7.85 -25.4 7.8 -25.6 7.8 -25.65 7.8 -25.85 7.6 -26.15 7.7 -26.8 7.95 -27.35 7.95 -27.4 7.9 -27.45 7.65 -27.45 7.65 M-24.55 7.0 Q-24.1 6.75 -22.05 6.2 L-19.4 5.75 Q-19.35 6.35 -20.75 6.95 -22.2 7.55 -23.2 7.55 -24.35 7.7 -24.55 7.0 -24.1 6.75 -22.05 6.2 L-19.4 5.75 Q-19.35 6.35 -20.75 6.95 -22.2 7.55 -23.2 7.55 -24.35 7.7 -24.55 7.0 M-18.2 6.15 L-18.2 6.05 -17.75 5.4 -17.65 5.05 -17.55 5.0 -17.45 4.9 -17.45 4.9 -17.35 4.8 -17.15 4.6 -16.6 4.15 -16.5 4.1 -16.45 4.1 -16.35 4.0 -16.25 3.9 -16.25 3.9 Q-16.05 3.75 -15.85 3.55 L-15.65 3.55 -15.5 3.5 -15.5 3.6 -15.45 3.95 -15.45 4.1 -15.45 4.3 -15.55 4.45 -15.45 4.4 -15.2 4.2 -15.1 4.2 -15.1 4.2 -15.1 3.55 -15.1 3.55 -15.1 3.35 Q-15.1 3.25 -15.1 3.15 L-15.1 2.95 -15.0 2.6 -15.0 2.5 -14.95 2.3 -14.85 2.0 -14.7 1.75 -14.6 1.65 Q-14.45 1.55 -14.3 1.4 L-14.3 1.4 -14.0 1.25 -13.95 1.5 Q-13.95 1.55 -13.95 1.6 -14.0 1.8 -14.05 2.05 -14.1 2.2 -14.2 2.4 -14.3 2.65 -14.4 2.95 L-14.4 2.95 -14.45 3.15 -14.45 3.35 Q-14.45 3.65 -14.4 4.0 L-14.3 4.2 -14.25 4.35 -14.15 4.7 Q-14.15 4.95 -14.1 5.2 L-14.1 5.4 -14.1 5.75 Q-14.15 5.9 -14.2 6.05 L-14.3 6.2 -14.4 6.2 -14.4 6.2 -14.65 6.0 -14.7 5.7 Q-14.7 5.45 -14.7 5.2 L-14.7 5.1 -14.7 5.1 -14.8 5.1 -15.0 6.4 Q-15.05 6.5 -15.1 6.65 -15.2 7.05 -15.3 7.45 L-15.3 7.45 -15.8 7.2 Q-15.85 7.6 -15.95 8.05 L-16.05 8.1 -16.15 8.2 -16.25 8.2 -16.25 8.2 -16.55 7.75 -16.5 7.25 -16.5 7.15 Q-16.5 7.05 -16.5 6.95 L-16.5 6.95 -16.5 6.85 -16.4 6.65 -16.4 6.55 -16.3 6.2 -16.3 6.1 -16.3 5.9 -16.2 5.7 -16.0 5.25 -15.9 5.05 -16.2 5.35 -16.3 5.45 -16.65 5.8 Q-16.75 5.9 -16.85 6.0 L-17.45 6.25 -17.75 6.3 -18.05 6.25 -18.1 6.25 -18.2 6.15 -18.2 6.15 -17.65 5.5 -16.1 3.65 -15.45 3.8 -15.45 3.95 -15.45 4.1 -15.55 4.45 -15.1 4.2 -15.0 2.6 -14.95 2.35 Q-14.8 1.5 -14.0 1.25 L-13.95 1.6 -14.2 2.4 -14.45 3.35 -14.25 4.35 -14.1 5.0 -14.1 5.4 -14.3 6.2 Q-14.7 6.15 -14.7 5.7 L-14.7 5.1 -14.8 5.1 -15.3 7.45 -15.8 7.2 -15.95 8.05 -16.25 8.2 -16.55 7.75 -16.25 5.9 -16.2 5.7 -15.9 5.05 -16.2 5.35 Q-17.0 6.3 -17.75 6.3 L-18.0 6.3 -18.2 6.15 M-12.95 4.2 L-12.9 3.65 -11.8 5.4 -11.6 5.95 Q-11.15 7.1 -10.7 7.45 L-10.7 8.45 -11.0 8.55 Q-11.65 8.55 -12.45 6.05 L-12.85 4.5 -12.95 4.2 -12.9 3.65 -10.7 7.45 Q-10.8 8.45 -11.0 8.55 -11.85 8.55 -12.95 4.2 M-12.8 0.15 L-12.8 0.6 Q-11.75 2.3 -10.65 4.05 -11.2 4.5 -10.6 5.4 L-9.85 6.35 Q-8.3 8.2 -6.45 8.2 -6.15 7.7 -6.35 7.55 L-8.45 6.05 -8.95 5.75 -9.05 5.65 -9.95 4.8 -9.6 4.75 -6.95 5.7 Q-6.7 5.7 -6.6 5.55 L-6.6 5.35 Q-7.25 4.65 -9.75 3.4 L-10.55 2.25 Q-11.85 0.4 -12.8 0.15 L-12.8 0.15 -12.8 0.6 -10.65 4.05 Q-11.05 4.95 -9.85 6.35 -8.45 8.0 -6.85 8.2 -6.3 7.55 -6.65 7.25 L-8.95 5.75 -9.95 4.8 -9.6 4.75 -8.7 5.1 -6.95 5.7 Q-6.7 5.7 -6.6 5.55 L-6.6 5.35 Q-7.2 4.75 -9.2 3.7 L-9.75 3.4 -10.55 2.25 Q-11.85 0.4 -12.8 0.15 L-12.8 0.15 -12.8 0.6 -10.65 4.05 -10.95 4.8 -9.85 6.35 Q-8.75 7.65 -7.5 8.05 L-6.45 8.2 -5.95 8.05 -6.25 7.55 -6.8 7.15 -7.65 6.55 -8.95 5.75 -9.55 5.25 -9.95 4.8 -9.6 4.75 -9.5 4.75 -8.5 5.2 -6.95 5.7 Q-6.7 5.7 -6.6 5.55 L-6.6 5.35 -7.3 4.8 -9.0 3.8 -9.5 3.5 -9.75 3.4 -10.55 2.25 -11.2 1.4 Q-12.1 0.35 -12.8 0.15 L-12.8 0.6 -10.65 4.05 -10.95 4.8 -9.85 6.35 Q-8.75 7.65 -7.5 8.05 L-6.45 8.2 -5.95 8.05 -6.25 7.55 -6.8 7.15 -7.65 6.55 -8.95 5.75 -9.55 5.25 -9.95 4.8 -9.6 4.75 -9.5 4.75 -8.5 5.2 -6.95 5.7 Q-6.7 5.7 -6.6 5.55 L-6.6 5.35 -7.3 4.8 -9.0 3.8 -9.5 3.5 -9.75 3.4 -10.55 2.25 -11.2 1.4 Q-12.1 0.35 -12.8 0.15" fill="none" stroke="#000000" stroke-linecap="round" stroke-linejoin="round" stroke-opacity="0.0" stroke-width="1.0">
      <animate attributeName="stroke" dur="2s" repeatCount="indefinite" values="#000000;#000001"/>
      <animate attributeName="stroke-width" dur="2s" repeatCount="indefinite" values="0.0;0.0"/>
      <animate attributeName="fill-opacity" dur="2s" repeatCount="indefinite" values="0.0;0.0"/>
      <animate attributeName="d" dur="2s" repeatCount="indefinite" values="M-27.45 7.65 Q-27.1 7.35 -26.75 7.05 L-26.65 7.05 -25.8 6.75 -25.8 6.65 -25.8 6.6 -26.15 6.5 -26.1 6.5 -25.4 6.45 -22.7 5.9 -22.6 5.9 -22.6 5.9 -22.45 5.9 -22.0 5.7 Q-21.5 5.55 -20.95 5.4 L-20.4 5.2 -20.4 5.2 Q-20.25 5.15 -20.1 5.1 L-19.9 5.0 -19.85 5.0 -19.65 4.9 -19.55 4.9 Q-19.3 4.85 -19.05 4.75 L-18.85 4.65 -18.45 4.55 -18.05 4.35 -17.6 4.15 -17.5 4.05 -17.1 3.8 -16.8 3.5 Q-16.7 3.35 -16.55 3.2 L-16.35 2.9 -16.35 2.9 -15.65 1.8 -15.65 1.8 -15.65 1.7 -15.4 1.3 -15.3 1.2 -15.2 1.0 -14.75 0.05 -14.7 -0.25 -14.65 -0.6 Q-14.7 -1.05 -14.75 -1.5 L-14.85 -1.75 -15.05 -2.05 -15.3 -2.2 -15.45 -2.3 -15.75 -2.4 -15.8 -2.4 -15.7 -2.6 -15.6 -2.9 -15.6 -2.9 -15.45 -3.35 -15.35 -3.55 -15.25 -3.75 -15.15 -3.85 -14.85 -4.55 -14.25 -5.3 -14.05 -5.2 -13.95 -5.05 -13.95 -5.05 -13.95 -5.05 Q-13.85 -5.15 -13.75 -5.3 L-13.55 -5.5 Q-13.05 -5.95 -12.65 -5.7 L-12.55 -5.6 Q-12.25 -5.35 -12.1 -4.95 -12.05 -4.7 -11.95 -4.4 L-11.95 -4.15 -11.9 -3.7 -11.65 -2.45 -11.55 -1.9 -11.95 -1.2 -12.0 -1.0 -12.0 -0.85 -12.0 -0.75 -11.8 -0.1 -11.6 0.25 -11.5 0.35 -11.35 0.55 -11.35 0.55 Q-11.25 0.7 -11.15 0.85 L-10.85 1.25 -9.8 2.5 Q-9.8 2.5 -9.8 2.5 L-9.8 2.5 -9.7 2.6 -9.5 2.8 Q-8.95 3.25 -8.4 3.7 L-8.2 3.85 Q-7.5 4.2 -6.75 4.55 -6.55 4.6 -6.35 4.65 L-4.45 4.9 -4.45 4.9 -4.25 4.9 Q-3.75 4.9 -3.25 4.9 L-2.75 4.9 -2.65 4.9 Q-2.3 4.9 -1.95 4.85 L-1.95 4.85 -1.95 4.9 Q-1.95 5.2 -2.4 5.5 L-2.05 5.7 -1.85 5.8 -1.7 5.95 Q-1.8 6.05 -1.9 6.2 L-1.9 6.3 -2.0 6.3 -2.2 6.3 -2.45 6.3 Q-2.7 6.3 -2.95 6.35 L-3.25 6.7 -3.6 6.85 -3.7 6.85 -3.95 6.9 -4.05 6.9 -4.3 6.95 -4.6 6.95 Q-4.8 6.9 -5.0 6.85 L-5.7 6.75 -5.8 6.75 -5.9 6.75 -6.3 6.75 -5.15 7.15 -5.0 7.15 -4.9 7.15 -4.6 7.25 Q-4.5 7.3 -4.35 7.35 L-4.25 7.35 Q-4.0 7.45 -3.7 7.55 -3.35 7.75 -3.35 8.0 -3.35 8.5 -4.7 8.5 L-5.1 8.5 -5.75 9.55 -5.75 9.55 Q-5.9 9.55 -6.1 9.55 -6.6 9.55 -7.1 9.55 -7.5 9.55 -7.9 9.55 -8.45 9.55 -9.0 9.55 L-10.3 9.5 -10.1 9.55 -9.75 9.8 -9.7 10.0 -9.7 10.05 -9.75 10.35 -9.75 10.4 Q-10.0 10.4 -10.25 10.45 L-10.35 10.45 -10.55 10.45 -11.2 10.1 -11.2 10.1 -11.1 10.3 -11.1 10.4 -11.1 10.4 -11.2 10.5 Q-11.35 10.65 -11.5 10.8 L-11.9 11.05 -11.9 11.05 -12.0 10.95 -12.05 10.95 -12.2 10.95 -12.45 10.8 -13.35 10.2 -13.45 10.1 Q-13.65 10.0 -13.85 9.85 L-14.05 9.75 -14.6 9.55 Q-14.75 9.5 -14.9 9.45 L-15.15 9.45 -15.45 9.4 -15.45 9.4 -15.7 9.35 -15.8 9.35 -16.0 9.45 -16.15 9.45 -16.35 9.5 -16.85 9.65 -17.2 9.8 -17.2 9.8 -17.5 9.65 -17.7 9.5 Q-17.95 9.6 -18.2 9.7 L-18.7 10.0 -19.3 10.3 Q-19.8 10.3 -19.8 9.5 L-20.15 9.6 -20.45 9.7 -20.75 9.65 -20.95 9.65 -20.95 9.65 -20.95 9.5 Q-20.95 9.3 -20.95 9.1 L-20.8 9.0 -20.7 8.9 -20.7 8.85 -21.55 8.85 -21.95 8.95 -21.95 8.95 -22.75 9.05 -23.0 9.05 -23.0 9.05 -23.2 9.05 -23.4 9.05 -23.9 9.0 -24.0 9.0 -24.5 8.85 -24.9 8.95 -25.0 9.05 -25.15 9.05 -25.25 8.95 -25.45 8.75 -25.25 8.35 -25.05 8.15 -24.95 8.05 -24.8 7.85 -25.0 7.85 -25.4 7.8 -25.6 7.8 -25.65 7.8 -25.85 7.6 -26.15 7.7 -26.8 7.95 -27.35 7.95 -27.4 7.9 -27.45 7.65 -27.45 7.65 M-24.55 7.0 Q-24.1 6.75 -22.05 6.2 L-19.4 5.75 Q-19.35 6.35 -20.75 6.95 -22.2 7.55 -23.2 7.55 -24.35 7.7 -24.55 7.0 -24.1 6.75 -22.05 6.2 L-19.4 5.75 Q-19.35 6.35 -20.75 6.95 -22.2 7.55 -23.2 7.55 -24.35 7.7 -24.55 7.0 M-18.2 6.15 L-18.2 6.05 -17.75 5.4 -17.65 5.05 -17.55 5.0 -17.45 4.9 -17.45 4.9 -17.35 4.8 -17.15 4.6 -16.6 4.15 -16.5 4.1 -16.45 4.1 -16.35 4.0 -16.25 3.9 -16.25 3.9 Q-16.05 3.75 -15.85 3.55 L-15.65 3.55 -15.5 3.5 -15.5 3.6 -15.45 3.95 -15.45 4.1 -15.45 4.3 -15.55 4.45 -15.45 4.4 -15.2 4.2 -15.1 4.2 -15.1 4.2 -15.1 3.55 -15.1 3.55 -15.1 3.35 Q-15.1 3.25 -15.1 3.15 L-15.1 2.95 -15.0 2.6 -15.0 2.5 -14.95 2.3 -14.85 2.0 -14.7 1.75 -14.6 1.65 Q-14.45 1.55 -14.3 1.4 L-14.3 1.4 -14.0 1.25 -13.95 1.5 Q-13.95 1.55 -13.95 1.6 -14.0 1.8 -14.05 2.05 -14.1 2.2 -14.2 2.4 -14.3 2.65 -14.4 2.95 L-14.4 2.95 -14.45 3.15 -14.45 3.35 Q-14.45 3.65 -14.4 4.0 L-14.3 4.2 -14.25 4.35 -14.15 4.7 Q-14.15 4.95 -14.1 5.2 L-14.1 5.4 -14.1 5.75 Q-14.15 5.9 -14.2 6.05 L-14.3 6.2 -14.4 6.2 -14.4 6.2 -14.65 6.0 -14.7 5.7 Q-14.7 5.45 -14.7 5.2 L-14.7 5.1 -14.7 5.1 -14.8 5.1 -15.0 6.4 Q-15.05 6.5 -15.1 6.65 -15.2 7.05 -15.3 7.45 L-15.3 7.45 -15.8 7.2 Q-15.85 7.6 -15.95 8.05 L-16.05 8.1 -16.15 8.2 -16.25 8.2 -16.25 8.2 -16.55 7.75 -16.5 7.25 -16.5 7.15 Q-16.5 7.05 -16.5 6.95 L-16.5 6.95 -16.5 6.85 -16.4 6.65 -16.4 6.55 -16.3 6.2 -16.3 6.1 -16.3 5.9 -16.2 5.7 -16.0 5.25 -15.9 5.05 -16.2 5.35 -16.3 5.45 -16.65 5.8 Q-16.75 5.9 -16.85 6.0 L-17.45 6.25 -17.75 6.3 -18.05 6.25 -18.1 6.25 -18.2 6.15 -18.2 6.15 -17.65 5.5 -16.1 3.65 -15.45 3.8 -15.45 3.95 -15.45 4.1 -15.55 4.45 -15.1 4.2 -15.0 2.6 -14.95 2.35 Q-14.8 1.5 -14.0 1.25 L-13.95 1.6 -14.2 2.4 -14.45 3.35 -14.25 4.35 -14.1 5.0 -14.1 5.4 -14.3 6.2 Q-14.7 6.15 -14.7 5.7 L-14.7 5.1 -14.8 5.1 -15.3 7.45 -15.8 7.2 -15.95 8.05 -16.25 8.2 -16.55 7.75 -16.25 5.9 -16.2 5.7 -15.9 5.05 -16.2 5.35 Q-17.0 6.3 -17.75 6.3 L-18.0 6.3 -18.2 6.15 M-12.95 4.2 L-12.9 3.65 -11.8 5.4 -11.6 5.95 Q-11.15 7.1 -10.7 7.45 L-10.7 8.45 -11.0 8.55 Q-11.65 8.55 -12.45 6.05 L-12.85 4.5 -12.95 4.2 -12.9 3.65 -10.7 7.45 Q-10.8 8.45 -11.0 8.55 -11.85 8.55 -12.95 4.2 M-12.8 0.15 L-12.8 0.6 Q-11.75 2.3 -10.65 4.05 -11.2 4.5 -10.6 5.4 L-9.85 6.35 Q-8.3 8.2 -6.45 8.2 -6.15 7.7 -6.35 7.55 L-8.45 6.05 -8.95 5.75 -9.05 5.65 -9.95 4.8 -9.6 4.75 -6.95 5.7 Q-6.7 5.7 -6.6 5.55 L-6.6 5.35 Q-7.25 4.65 -9.75 3.4 L-10.55 2.25 Q-11.85 0.4 -12.8 0.15 L-12.8 0.15 -12.8 0.6 -10.65 4.05 Q-11.05 4.95 -9.85 6.35 -8.45 8.0 -6.85 8.2 -6.3 7.55 -6.65 7.25 L-8.95 5.75 -9.95 4.8 -9.6 4.75 -8.7 5.1 -6.95 5.7 Q-6.7 5.7 -6.6 5.55 L-6.6 5.35 Q-7.2 4.75 -9.2 3.7 L-9.75 3.4 -10.55 2.25 Q-11.85 0.4 -12.8 0.15 L-12.8 0.15 -12.8 0.6 -10.65 4.05 -10.95 4.8 -9.85 6.35 Q-8.75 7.65 -7.5 8.05 L-6.45 8.2 -5.95 8.05 -6.25 7.55 -6.8 7.15 -7.65 6.55 -8.95 5.75 -9.55 5.25 -9.95 4.8 -9.6 4.75 -9.5 4.75 -8.5 5.2 -6.95 5.7 Q-6.7 5.7 -6.6 5.55 L-6.6 5.35 -7.3 4.8 -9.0 3.8 -9.5 3.5 -9.75 3.4 -10.55 2.25 -11.2 1.4 Q-12.1 0.35 -12.8 0.15 L-12.8 0.6 -10.65 4.05 -10.95 4.8 -9.85 6.35 Q-8.75 7.65 -7.5 8.05 L-6.45 8.2 -5.95 8.05 -6.25 7.55 -6.8 7.15 -7.65 6.55 -8.95 5.75 -9.55 5.25 -9.95 4.8 -9.6 4.75 -9.5 4.75 -8.5 5.2 -6.95 5.7 Q-6.7 5.7 -6.6 5.55 L-6.6 5.35 -7.3 4.8 -9.0 3.8 -9.5 3.5 -9.75 3.4 -10.55 2.25 -11.2 1.4 Q-12.1 0.35 -12.8 0.15;M-31.45 6.65 Q-31.45 6.0 -29.65 5.55 L-29.45 5.45 -27.45 5.1 -27.25 5.1 -27.15 5.1 -26.5 5.0 -26.35 5.0 -24.9 4.7 -19.3 4.1 -19.1 4.05 -19.05 4.05 -19.05 3.9 -18.4 3.25 Q-17.4 2.7 -16.0 1.45 L-15.15 0.6 -15.0 0.65 Q-14.85 0.75 -14.85 1.05 L-14.95 1.45 -14.9 1.4 -14.85 1.85 -14.85 2.0 Q-14.6 1.45 -14.0 1.25 L-13.95 1.6 -14.2 2.4 -14.45 3.35 -14.25 4.35 -14.15 4.55 -14.1 5.4 -14.3 6.2 Q-14.7 6.15 -14.7 5.7 L-14.7 5.1 -14.8 5.1 -15.3 7.45 -15.6 7.3 -15.8 7.2 -15.95 8.05 -16.25 8.2 -16.55 7.75 -16.2 5.7 -15.9 5.05 -16.2 5.35 Q-17.0 6.3 -17.75 6.3 L-18.2 6.15 -17.65 5.5 -17.8 5.15 -17.45 4.85 -18.4 5.1 -18.6 5.1 -19.2 5.15 -19.85 5.3 -19.85 5.35 -20.1 5.75 -19.8 5.7 -19.4 5.75 -19.35 6.05 -20.75 6.95 -22.7 7.5 -23.2 7.55 -23.4 7.6 -23.1 7.7 -23.0 7.8 Q-22.85 8.05 -23.05 8.4 L-22.65 8.65 Q-21.6 8.75 -20.5 8.85 L-20.05 9.2 Q-19.5 9.6 -18.9 10.0 -18.8 10.0 -18.05 9.6 L-17.35 9.35 -16.5 9.2 -13.65 9.45 -13.0 9.8 -11.75 10.3 -11.7 9.75 -11.6 9.75 -11.45 9.7 -10.25 10.0 -9.75 9.85 -9.65 9.8 -9.9 9.5 -9.95 9.45 Q-9.95 9.1 -9.65 9.1 L-8.95 9.15 -5.65 8.95 Q-5.6 8.65 -5.8 8.45 L-5.9 8.35 -6.1 8.15 -6.45 8.2 Q-8.1 8.2 -9.5 6.75 L-9.85 6.35 Q-11.05 4.95 -11.45 3.6 -11.05 3.65 -10.65 4.05 L-12.8 0.65 -12.8 0.6 -12.8 0.15 Q-12.1 0.35 -11.2 1.4 L-11.7 0.15 -11.7 0.05 Q-11.6 -0.75 -10.65 0.35 L-10.3 0.8 -10.2 0.9 Q-9.8 1.4 -9.35 1.9 L-9.05 2.15 -8.4 2.2 -8.1 2.35 Q-7.85 2.55 -7.85 3.0 L-7.9 3.25 -8.1 3.25 -8.5 3.3 -9.0 3.25 Q-9.7 3.15 -10.2 2.7 L-9.75 3.4 -9.1 3.75 -8.95 3.75 -8.8 3.4 -8.6 3.35 -8.25 3.4 -7.7 3.6 Q-7.15 3.9 -6.95 4.15 L-5.7 4.2 -5.6 4.35 -5.55 4.4 -4.55 4.4 -2.15 4.45 -1.85 4.6 -1.65 4.7 -1.2 4.8 Q-0.65 5.0 -0.65 5.5 L-0.65 5.6 Q0.15 5.75 0.45 6.15 1.1 6.15 1.75 6.2 3.1 6.2 4.45 6.15 L5.2 6.15 7.6 6.2 7.7 6.2 Q8.2 6.2 8.3 6.6 8.05 7.05 6.2 7.2 4.4 7.35 4.4 7.65 4.4 8.15 2.15 8.5 L-0.85 8.9 -1.3 9.05 -2.05 9.0 -2.35 9.0 -1.9 9.1 -1.35 9.3 -1.25 9.3 Q-0.45 9.6 -0.2 9.75 L-0.1 9.9 -0.4 10.2 -1.65 10.1 -2.05 10.1 -2.55 10.1 -2.35 10.4 -2.35 10.4 -2.4 10.6 Q-2.7 10.8 -3.25 10.6 L-4.15 10.6 -4.0 10.7 -3.95 10.9 -3.95 11.0 -4.05 11.15 -4.65 11.2 -6.45 11.0 -6.9 11.0 Q-7.65 11.0 -8.05 11.35 L-8.4 11.85 -9.6 12.55 Q-9.95 12.55 -10.35 12.15 L-10.35 12.15 -11.05 11.55 -11.2 11.6 -10.95 11.8 -10.75 11.9 -10.45 12.2 -10.65 12.55 -11.1 12.8 -11.85 12.55 -13.0 12.05 -13.2 11.95 -13.95 11.6 -14.7 11.25 Q-15.55 10.85 -15.95 10.75 L-17.15 10.6 -18.55 11.0 Q-19.6 11.25 -20.65 11.5 L-21.25 11.7 -21.75 11.6 -22.45 11.5 -22.45 11.1 -22.45 11.0 -22.2 10.75 Q-22.85 10.7 -22.8 10.4 L-22.7 10.0 -22.8 9.85 -22.9 9.85 -24.7 9.65 -25.55 9.6 -25.65 9.7 -27.35 9.7 -27.95 9.7 -28.15 9.7 -28.45 9.4 -28.4 9.1 -29.35 9.1 -29.65 9.3 -30.35 9.3 -31.15 9.3 -31.45 9.15 -31.45 8.95 -31.45 8.5 -31.0 8.5 -29.8 8.4 -29.2 8.35 -29.15 8.15 -28.65 8.0 -28.2 8.0 -29.15 7.95 -29.45 7.5 -29.35 7.4 -28.75 7.15 -28.05 6.85 -29.55 6.95 -30.75 7.05 -30.95 7.05 -31.1 7.05 -31.45 6.65 M-25.7 7.2 Q-25.45 7.2 -25.15 7.2 L-23.6 6.65 Q-24.5 7.25 -24.3 7.4 -25.0 7.35 -25.7 7.3 -25.7 7.25 -25.7 7.2 -25.45 7.2 -25.15 7.2 L-23.6 6.65 Q-24.5 7.25 -24.3 7.4 -25.0 7.35 -25.7 7.3 -25.7 7.25 -25.7 7.2 M-23.4 7.6 L-23.2 7.55 -20.75 6.95 -19.35 6.05 -19.4 5.75 -19.8 5.7 -20.1 5.75 -19.85 5.35 -19.2 5.15 -17.45 4.85 -17.8 5.15 -17.65 5.5 -18.2 6.15 -18.0 6.3 -17.75 6.3 Q-17.0 6.3 -16.2 5.35 L-15.9 5.05 -16.1 5.4 -16.2 5.7 -16.45 6.8 -16.5 7.25 -16.55 7.75 -16.25 8.2 -15.95 8.05 -15.8 7.2 -15.4 7.4 -15.3 7.45 -14.8 5.1 -14.7 5.1 -14.7 5.7 Q-14.7 6.15 -14.3 6.2 L-14.1 5.4 -14.1 4.95 -14.25 4.35 -14.45 3.35 -14.2 2.4 -13.95 1.6 -14.0 1.25 Q-14.6 1.45 -14.85 2.0 L-14.85 1.85 -14.9 1.4 -14.85 1.05 Q-14.85 0.75 -15.0 0.65 -14.65 -0.15 -14.65 -0.6 -14.65 -1.2 -14.8 -1.6 -15.05 -2.25 -15.75 -2.4 L-15.8 -2.4 -15.45 -3.35 -15.35 -3.45 Q-14.65 -5.3 -14.25 -5.3 L-13.95 -5.05 -13.45 -5.65 -12.55 -5.6 Q-12.0 -5.1 -11.95 -4.15 L-11.8 -3.0 -11.55 -1.9 Q-12.0 -1.65 -12.0 -0.85 L-11.85 -0.25 -11.7 0.05 -11.7 0.15 -11.2 1.4 -11.45 1.1 Q-12.2 0.3 -12.8 0.15 L-12.8 0.45 -12.8 0.6 -12.7 0.7 -10.65 4.05 Q-11.05 3.65 -11.45 3.6 -11.05 4.9 -9.95 6.25 L-9.85 6.35 -8.8 7.35 Q-7.7 8.2 -6.45 8.2 L-6.1 8.15 -5.8 8.45 -5.65 8.75 -5.65 8.95 -7.45 9.05 -8.95 9.15 -9.65 9.1 Q-9.95 9.1 -9.95 9.45 L-9.9 9.5 -10.3 9.5 -9.75 9.85 -10.25 10.0 -11.45 9.7 -11.7 9.75 -11.75 10.3 -12.0 10.2 -13.65 9.45 -14.55 9.35 -16.05 9.2 -16.5 9.2 -18.05 9.6 Q-18.8 10.0 -18.9 10.0 L-20.5 8.85 -21.65 8.8 -22.65 8.65 -23.05 8.4 -22.95 7.9 -23.4 7.6 -15.55 4.35 -15.45 4.1 -15.45 3.95 -15.45 3.95 -15.45 3.95 -15.45 3.9 -15.45 3.8 -15.5 3.6 -15.5 3.5 Q-15.4 3.4 -15.3 3.3 L-15.3 3.3 -15.25 3.2 -15.2 3.1 -15.1 2.95 -15.0 2.65 -15.0 2.75 -15.0 2.95 Q-15.0 3.0 -15.0 3.05 L-15.0 3.15 -15.0 3.15 -15.0 3.6 -15.0 3.7 -15.0 3.8 -15.0 3.8 -15.0 3.9 -15.1 4.2 -15.1 4.2 -15.2 4.2 -15.3 4.2 Q-15.35 4.25 -15.45 4.35 L-15.55 4.45 -15.55 4.45 M-15.55 4.45 L-15.5 4.35 -15.5 3.7 -15.5 3.5 Q-15.25 3.15 -15.0 2.75 L-15.0 3.0 -15.0 3.1 Q-15.05 3.65 -15.1 4.2 L-15.55 4.45 -15.55 4.45 -12.9 3.65 -10.7 7.45 Q-10.8 8.45 -11.0 8.55 -11.85 8.55 -12.95 4.2 M-12.95 4.2 L-12.95 4.05 Q-12.5 3.85 -12.2 4.55 -12.0 4.95 -11.8 5.4 L-11.6 5.85 Q-11.25 6.55 -10.9 7.25 -10.8 7.35 -10.7 7.45 L-10.7 8.45 -10.85 8.5 -11.0 8.55 -11.3 8.4 -11.4 8.3 -11.9 7.45 Q-11.95 7.4 -12.0 7.35 L-12.0 7.35 Q-12.2 6.7 -12.45 6.05 L-12.55 5.65 Q-12.75 5.0 -12.95 4.35 L-12.95 4.2 -10.1 2.8 -9.65 3.05 Q-9.4 3.15 -9.1 3.25 -9.05 3.25 -9.0 3.25 -8.9 3.3 -8.8 3.4 L-8.95 3.55 -8.95 3.75 -8.95 3.75 -9.1 3.75 -9.3 3.65 Q-9.3 3.65 -9.3 3.65 L-9.3 3.65 Q-9.5 3.55 -9.75 3.4 L-9.75 3.4 -9.85 3.3 Q-9.9 3.2 -10.0 3.05 L-10.2 2.7 -9.7 4.75 -7.4 5.6 -6.6 5.35 -5.6 5.45 Q-4.75 5.5 -3.85 5.55 L-3.2 5.5 -2.95 5.5 -2.65 5.4 -2.35 5.35 -2.55 5.85 -3.25 5.95 -3.6 6.1 -3.6 6.3 -3.55 6.5 -3.55 6.5 -4.15 6.55 -5.1 6.45 Q-5.25 6.45 -5.4 6.45 L-5.5 6.45 -6.1 6.35 -7.35 6.5 -7.5 6.7 -7.6 6.6 -8.3 6.15 -8.95 5.75 Q-9.45 5.3 -9.95 4.8 L-9.7 4.75 -7.4 5.6 -6.6 5.35 -5.6 5.45 Q-4.75 5.5 -3.85 5.55 L-3.2 5.5 -2.95 5.5 -2.65 5.4 -2.35 5.35 -2.55 5.85 -3.25 5.95 -3.6 6.1 -3.6 6.3 -3.55 6.5 -3.55 6.5 -4.15 6.55 -5.1 6.45 Q-5.25 6.45 -5.4 6.45 L-5.5 6.45 -6.1 6.35 -7.35 6.5 -7.5 6.7 -7.6 6.6 -8.3 6.15 -8.95 5.75 Q-9.45 5.3 -9.95 4.8"/>
    </path>
  </g>
</svg>
